<svg width="285" height="372" viewBox="0 0 285 372" fill="none" xmlns="http://www.w3.org/2000/svg">
<path d="M0.429688 6.00781C0.429688 4.39062 0.96875 3.07812 2.04688 2.07031C3.14844 1.0625 4.51953 0.558594 6.16016 0.558594C7.82422 0.558594 9.19531 1.0625 10.2734 2.07031C11.375 3.07812 11.9258 4.39062 11.9258 6.00781C11.9258 7.60156 11.3867 8.90234 10.3086 9.91016C9.23047 10.8945 7.84766 11.3867 6.16016 11.3867C4.49609 11.3867 3.125 10.8945 2.04688 9.91016C0.96875 8.90234 0.429688 7.60156 0.429688 6.00781ZM21.3828 6.00781C21.3828 4.39062 21.9219 3.07812 23 2.07031C24.1016 1.0625 25.4727 0.558594 27.1133 0.558594C28.7773 0.558594 30.1484 1.0625 31.2266 2.07031C32.3281 3.07812 32.8789 4.39062 32.8789 6.00781C32.8789 7.60156 32.3398 8.90234 31.2617 9.91016C30.1836 10.8945 28.8008 11.3867 27.1133 11.3867C25.4492 11.3867 24.0781 10.8945 23 9.91016C21.9219 8.90234 21.3828 7.60156 21.3828 6.00781ZM42.3359 6.00781C42.3359 4.39062 42.875 3.07812 43.9531 2.07031C45.0547 1.0625 46.4258 0.558594 48.0664 0.558594C49.7305 0.558594 51.1016 1.0625 52.1797 2.07031C53.2812 3.07812 53.832 4.39062 53.832 6.00781C53.832 7.60156 53.293 8.90234 52.2148 9.91016C51.1367 10.8945 49.7539 11.3867 48.0664 11.3867C46.4023 11.3867 45.0312 10.8945 43.9531 9.91016C42.875 8.90234 42.3359 7.60156 42.3359 6.00781ZM63.2891 6.00781C63.2891 4.39062 63.8281 3.07812 64.9062 2.07031C66.0078 1.0625 67.3789 0.558594 69.0195 0.558594C70.6836 0.558594 72.0547 1.0625 73.1328 2.07031C74.2344 3.07812 74.7852 4.39062 74.7852 6.00781C74.7852 7.60156 74.2461 8.90234 73.168 9.91016C72.0898 10.8945 70.707 11.3867 69.0195 11.3867C67.3555 11.3867 65.9844 10.8945 64.9062 9.91016C63.8281 8.90234 63.2891 7.60156 63.2891 6.00781ZM84.2422 6.00781C84.2422 4.39062 84.7812 3.07812 85.8594 2.07031C86.9609 1.0625 88.332 0.558594 89.9727 0.558594C91.6367 0.558594 93.0078 1.0625 94.0859 2.07031C95.1875 3.07812 95.7383 4.39062 95.7383 6.00781C95.7383 7.60156 95.1992 8.90234 94.1211 9.91016C93.043 10.8945 91.6602 11.3867 89.9727 11.3867C88.3086 11.3867 86.9375 10.8945 85.8594 9.91016C84.7812 8.90234 84.2422 7.60156 84.2422 6.00781ZM105.195 6.00781C105.195 4.39062 105.734 3.07812 106.812 2.07031C107.914 1.0625 109.285 0.558594 110.926 0.558594C112.59 0.558594 113.961 1.0625 115.039 2.07031C116.141 3.07812 116.691 4.39062 116.691 6.00781C116.691 7.60156 116.152 8.90234 115.074 9.91016C113.996 10.8945 112.613 11.3867 110.926 11.3867C109.262 11.3867 107.891 10.8945 106.812 9.91016C105.734 8.90234 105.195 7.60156 105.195 6.00781ZM126.148 6.00781C126.148 4.39062 126.688 3.07812 127.766 2.07031C128.867 1.0625 130.238 0.558594 131.879 0.558594C133.543 0.558594 134.914 1.0625 135.992 2.07031C137.094 3.07812 137.645 4.39062 137.645 6.00781C137.645 7.60156 137.105 8.90234 136.027 9.91016C134.949 10.8945 133.566 11.3867 131.879 11.3867C130.215 11.3867 128.844 10.8945 127.766 9.91016C126.688 8.90234 126.148 7.60156 126.148 6.00781ZM147.102 6.00781C147.102 4.39062 147.641 3.07812 148.719 2.07031C149.82 1.0625 151.191 0.558594 152.832 0.558594C154.496 0.558594 155.867 1.0625 156.945 2.07031C158.047 3.07812 158.598 4.39062 158.598 6.00781C158.598 7.60156 158.059 8.90234 156.98 9.91016C155.902 10.8945 154.52 11.3867 152.832 11.3867C151.168 11.3867 149.797 10.8945 148.719 9.91016C147.641 8.90234 147.102 7.60156 147.102 6.00781ZM168.055 6.00781C168.055 4.39062 168.594 3.07812 169.672 2.07031C170.773 1.0625 172.145 0.558594 173.785 0.558594C175.449 0.558594 176.82 1.0625 177.898 2.07031C179 3.07812 179.551 4.39062 179.551 6.00781C179.551 7.60156 179.012 8.90234 177.934 9.91016C176.855 10.8945 175.473 11.3867 173.785 11.3867C172.121 11.3867 170.75 10.8945 169.672 9.91016C168.594 8.90234 168.055 7.60156 168.055 6.00781ZM189.008 6.00781C189.008 4.39062 189.547 3.07812 190.625 2.07031C191.727 1.0625 193.098 0.558594 194.738 0.558594C196.402 0.558594 197.773 1.0625 198.852 2.07031C199.953 3.07812 200.504 4.39062 200.504 6.00781C200.504 7.60156 199.965 8.90234 198.887 9.91016C197.809 10.8945 196.426 11.3867 194.738 11.3867C193.074 11.3867 191.703 10.8945 190.625 9.91016C189.547 8.90234 189.008 7.60156 189.008 6.00781ZM209.961 6.00781C209.961 4.39062 210.5 3.07812 211.578 2.07031C212.68 1.0625 214.051 0.558594 215.691 0.558594C217.355 0.558594 218.727 1.0625 219.805 2.07031C220.906 3.07812 221.457 4.39062 221.457 6.00781C221.457 7.60156 220.918 8.90234 219.84 9.91016C218.762 10.8945 217.379 11.3867 215.691 11.3867C214.027 11.3867 212.656 10.8945 211.578 9.91016C210.5 8.90234 209.961 7.60156 209.961 6.00781ZM230.914 6.00781C230.914 4.39062 231.453 3.07812 232.531 2.07031C233.633 1.0625 235.004 0.558594 236.645 0.558594C238.309 0.558594 239.68 1.0625 240.758 2.07031C241.859 3.07812 242.41 4.39062 242.41 6.00781C242.41 7.60156 241.871 8.90234 240.793 9.91016C239.715 10.8945 238.332 11.3867 236.645 11.3867C234.98 11.3867 233.609 10.8945 232.531 9.91016C231.453 8.90234 230.914 7.60156 230.914 6.00781ZM251.867 6.00781C251.867 4.39062 252.406 3.07812 253.484 2.07031C254.586 1.0625 255.957 0.558594 257.598 0.558594C259.262 0.558594 260.633 1.0625 261.711 2.07031C262.812 3.07812 263.363 4.39062 263.363 6.00781C263.363 7.60156 262.824 8.90234 261.746 9.91016C260.668 10.8945 259.285 11.3867 257.598 11.3867C255.934 11.3867 254.562 10.8945 253.484 9.91016C252.406 8.90234 251.867 7.60156 251.867 6.00781ZM272.82 6.00781C272.82 4.39062 273.359 3.07812 274.438 2.07031C275.539 1.0625 276.91 0.558594 278.551 0.558594C280.215 0.558594 281.586 1.0625 282.664 2.07031C283.766 3.07812 284.316 4.39062 284.316 6.00781C284.316 7.60156 283.777 8.90234 282.699 9.91016C281.621 10.8945 280.238 11.3867 278.551 11.3867C276.887 11.3867 275.516 10.8945 274.438 9.91016C273.359 8.90234 272.82 7.60156 272.82 6.00781ZM0.429688 36.0078C0.429688 34.3906 0.96875 33.0781 2.04688 32.0703C3.14844 31.0625 4.51953 30.5586 6.16016 30.5586C7.82422 30.5586 9.19531 31.0625 10.2734 32.0703C11.375 33.0781 11.9258 34.3906 11.9258 36.0078C11.9258 37.6016 11.3867 38.9023 10.3086 39.9102C9.23047 40.8945 7.84766 41.3867 6.16016 41.3867C4.49609 41.3867 3.125 40.8945 2.04688 39.9102C0.96875 38.9023 0.429688 37.6016 0.429688 36.0078ZM21.3828 36.0078C21.3828 34.3906 21.9219 33.0781 23 32.0703C24.1016 31.0625 25.4727 30.5586 27.1133 30.5586C28.7773 30.5586 30.1484 31.0625 31.2266 32.0703C32.3281 33.0781 32.8789 34.3906 32.8789 36.0078C32.8789 37.6016 32.3398 38.9023 31.2617 39.9102C30.1836 40.8945 28.8008 41.3867 27.1133 41.3867C25.4492 41.3867 24.0781 40.8945 23 39.9102C21.9219 38.9023 21.3828 37.6016 21.3828 36.0078ZM42.3359 36.0078C42.3359 34.3906 42.875 33.0781 43.9531 32.0703C45.0547 31.0625 46.4258 30.5586 48.0664 30.5586C49.7305 30.5586 51.1016 31.0625 52.1797 32.0703C53.2812 33.0781 53.832 34.3906 53.832 36.0078C53.832 37.6016 53.293 38.9023 52.2148 39.9102C51.1367 40.8945 49.7539 41.3867 48.0664 41.3867C46.4023 41.3867 45.0312 40.8945 43.9531 39.9102C42.875 38.9023 42.3359 37.6016 42.3359 36.0078ZM63.2891 36.0078C63.2891 34.3906 63.8281 33.0781 64.9062 32.0703C66.0078 31.0625 67.3789 30.5586 69.0195 30.5586C70.6836 30.5586 72.0547 31.0625 73.1328 32.0703C74.2344 33.0781 74.7852 34.3906 74.7852 36.0078C74.7852 37.6016 74.2461 38.9023 73.168 39.9102C72.0898 40.8945 70.707 41.3867 69.0195 41.3867C67.3555 41.3867 65.9844 40.8945 64.9062 39.9102C63.8281 38.9023 63.2891 37.6016 63.2891 36.0078ZM84.2422 36.0078C84.2422 34.3906 84.7812 33.0781 85.8594 32.0703C86.9609 31.0625 88.332 30.5586 89.9727 30.5586C91.6367 30.5586 93.0078 31.0625 94.0859 32.0703C95.1875 33.0781 95.7383 34.3906 95.7383 36.0078C95.7383 37.6016 95.1992 38.9023 94.1211 39.9102C93.043 40.8945 91.6602 41.3867 89.9727 41.3867C88.3086 41.3867 86.9375 40.8945 85.8594 39.9102C84.7812 38.9023 84.2422 37.6016 84.2422 36.0078ZM105.195 36.0078C105.195 34.3906 105.734 33.0781 106.812 32.0703C107.914 31.0625 109.285 30.5586 110.926 30.5586C112.59 30.5586 113.961 31.0625 115.039 32.0703C116.141 33.0781 116.691 34.3906 116.691 36.0078C116.691 37.6016 116.152 38.9023 115.074 39.9102C113.996 40.8945 112.613 41.3867 110.926 41.3867C109.262 41.3867 107.891 40.8945 106.812 39.9102C105.734 38.9023 105.195 37.6016 105.195 36.0078ZM126.148 36.0078C126.148 34.3906 126.688 33.0781 127.766 32.0703C128.867 31.0625 130.238 30.5586 131.879 30.5586C133.543 30.5586 134.914 31.0625 135.992 32.0703C137.094 33.0781 137.645 34.3906 137.645 36.0078C137.645 37.6016 137.105 38.9023 136.027 39.9102C134.949 40.8945 133.566 41.3867 131.879 41.3867C130.215 41.3867 128.844 40.8945 127.766 39.9102C126.688 38.9023 126.148 37.6016 126.148 36.0078ZM147.102 36.0078C147.102 34.3906 147.641 33.0781 148.719 32.0703C149.82 31.0625 151.191 30.5586 152.832 30.5586C154.496 30.5586 155.867 31.0625 156.945 32.0703C158.047 33.0781 158.598 34.3906 158.598 36.0078C158.598 37.6016 158.059 38.9023 156.98 39.9102C155.902 40.8945 154.52 41.3867 152.832 41.3867C151.168 41.3867 149.797 40.8945 148.719 39.9102C147.641 38.9023 147.102 37.6016 147.102 36.0078ZM168.055 36.0078C168.055 34.3906 168.594 33.0781 169.672 32.0703C170.773 31.0625 172.145 30.5586 173.785 30.5586C175.449 30.5586 176.82 31.0625 177.898 32.0703C179 33.0781 179.551 34.3906 179.551 36.0078C179.551 37.6016 179.012 38.9023 177.934 39.9102C176.855 40.8945 175.473 41.3867 173.785 41.3867C172.121 41.3867 170.75 40.8945 169.672 39.9102C168.594 38.9023 168.055 37.6016 168.055 36.0078ZM189.008 36.0078C189.008 34.3906 189.547 33.0781 190.625 32.0703C191.727 31.0625 193.098 30.5586 194.738 30.5586C196.402 30.5586 197.773 31.0625 198.852 32.0703C199.953 33.0781 200.504 34.3906 200.504 36.0078C200.504 37.6016 199.965 38.9023 198.887 39.9102C197.809 40.8945 196.426 41.3867 194.738 41.3867C193.074 41.3867 191.703 40.8945 190.625 39.9102C189.547 38.9023 189.008 37.6016 189.008 36.0078ZM209.961 36.0078C209.961 34.3906 210.5 33.0781 211.578 32.0703C212.68 31.0625 214.051 30.5586 215.691 30.5586C217.355 30.5586 218.727 31.0625 219.805 32.0703C220.906 33.0781 221.457 34.3906 221.457 36.0078C221.457 37.6016 220.918 38.9023 219.84 39.9102C218.762 40.8945 217.379 41.3867 215.691 41.3867C214.027 41.3867 212.656 40.8945 211.578 39.9102C210.5 38.9023 209.961 37.6016 209.961 36.0078ZM230.914 36.0078C230.914 34.3906 231.453 33.0781 232.531 32.0703C233.633 31.0625 235.004 30.5586 236.645 30.5586C238.309 30.5586 239.68 31.0625 240.758 32.0703C241.859 33.0781 242.41 34.3906 242.41 36.0078C242.41 37.6016 241.871 38.9023 240.793 39.9102C239.715 40.8945 238.332 41.3867 236.645 41.3867C234.98 41.3867 233.609 40.8945 232.531 39.9102C231.453 38.9023 230.914 37.6016 230.914 36.0078ZM251.867 36.0078C251.867 34.3906 252.406 33.0781 253.484 32.0703C254.586 31.0625 255.957 30.5586 257.598 30.5586C259.262 30.5586 260.633 31.0625 261.711 32.0703C262.812 33.0781 263.363 34.3906 263.363 36.0078C263.363 37.6016 262.824 38.9023 261.746 39.9102C260.668 40.8945 259.285 41.3867 257.598 41.3867C255.934 41.3867 254.562 40.8945 253.484 39.9102C252.406 38.9023 251.867 37.6016 251.867 36.0078ZM272.82 36.0078C272.82 34.3906 273.359 33.0781 274.438 32.0703C275.539 31.0625 276.91 30.5586 278.551 30.5586C280.215 30.5586 281.586 31.0625 282.664 32.0703C283.766 33.0781 284.316 34.3906 284.316 36.0078C284.316 37.6016 283.777 38.9023 282.699 39.9102C281.621 40.8945 280.238 41.3867 278.551 41.3867C276.887 41.3867 275.516 40.8945 274.438 39.9102C273.359 38.9023 272.82 37.6016 272.82 36.0078ZM0.429688 66.0078C0.429688 64.3906 0.96875 63.0781 2.04688 62.0703C3.14844 61.0625 4.51953 60.5586 6.16016 60.5586C7.82422 60.5586 9.19531 61.0625 10.2734 62.0703C11.375 63.0781 11.9258 64.3906 11.9258 66.0078C11.9258 67.6016 11.3867 68.9023 10.3086 69.9102C9.23047 70.8945 7.84766 71.3867 6.16016 71.3867C4.49609 71.3867 3.125 70.8945 2.04688 69.9102C0.96875 68.9023 0.429688 67.6016 0.429688 66.0078ZM21.3828 66.0078C21.3828 64.3906 21.9219 63.0781 23 62.0703C24.1016 61.0625 25.4727 60.5586 27.1133 60.5586C28.7773 60.5586 30.1484 61.0625 31.2266 62.0703C32.3281 63.0781 32.8789 64.3906 32.8789 66.0078C32.8789 67.6016 32.3398 68.9023 31.2617 69.9102C30.1836 70.8945 28.8008 71.3867 27.1133 71.3867C25.4492 71.3867 24.0781 70.8945 23 69.9102C21.9219 68.9023 21.3828 67.6016 21.3828 66.0078ZM42.3359 66.0078C42.3359 64.3906 42.875 63.0781 43.9531 62.0703C45.0547 61.0625 46.4258 60.5586 48.0664 60.5586C49.7305 60.5586 51.1016 61.0625 52.1797 62.0703C53.2812 63.0781 53.832 64.3906 53.832 66.0078C53.832 67.6016 53.293 68.9023 52.2148 69.9102C51.1367 70.8945 49.7539 71.3867 48.0664 71.3867C46.4023 71.3867 45.0312 70.8945 43.9531 69.9102C42.875 68.9023 42.3359 67.6016 42.3359 66.0078ZM63.2891 66.0078C63.2891 64.3906 63.8281 63.0781 64.9062 62.0703C66.0078 61.0625 67.3789 60.5586 69.0195 60.5586C70.6836 60.5586 72.0547 61.0625 73.1328 62.0703C74.2344 63.0781 74.7852 64.3906 74.7852 66.0078C74.7852 67.6016 74.2461 68.9023 73.168 69.9102C72.0898 70.8945 70.707 71.3867 69.0195 71.3867C67.3555 71.3867 65.9844 70.8945 64.9062 69.9102C63.8281 68.9023 63.2891 67.6016 63.2891 66.0078ZM84.2422 66.0078C84.2422 64.3906 84.7812 63.0781 85.8594 62.0703C86.9609 61.0625 88.332 60.5586 89.9727 60.5586C91.6367 60.5586 93.0078 61.0625 94.0859 62.0703C95.1875 63.0781 95.7383 64.3906 95.7383 66.0078C95.7383 67.6016 95.1992 68.9023 94.1211 69.9102C93.043 70.8945 91.6602 71.3867 89.9727 71.3867C88.3086 71.3867 86.9375 70.8945 85.8594 69.9102C84.7812 68.9023 84.2422 67.6016 84.2422 66.0078ZM105.195 66.0078C105.195 64.3906 105.734 63.0781 106.812 62.0703C107.914 61.0625 109.285 60.5586 110.926 60.5586C112.59 60.5586 113.961 61.0625 115.039 62.0703C116.141 63.0781 116.691 64.3906 116.691 66.0078C116.691 67.6016 116.152 68.9023 115.074 69.9102C113.996 70.8945 112.613 71.3867 110.926 71.3867C109.262 71.3867 107.891 70.8945 106.812 69.9102C105.734 68.9023 105.195 67.6016 105.195 66.0078ZM126.148 66.0078C126.148 64.3906 126.688 63.0781 127.766 62.0703C128.867 61.0625 130.238 60.5586 131.879 60.5586C133.543 60.5586 134.914 61.0625 135.992 62.0703C137.094 63.0781 137.645 64.3906 137.645 66.0078C137.645 67.6016 137.105 68.9023 136.027 69.9102C134.949 70.8945 133.566 71.3867 131.879 71.3867C130.215 71.3867 128.844 70.8945 127.766 69.9102C126.688 68.9023 126.148 67.6016 126.148 66.0078ZM147.102 66.0078C147.102 64.3906 147.641 63.0781 148.719 62.0703C149.82 61.0625 151.191 60.5586 152.832 60.5586C154.496 60.5586 155.867 61.0625 156.945 62.0703C158.047 63.0781 158.598 64.3906 158.598 66.0078C158.598 67.6016 158.059 68.9023 156.98 69.9102C155.902 70.8945 154.52 71.3867 152.832 71.3867C151.168 71.3867 149.797 70.8945 148.719 69.9102C147.641 68.9023 147.102 67.6016 147.102 66.0078ZM168.055 66.0078C168.055 64.3906 168.594 63.0781 169.672 62.0703C170.773 61.0625 172.145 60.5586 173.785 60.5586C175.449 60.5586 176.82 61.0625 177.898 62.0703C179 63.0781 179.551 64.3906 179.551 66.0078C179.551 67.6016 179.012 68.9023 177.934 69.9102C176.855 70.8945 175.473 71.3867 173.785 71.3867C172.121 71.3867 170.75 70.8945 169.672 69.9102C168.594 68.9023 168.055 67.6016 168.055 66.0078ZM189.008 66.0078C189.008 64.3906 189.547 63.0781 190.625 62.0703C191.727 61.0625 193.098 60.5586 194.738 60.5586C196.402 60.5586 197.773 61.0625 198.852 62.0703C199.953 63.0781 200.504 64.3906 200.504 66.0078C200.504 67.6016 199.965 68.9023 198.887 69.9102C197.809 70.8945 196.426 71.3867 194.738 71.3867C193.074 71.3867 191.703 70.8945 190.625 69.9102C189.547 68.9023 189.008 67.6016 189.008 66.0078ZM209.961 66.0078C209.961 64.3906 210.5 63.0781 211.578 62.0703C212.68 61.0625 214.051 60.5586 215.691 60.5586C217.355 60.5586 218.727 61.0625 219.805 62.0703C220.906 63.0781 221.457 64.3906 221.457 66.0078C221.457 67.6016 220.918 68.9023 219.84 69.9102C218.762 70.8945 217.379 71.3867 215.691 71.3867C214.027 71.3867 212.656 70.8945 211.578 69.9102C210.5 68.9023 209.961 67.6016 209.961 66.0078ZM230.914 66.0078C230.914 64.3906 231.453 63.0781 232.531 62.0703C233.633 61.0625 235.004 60.5586 236.645 60.5586C238.309 60.5586 239.68 61.0625 240.758 62.0703C241.859 63.0781 242.41 64.3906 242.41 66.0078C242.41 67.6016 241.871 68.9023 240.793 69.9102C239.715 70.8945 238.332 71.3867 236.645 71.3867C234.98 71.3867 233.609 70.8945 232.531 69.9102C231.453 68.9023 230.914 67.6016 230.914 66.0078ZM251.867 66.0078C251.867 64.3906 252.406 63.0781 253.484 62.0703C254.586 61.0625 255.957 60.5586 257.598 60.5586C259.262 60.5586 260.633 61.0625 261.711 62.0703C262.812 63.0781 263.363 64.3906 263.363 66.0078C263.363 67.6016 262.824 68.9023 261.746 69.9102C260.668 70.8945 259.285 71.3867 257.598 71.3867C255.934 71.3867 254.562 70.8945 253.484 69.9102C252.406 68.9023 251.867 67.6016 251.867 66.0078ZM272.82 66.0078C272.82 64.3906 273.359 63.0781 274.438 62.0703C275.539 61.0625 276.91 60.5586 278.551 60.5586C280.215 60.5586 281.586 61.0625 282.664 62.0703C283.766 63.0781 284.316 64.3906 284.316 66.0078C284.316 67.6016 283.777 68.9023 282.699 69.9102C281.621 70.8945 280.238 71.3867 278.551 71.3867C276.887 71.3867 275.516 70.8945 274.438 69.9102C273.359 68.9023 272.82 67.6016 272.82 66.0078ZM0.429688 96.0078C0.429688 94.3906 0.96875 93.0781 2.04688 92.0703C3.14844 91.0625 4.51953 90.5586 6.16016 90.5586C7.82422 90.5586 9.19531 91.0625 10.2734 92.0703C11.375 93.0781 11.9258 94.3906 11.9258 96.0078C11.9258 97.6016 11.3867 98.9023 10.3086 99.9102C9.23047 100.895 7.84766 101.387 6.16016 101.387C4.49609 101.387 3.125 100.895 2.04688 99.9102C0.96875 98.9023 0.429688 97.6016 0.429688 96.0078ZM21.3828 96.0078C21.3828 94.3906 21.9219 93.0781 23 92.0703C24.1016 91.0625 25.4727 90.5586 27.1133 90.5586C28.7773 90.5586 30.1484 91.0625 31.2266 92.0703C32.3281 93.0781 32.8789 94.3906 32.8789 96.0078C32.8789 97.6016 32.3398 98.9023 31.2617 99.9102C30.1836 100.895 28.8008 101.387 27.1133 101.387C25.4492 101.387 24.0781 100.895 23 99.9102C21.9219 98.9023 21.3828 97.6016 21.3828 96.0078ZM42.3359 96.0078C42.3359 94.3906 42.875 93.0781 43.9531 92.0703C45.0547 91.0625 46.4258 90.5586 48.0664 90.5586C49.7305 90.5586 51.1016 91.0625 52.1797 92.0703C53.2812 93.0781 53.832 94.3906 53.832 96.0078C53.832 97.6016 53.293 98.9023 52.2148 99.9102C51.1367 100.895 49.7539 101.387 48.0664 101.387C46.4023 101.387 45.0312 100.895 43.9531 99.9102C42.875 98.9023 42.3359 97.6016 42.3359 96.0078ZM63.2891 96.0078C63.2891 94.3906 63.8281 93.0781 64.9062 92.0703C66.0078 91.0625 67.3789 90.5586 69.0195 90.5586C70.6836 90.5586 72.0547 91.0625 73.1328 92.0703C74.2344 93.0781 74.7852 94.3906 74.7852 96.0078C74.7852 97.6016 74.2461 98.9023 73.168 99.9102C72.0898 100.895 70.707 101.387 69.0195 101.387C67.3555 101.387 65.9844 100.895 64.9062 99.9102C63.8281 98.9023 63.2891 97.6016 63.2891 96.0078ZM84.2422 96.0078C84.2422 94.3906 84.7812 93.0781 85.8594 92.0703C86.9609 91.0625 88.332 90.5586 89.9727 90.5586C91.6367 90.5586 93.0078 91.0625 94.0859 92.0703C95.1875 93.0781 95.7383 94.3906 95.7383 96.0078C95.7383 97.6016 95.1992 98.9023 94.1211 99.9102C93.043 100.895 91.6602 101.387 89.9727 101.387C88.3086 101.387 86.9375 100.895 85.8594 99.9102C84.7812 98.9023 84.2422 97.6016 84.2422 96.0078ZM105.195 96.0078C105.195 94.3906 105.734 93.0781 106.812 92.0703C107.914 91.0625 109.285 90.5586 110.926 90.5586C112.59 90.5586 113.961 91.0625 115.039 92.0703C116.141 93.0781 116.691 94.3906 116.691 96.0078C116.691 97.6016 116.152 98.9023 115.074 99.9102C113.996 100.895 112.613 101.387 110.926 101.387C109.262 101.387 107.891 100.895 106.812 99.9102C105.734 98.9023 105.195 97.6016 105.195 96.0078ZM126.148 96.0078C126.148 94.3906 126.688 93.0781 127.766 92.0703C128.867 91.0625 130.238 90.5586 131.879 90.5586C133.543 90.5586 134.914 91.0625 135.992 92.0703C137.094 93.0781 137.645 94.3906 137.645 96.0078C137.645 97.6016 137.105 98.9023 136.027 99.9102C134.949 100.895 133.566 101.387 131.879 101.387C130.215 101.387 128.844 100.895 127.766 99.9102C126.688 98.9023 126.148 97.6016 126.148 96.0078ZM147.102 96.0078C147.102 94.3906 147.641 93.0781 148.719 92.0703C149.82 91.0625 151.191 90.5586 152.832 90.5586C154.496 90.5586 155.867 91.0625 156.945 92.0703C158.047 93.0781 158.598 94.3906 158.598 96.0078C158.598 97.6016 158.059 98.9023 156.98 99.9102C155.902 100.895 154.52 101.387 152.832 101.387C151.168 101.387 149.797 100.895 148.719 99.9102C147.641 98.9023 147.102 97.6016 147.102 96.0078ZM168.055 96.0078C168.055 94.3906 168.594 93.0781 169.672 92.0703C170.773 91.0625 172.145 90.5586 173.785 90.5586C175.449 90.5586 176.82 91.0625 177.898 92.0703C179 93.0781 179.551 94.3906 179.551 96.0078C179.551 97.6016 179.012 98.9023 177.934 99.9102C176.855 100.895 175.473 101.387 173.785 101.387C172.121 101.387 170.75 100.895 169.672 99.9102C168.594 98.9023 168.055 97.6016 168.055 96.0078ZM189.008 96.0078C189.008 94.3906 189.547 93.0781 190.625 92.0703C191.727 91.0625 193.098 90.5586 194.738 90.5586C196.402 90.5586 197.773 91.0625 198.852 92.0703C199.953 93.0781 200.504 94.3906 200.504 96.0078C200.504 97.6016 199.965 98.9023 198.887 99.9102C197.809 100.895 196.426 101.387 194.738 101.387C193.074 101.387 191.703 100.895 190.625 99.9102C189.547 98.9023 189.008 97.6016 189.008 96.0078ZM209.961 96.0078C209.961 94.3906 210.5 93.0781 211.578 92.0703C212.68 91.0625 214.051 90.5586 215.691 90.5586C217.355 90.5586 218.727 91.0625 219.805 92.0703C220.906 93.0781 221.457 94.3906 221.457 96.0078C221.457 97.6016 220.918 98.9023 219.84 99.9102C218.762 100.895 217.379 101.387 215.691 101.387C214.027 101.387 212.656 100.895 211.578 99.9102C210.5 98.9023 209.961 97.6016 209.961 96.0078ZM230.914 96.0078C230.914 94.3906 231.453 93.0781 232.531 92.0703C233.633 91.0625 235.004 90.5586 236.645 90.5586C238.309 90.5586 239.68 91.0625 240.758 92.0703C241.859 93.0781 242.41 94.3906 242.41 96.0078C242.41 97.6016 241.871 98.9023 240.793 99.9102C239.715 100.895 238.332 101.387 236.645 101.387C234.98 101.387 233.609 100.895 232.531 99.9102C231.453 98.9023 230.914 97.6016 230.914 96.0078ZM251.867 96.0078C251.867 94.3906 252.406 93.0781 253.484 92.0703C254.586 91.0625 255.957 90.5586 257.598 90.5586C259.262 90.5586 260.633 91.0625 261.711 92.0703C262.812 93.0781 263.363 94.3906 263.363 96.0078C263.363 97.6016 262.824 98.9023 261.746 99.9102C260.668 100.895 259.285 101.387 257.598 101.387C255.934 101.387 254.562 100.895 253.484 99.9102C252.406 98.9023 251.867 97.6016 251.867 96.0078ZM272.82 96.0078C272.82 94.3906 273.359 93.0781 274.438 92.0703C275.539 91.0625 276.91 90.5586 278.551 90.5586C280.215 90.5586 281.586 91.0625 282.664 92.0703C283.766 93.0781 284.316 94.3906 284.316 96.0078C284.316 97.6016 283.777 98.9023 282.699 99.9102C281.621 100.895 280.238 101.387 278.551 101.387C276.887 101.387 275.516 100.895 274.438 99.9102C273.359 98.9023 272.82 97.6016 272.82 96.0078ZM0.429688 126.008C0.429688 124.391 0.96875 123.078 2.04688 122.07C3.14844 121.062 4.51953 120.559 6.16016 120.559C7.82422 120.559 9.19531 121.062 10.2734 122.07C11.375 123.078 11.9258 124.391 11.9258 126.008C11.9258 127.602 11.3867 128.902 10.3086 129.91C9.23047 130.895 7.84766 131.387 6.16016 131.387C4.49609 131.387 3.125 130.895 2.04688 129.91C0.96875 128.902 0.429688 127.602 0.429688 126.008ZM21.3828 126.008C21.3828 124.391 21.9219 123.078 23 122.07C24.1016 121.062 25.4727 120.559 27.1133 120.559C28.7773 120.559 30.1484 121.062 31.2266 122.07C32.3281 123.078 32.8789 124.391 32.8789 126.008C32.8789 127.602 32.3398 128.902 31.2617 129.91C30.1836 130.895 28.8008 131.387 27.1133 131.387C25.4492 131.387 24.0781 130.895 23 129.91C21.9219 128.902 21.3828 127.602 21.3828 126.008ZM42.3359 126.008C42.3359 124.391 42.875 123.078 43.9531 122.07C45.0547 121.062 46.4258 120.559 48.0664 120.559C49.7305 120.559 51.1016 121.062 52.1797 122.07C53.2812 123.078 53.832 124.391 53.832 126.008C53.832 127.602 53.293 128.902 52.2148 129.91C51.1367 130.895 49.7539 131.387 48.0664 131.387C46.4023 131.387 45.0312 130.895 43.9531 129.91C42.875 128.902 42.3359 127.602 42.3359 126.008ZM63.2891 126.008C63.2891 124.391 63.8281 123.078 64.9062 122.07C66.0078 121.062 67.3789 120.559 69.0195 120.559C70.6836 120.559 72.0547 121.062 73.1328 122.07C74.2344 123.078 74.7852 124.391 74.7852 126.008C74.7852 127.602 74.2461 128.902 73.168 129.91C72.0898 130.895 70.707 131.387 69.0195 131.387C67.3555 131.387 65.9844 130.895 64.9062 129.91C63.8281 128.902 63.2891 127.602 63.2891 126.008ZM84.2422 126.008C84.2422 124.391 84.7812 123.078 85.8594 122.07C86.9609 121.062 88.332 120.559 89.9727 120.559C91.6367 120.559 93.0078 121.062 94.0859 122.07C95.1875 123.078 95.7383 124.391 95.7383 126.008C95.7383 127.602 95.1992 128.902 94.1211 129.91C93.043 130.895 91.6602 131.387 89.9727 131.387C88.3086 131.387 86.9375 130.895 85.8594 129.91C84.7812 128.902 84.2422 127.602 84.2422 126.008ZM105.195 126.008C105.195 124.391 105.734 123.078 106.812 122.07C107.914 121.062 109.285 120.559 110.926 120.559C112.59 120.559 113.961 121.062 115.039 122.07C116.141 123.078 116.691 124.391 116.691 126.008C116.691 127.602 116.152 128.902 115.074 129.91C113.996 130.895 112.613 131.387 110.926 131.387C109.262 131.387 107.891 130.895 106.812 129.91C105.734 128.902 105.195 127.602 105.195 126.008ZM126.148 126.008C126.148 124.391 126.688 123.078 127.766 122.07C128.867 121.062 130.238 120.559 131.879 120.559C133.543 120.559 134.914 121.062 135.992 122.07C137.094 123.078 137.645 124.391 137.645 126.008C137.645 127.602 137.105 128.902 136.027 129.91C134.949 130.895 133.566 131.387 131.879 131.387C130.215 131.387 128.844 130.895 127.766 129.91C126.688 128.902 126.148 127.602 126.148 126.008ZM147.102 126.008C147.102 124.391 147.641 123.078 148.719 122.07C149.82 121.062 151.191 120.559 152.832 120.559C154.496 120.559 155.867 121.062 156.945 122.07C158.047 123.078 158.598 124.391 158.598 126.008C158.598 127.602 158.059 128.902 156.98 129.91C155.902 130.895 154.52 131.387 152.832 131.387C151.168 131.387 149.797 130.895 148.719 129.91C147.641 128.902 147.102 127.602 147.102 126.008ZM168.055 126.008C168.055 124.391 168.594 123.078 169.672 122.07C170.773 121.062 172.145 120.559 173.785 120.559C175.449 120.559 176.82 121.062 177.898 122.07C179 123.078 179.551 124.391 179.551 126.008C179.551 127.602 179.012 128.902 177.934 129.91C176.855 130.895 175.473 131.387 173.785 131.387C172.121 131.387 170.75 130.895 169.672 129.91C168.594 128.902 168.055 127.602 168.055 126.008ZM189.008 126.008C189.008 124.391 189.547 123.078 190.625 122.07C191.727 121.062 193.098 120.559 194.738 120.559C196.402 120.559 197.773 121.062 198.852 122.07C199.953 123.078 200.504 124.391 200.504 126.008C200.504 127.602 199.965 128.902 198.887 129.91C197.809 130.895 196.426 131.387 194.738 131.387C193.074 131.387 191.703 130.895 190.625 129.91C189.547 128.902 189.008 127.602 189.008 126.008ZM209.961 126.008C209.961 124.391 210.5 123.078 211.578 122.07C212.68 121.062 214.051 120.559 215.691 120.559C217.355 120.559 218.727 121.062 219.805 122.07C220.906 123.078 221.457 124.391 221.457 126.008C221.457 127.602 220.918 128.902 219.84 129.91C218.762 130.895 217.379 131.387 215.691 131.387C214.027 131.387 212.656 130.895 211.578 129.91C210.5 128.902 209.961 127.602 209.961 126.008ZM230.914 126.008C230.914 124.391 231.453 123.078 232.531 122.07C233.633 121.062 235.004 120.559 236.645 120.559C238.309 120.559 239.68 121.062 240.758 122.07C241.859 123.078 242.41 124.391 242.41 126.008C242.41 127.602 241.871 128.902 240.793 129.91C239.715 130.895 238.332 131.387 236.645 131.387C234.98 131.387 233.609 130.895 232.531 129.91C231.453 128.902 230.914 127.602 230.914 126.008ZM251.867 126.008C251.867 124.391 252.406 123.078 253.484 122.07C254.586 121.062 255.957 120.559 257.598 120.559C259.262 120.559 260.633 121.062 261.711 122.07C262.812 123.078 263.363 124.391 263.363 126.008C263.363 127.602 262.824 128.902 261.746 129.91C260.668 130.895 259.285 131.387 257.598 131.387C255.934 131.387 254.562 130.895 253.484 129.91C252.406 128.902 251.867 127.602 251.867 126.008ZM272.82 126.008C272.82 124.391 273.359 123.078 274.438 122.07C275.539 121.062 276.91 120.559 278.551 120.559C280.215 120.559 281.586 121.062 282.664 122.07C283.766 123.078 284.316 124.391 284.316 126.008C284.316 127.602 283.777 128.902 282.699 129.91C281.621 130.895 280.238 131.387 278.551 131.387C276.887 131.387 275.516 130.895 274.438 129.91C273.359 128.902 272.82 127.602 272.82 126.008ZM0.429688 156.008C0.429688 154.391 0.96875 153.078 2.04688 152.07C3.14844 151.062 4.51953 150.559 6.16016 150.559C7.82422 150.559 9.19531 151.062 10.2734 152.07C11.375 153.078 11.9258 154.391 11.9258 156.008C11.9258 157.602 11.3867 158.902 10.3086 159.91C9.23047 160.895 7.84766 161.387 6.16016 161.387C4.49609 161.387 3.125 160.895 2.04688 159.91C0.96875 158.902 0.429688 157.602 0.429688 156.008ZM21.3828 156.008C21.3828 154.391 21.9219 153.078 23 152.07C24.1016 151.062 25.4727 150.559 27.1133 150.559C28.7773 150.559 30.1484 151.062 31.2266 152.07C32.3281 153.078 32.8789 154.391 32.8789 156.008C32.8789 157.602 32.3398 158.902 31.2617 159.91C30.1836 160.895 28.8008 161.387 27.1133 161.387C25.4492 161.387 24.0781 160.895 23 159.91C21.9219 158.902 21.3828 157.602 21.3828 156.008ZM42.3359 156.008C42.3359 154.391 42.875 153.078 43.9531 152.07C45.0547 151.062 46.4258 150.559 48.0664 150.559C49.7305 150.559 51.1016 151.062 52.1797 152.07C53.2812 153.078 53.832 154.391 53.832 156.008C53.832 157.602 53.293 158.902 52.2148 159.91C51.1367 160.895 49.7539 161.387 48.0664 161.387C46.4023 161.387 45.0312 160.895 43.9531 159.91C42.875 158.902 42.3359 157.602 42.3359 156.008ZM63.2891 156.008C63.2891 154.391 63.8281 153.078 64.9062 152.07C66.0078 151.062 67.3789 150.559 69.0195 150.559C70.6836 150.559 72.0547 151.062 73.1328 152.07C74.2344 153.078 74.7852 154.391 74.7852 156.008C74.7852 157.602 74.2461 158.902 73.168 159.91C72.0898 160.895 70.707 161.387 69.0195 161.387C67.3555 161.387 65.9844 160.895 64.9062 159.91C63.8281 158.902 63.2891 157.602 63.2891 156.008ZM84.2422 156.008C84.2422 154.391 84.7812 153.078 85.8594 152.07C86.9609 151.062 88.332 150.559 89.9727 150.559C91.6367 150.559 93.0078 151.062 94.0859 152.07C95.1875 153.078 95.7383 154.391 95.7383 156.008C95.7383 157.602 95.1992 158.902 94.1211 159.91C93.043 160.895 91.6602 161.387 89.9727 161.387C88.3086 161.387 86.9375 160.895 85.8594 159.91C84.7812 158.902 84.2422 157.602 84.2422 156.008ZM105.195 156.008C105.195 154.391 105.734 153.078 106.812 152.07C107.914 151.062 109.285 150.559 110.926 150.559C112.59 150.559 113.961 151.062 115.039 152.07C116.141 153.078 116.691 154.391 116.691 156.008C116.691 157.602 116.152 158.902 115.074 159.91C113.996 160.895 112.613 161.387 110.926 161.387C109.262 161.387 107.891 160.895 106.812 159.91C105.734 158.902 105.195 157.602 105.195 156.008ZM126.148 156.008C126.148 154.391 126.688 153.078 127.766 152.07C128.867 151.062 130.238 150.559 131.879 150.559C133.543 150.559 134.914 151.062 135.992 152.07C137.094 153.078 137.645 154.391 137.645 156.008C137.645 157.602 137.105 158.902 136.027 159.91C134.949 160.895 133.566 161.387 131.879 161.387C130.215 161.387 128.844 160.895 127.766 159.91C126.688 158.902 126.148 157.602 126.148 156.008ZM147.102 156.008C147.102 154.391 147.641 153.078 148.719 152.07C149.82 151.062 151.191 150.559 152.832 150.559C154.496 150.559 155.867 151.062 156.945 152.07C158.047 153.078 158.598 154.391 158.598 156.008C158.598 157.602 158.059 158.902 156.98 159.91C155.902 160.895 154.52 161.387 152.832 161.387C151.168 161.387 149.797 160.895 148.719 159.91C147.641 158.902 147.102 157.602 147.102 156.008ZM168.055 156.008C168.055 154.391 168.594 153.078 169.672 152.07C170.773 151.062 172.145 150.559 173.785 150.559C175.449 150.559 176.82 151.062 177.898 152.07C179 153.078 179.551 154.391 179.551 156.008C179.551 157.602 179.012 158.902 177.934 159.91C176.855 160.895 175.473 161.387 173.785 161.387C172.121 161.387 170.75 160.895 169.672 159.91C168.594 158.902 168.055 157.602 168.055 156.008ZM189.008 156.008C189.008 154.391 189.547 153.078 190.625 152.07C191.727 151.062 193.098 150.559 194.738 150.559C196.402 150.559 197.773 151.062 198.852 152.07C199.953 153.078 200.504 154.391 200.504 156.008C200.504 157.602 199.965 158.902 198.887 159.91C197.809 160.895 196.426 161.387 194.738 161.387C193.074 161.387 191.703 160.895 190.625 159.91C189.547 158.902 189.008 157.602 189.008 156.008ZM209.961 156.008C209.961 154.391 210.5 153.078 211.578 152.07C212.68 151.062 214.051 150.559 215.691 150.559C217.355 150.559 218.727 151.062 219.805 152.07C220.906 153.078 221.457 154.391 221.457 156.008C221.457 157.602 220.918 158.902 219.84 159.91C218.762 160.895 217.379 161.387 215.691 161.387C214.027 161.387 212.656 160.895 211.578 159.91C210.5 158.902 209.961 157.602 209.961 156.008ZM230.914 156.008C230.914 154.391 231.453 153.078 232.531 152.07C233.633 151.062 235.004 150.559 236.645 150.559C238.309 150.559 239.68 151.062 240.758 152.07C241.859 153.078 242.41 154.391 242.41 156.008C242.41 157.602 241.871 158.902 240.793 159.91C239.715 160.895 238.332 161.387 236.645 161.387C234.98 161.387 233.609 160.895 232.531 159.91C231.453 158.902 230.914 157.602 230.914 156.008ZM251.867 156.008C251.867 154.391 252.406 153.078 253.484 152.07C254.586 151.062 255.957 150.559 257.598 150.559C259.262 150.559 260.633 151.062 261.711 152.07C262.812 153.078 263.363 154.391 263.363 156.008C263.363 157.602 262.824 158.902 261.746 159.91C260.668 160.895 259.285 161.387 257.598 161.387C255.934 161.387 254.562 160.895 253.484 159.91C252.406 158.902 251.867 157.602 251.867 156.008ZM272.82 156.008C272.82 154.391 273.359 153.078 274.438 152.07C275.539 151.062 276.91 150.559 278.551 150.559C280.215 150.559 281.586 151.062 282.664 152.07C283.766 153.078 284.316 154.391 284.316 156.008C284.316 157.602 283.777 158.902 282.699 159.91C281.621 160.895 280.238 161.387 278.551 161.387C276.887 161.387 275.516 160.895 274.438 159.91C273.359 158.902 272.82 157.602 272.82 156.008ZM0.429688 186.008C0.429688 184.391 0.96875 183.078 2.04688 182.07C3.14844 181.062 4.51953 180.559 6.16016 180.559C7.82422 180.559 9.19531 181.062 10.2734 182.07C11.375 183.078 11.9258 184.391 11.9258 186.008C11.9258 187.602 11.3867 188.902 10.3086 189.91C9.23047 190.895 7.84766 191.387 6.16016 191.387C4.49609 191.387 3.125 190.895 2.04688 189.91C0.96875 188.902 0.429688 187.602 0.429688 186.008ZM21.3828 186.008C21.3828 184.391 21.9219 183.078 23 182.07C24.1016 181.062 25.4727 180.559 27.1133 180.559C28.7773 180.559 30.1484 181.062 31.2266 182.07C32.3281 183.078 32.8789 184.391 32.8789 186.008C32.8789 187.602 32.3398 188.902 31.2617 189.91C30.1836 190.895 28.8008 191.387 27.1133 191.387C25.4492 191.387 24.0781 190.895 23 189.91C21.9219 188.902 21.3828 187.602 21.3828 186.008ZM42.3359 186.008C42.3359 184.391 42.875 183.078 43.9531 182.07C45.0547 181.062 46.4258 180.559 48.0664 180.559C49.7305 180.559 51.1016 181.062 52.1797 182.07C53.2812 183.078 53.832 184.391 53.832 186.008C53.832 187.602 53.293 188.902 52.2148 189.91C51.1367 190.895 49.7539 191.387 48.0664 191.387C46.4023 191.387 45.0312 190.895 43.9531 189.91C42.875 188.902 42.3359 187.602 42.3359 186.008ZM63.2891 186.008C63.2891 184.391 63.8281 183.078 64.9062 182.07C66.0078 181.062 67.3789 180.559 69.0195 180.559C70.6836 180.559 72.0547 181.062 73.1328 182.07C74.2344 183.078 74.7852 184.391 74.7852 186.008C74.7852 187.602 74.2461 188.902 73.168 189.91C72.0898 190.895 70.707 191.387 69.0195 191.387C67.3555 191.387 65.9844 190.895 64.9062 189.91C63.8281 188.902 63.2891 187.602 63.2891 186.008ZM84.2422 186.008C84.2422 184.391 84.7812 183.078 85.8594 182.07C86.9609 181.062 88.332 180.559 89.9727 180.559C91.6367 180.559 93.0078 181.062 94.0859 182.07C95.1875 183.078 95.7383 184.391 95.7383 186.008C95.7383 187.602 95.1992 188.902 94.1211 189.91C93.043 190.895 91.6602 191.387 89.9727 191.387C88.3086 191.387 86.9375 190.895 85.8594 189.91C84.7812 188.902 84.2422 187.602 84.2422 186.008ZM105.195 186.008C105.195 184.391 105.734 183.078 106.812 182.07C107.914 181.062 109.285 180.559 110.926 180.559C112.59 180.559 113.961 181.062 115.039 182.07C116.141 183.078 116.691 184.391 116.691 186.008C116.691 187.602 116.152 188.902 115.074 189.91C113.996 190.895 112.613 191.387 110.926 191.387C109.262 191.387 107.891 190.895 106.812 189.91C105.734 188.902 105.195 187.602 105.195 186.008ZM126.148 186.008C126.148 184.391 126.688 183.078 127.766 182.07C128.867 181.062 130.238 180.559 131.879 180.559C133.543 180.559 134.914 181.062 135.992 182.07C137.094 183.078 137.645 184.391 137.645 186.008C137.645 187.602 137.105 188.902 136.027 189.91C134.949 190.895 133.566 191.387 131.879 191.387C130.215 191.387 128.844 190.895 127.766 189.91C126.688 188.902 126.148 187.602 126.148 186.008ZM147.102 186.008C147.102 184.391 147.641 183.078 148.719 182.07C149.82 181.062 151.191 180.559 152.832 180.559C154.496 180.559 155.867 181.062 156.945 182.07C158.047 183.078 158.598 184.391 158.598 186.008C158.598 187.602 158.059 188.902 156.98 189.91C155.902 190.895 154.52 191.387 152.832 191.387C151.168 191.387 149.797 190.895 148.719 189.91C147.641 188.902 147.102 187.602 147.102 186.008ZM168.055 186.008C168.055 184.391 168.594 183.078 169.672 182.07C170.773 181.062 172.145 180.559 173.785 180.559C175.449 180.559 176.82 181.062 177.898 182.07C179 183.078 179.551 184.391 179.551 186.008C179.551 187.602 179.012 188.902 177.934 189.91C176.855 190.895 175.473 191.387 173.785 191.387C172.121 191.387 170.75 190.895 169.672 189.91C168.594 188.902 168.055 187.602 168.055 186.008ZM189.008 186.008C189.008 184.391 189.547 183.078 190.625 182.07C191.727 181.062 193.098 180.559 194.738 180.559C196.402 180.559 197.773 181.062 198.852 182.07C199.953 183.078 200.504 184.391 200.504 186.008C200.504 187.602 199.965 188.902 198.887 189.91C197.809 190.895 196.426 191.387 194.738 191.387C193.074 191.387 191.703 190.895 190.625 189.91C189.547 188.902 189.008 187.602 189.008 186.008ZM209.961 186.008C209.961 184.391 210.5 183.078 211.578 182.07C212.68 181.062 214.051 180.559 215.691 180.559C217.355 180.559 218.727 181.062 219.805 182.07C220.906 183.078 221.457 184.391 221.457 186.008C221.457 187.602 220.918 188.902 219.84 189.91C218.762 190.895 217.379 191.387 215.691 191.387C214.027 191.387 212.656 190.895 211.578 189.91C210.5 188.902 209.961 187.602 209.961 186.008ZM230.914 186.008C230.914 184.391 231.453 183.078 232.531 182.07C233.633 181.062 235.004 180.559 236.645 180.559C238.309 180.559 239.68 181.062 240.758 182.07C241.859 183.078 242.41 184.391 242.41 186.008C242.41 187.602 241.871 188.902 240.793 189.91C239.715 190.895 238.332 191.387 236.645 191.387C234.98 191.387 233.609 190.895 232.531 189.91C231.453 188.902 230.914 187.602 230.914 186.008ZM251.867 186.008C251.867 184.391 252.406 183.078 253.484 182.07C254.586 181.062 255.957 180.559 257.598 180.559C259.262 180.559 260.633 181.062 261.711 182.07C262.812 183.078 263.363 184.391 263.363 186.008C263.363 187.602 262.824 188.902 261.746 189.91C260.668 190.895 259.285 191.387 257.598 191.387C255.934 191.387 254.562 190.895 253.484 189.91C252.406 188.902 251.867 187.602 251.867 186.008ZM272.82 186.008C272.82 184.391 273.359 183.078 274.438 182.07C275.539 181.062 276.91 180.559 278.551 180.559C280.215 180.559 281.586 181.062 282.664 182.07C283.766 183.078 284.316 184.391 284.316 186.008C284.316 187.602 283.777 188.902 282.699 189.91C281.621 190.895 280.238 191.387 278.551 191.387C276.887 191.387 275.516 190.895 274.438 189.91C273.359 188.902 272.82 187.602 272.82 186.008ZM0.429688 216.008C0.429688 214.391 0.96875 213.078 2.04688 212.07C3.14844 211.062 4.51953 210.559 6.16016 210.559C7.82422 210.559 9.19531 211.062 10.2734 212.07C11.375 213.078 11.9258 214.391 11.9258 216.008C11.9258 217.602 11.3867 218.902 10.3086 219.91C9.23047 220.895 7.84766 221.387 6.16016 221.387C4.49609 221.387 3.125 220.895 2.04688 219.91C0.96875 218.902 0.429688 217.602 0.429688 216.008ZM21.3828 216.008C21.3828 214.391 21.9219 213.078 23 212.07C24.1016 211.062 25.4727 210.559 27.1133 210.559C28.7773 210.559 30.1484 211.062 31.2266 212.07C32.3281 213.078 32.8789 214.391 32.8789 216.008C32.8789 217.602 32.3398 218.902 31.2617 219.91C30.1836 220.895 28.8008 221.387 27.1133 221.387C25.4492 221.387 24.0781 220.895 23 219.91C21.9219 218.902 21.3828 217.602 21.3828 216.008ZM42.3359 216.008C42.3359 214.391 42.875 213.078 43.9531 212.07C45.0547 211.062 46.4258 210.559 48.0664 210.559C49.7305 210.559 51.1016 211.062 52.1797 212.07C53.2812 213.078 53.832 214.391 53.832 216.008C53.832 217.602 53.293 218.902 52.2148 219.91C51.1367 220.895 49.7539 221.387 48.0664 221.387C46.4023 221.387 45.0312 220.895 43.9531 219.91C42.875 218.902 42.3359 217.602 42.3359 216.008ZM63.2891 216.008C63.2891 214.391 63.8281 213.078 64.9062 212.07C66.0078 211.062 67.3789 210.559 69.0195 210.559C70.6836 210.559 72.0547 211.062 73.1328 212.07C74.2344 213.078 74.7852 214.391 74.7852 216.008C74.7852 217.602 74.2461 218.902 73.168 219.91C72.0898 220.895 70.707 221.387 69.0195 221.387C67.3555 221.387 65.9844 220.895 64.9062 219.91C63.8281 218.902 63.2891 217.602 63.2891 216.008ZM84.2422 216.008C84.2422 214.391 84.7812 213.078 85.8594 212.07C86.9609 211.062 88.332 210.559 89.9727 210.559C91.6367 210.559 93.0078 211.062 94.0859 212.07C95.1875 213.078 95.7383 214.391 95.7383 216.008C95.7383 217.602 95.1992 218.902 94.1211 219.91C93.043 220.895 91.6602 221.387 89.9727 221.387C88.3086 221.387 86.9375 220.895 85.8594 219.91C84.7812 218.902 84.2422 217.602 84.2422 216.008ZM105.195 216.008C105.195 214.391 105.734 213.078 106.812 212.07C107.914 211.062 109.285 210.559 110.926 210.559C112.59 210.559 113.961 211.062 115.039 212.07C116.141 213.078 116.691 214.391 116.691 216.008C116.691 217.602 116.152 218.902 115.074 219.91C113.996 220.895 112.613 221.387 110.926 221.387C109.262 221.387 107.891 220.895 106.812 219.91C105.734 218.902 105.195 217.602 105.195 216.008ZM126.148 216.008C126.148 214.391 126.688 213.078 127.766 212.07C128.867 211.062 130.238 210.559 131.879 210.559C133.543 210.559 134.914 211.062 135.992 212.07C137.094 213.078 137.645 214.391 137.645 216.008C137.645 217.602 137.105 218.902 136.027 219.91C134.949 220.895 133.566 221.387 131.879 221.387C130.215 221.387 128.844 220.895 127.766 219.91C126.688 218.902 126.148 217.602 126.148 216.008ZM147.102 216.008C147.102 214.391 147.641 213.078 148.719 212.07C149.82 211.062 151.191 210.559 152.832 210.559C154.496 210.559 155.867 211.062 156.945 212.07C158.047 213.078 158.598 214.391 158.598 216.008C158.598 217.602 158.059 218.902 156.98 219.91C155.902 220.895 154.52 221.387 152.832 221.387C151.168 221.387 149.797 220.895 148.719 219.91C147.641 218.902 147.102 217.602 147.102 216.008ZM168.055 216.008C168.055 214.391 168.594 213.078 169.672 212.07C170.773 211.062 172.145 210.559 173.785 210.559C175.449 210.559 176.82 211.062 177.898 212.07C179 213.078 179.551 214.391 179.551 216.008C179.551 217.602 179.012 218.902 177.934 219.91C176.855 220.895 175.473 221.387 173.785 221.387C172.121 221.387 170.75 220.895 169.672 219.91C168.594 218.902 168.055 217.602 168.055 216.008ZM189.008 216.008C189.008 214.391 189.547 213.078 190.625 212.07C191.727 211.062 193.098 210.559 194.738 210.559C196.402 210.559 197.773 211.062 198.852 212.07C199.953 213.078 200.504 214.391 200.504 216.008C200.504 217.602 199.965 218.902 198.887 219.91C197.809 220.895 196.426 221.387 194.738 221.387C193.074 221.387 191.703 220.895 190.625 219.91C189.547 218.902 189.008 217.602 189.008 216.008ZM209.961 216.008C209.961 214.391 210.5 213.078 211.578 212.07C212.68 211.062 214.051 210.559 215.691 210.559C217.355 210.559 218.727 211.062 219.805 212.07C220.906 213.078 221.457 214.391 221.457 216.008C221.457 217.602 220.918 218.902 219.84 219.91C218.762 220.895 217.379 221.387 215.691 221.387C214.027 221.387 212.656 220.895 211.578 219.91C210.5 218.902 209.961 217.602 209.961 216.008ZM230.914 216.008C230.914 214.391 231.453 213.078 232.531 212.07C233.633 211.062 235.004 210.559 236.645 210.559C238.309 210.559 239.68 211.062 240.758 212.07C241.859 213.078 242.41 214.391 242.41 216.008C242.41 217.602 241.871 218.902 240.793 219.91C239.715 220.895 238.332 221.387 236.645 221.387C234.98 221.387 233.609 220.895 232.531 219.91C231.453 218.902 230.914 217.602 230.914 216.008ZM251.867 216.008C251.867 214.391 252.406 213.078 253.484 212.07C254.586 211.062 255.957 210.559 257.598 210.559C259.262 210.559 260.633 211.062 261.711 212.07C262.812 213.078 263.363 214.391 263.363 216.008C263.363 217.602 262.824 218.902 261.746 219.91C260.668 220.895 259.285 221.387 257.598 221.387C255.934 221.387 254.562 220.895 253.484 219.91C252.406 218.902 251.867 217.602 251.867 216.008ZM272.82 216.008C272.82 214.391 273.359 213.078 274.438 212.07C275.539 211.062 276.91 210.559 278.551 210.559C280.215 210.559 281.586 211.062 282.664 212.07C283.766 213.078 284.316 214.391 284.316 216.008C284.316 217.602 283.777 218.902 282.699 219.91C281.621 220.895 280.238 221.387 278.551 221.387C276.887 221.387 275.516 220.895 274.438 219.91C273.359 218.902 272.82 217.602 272.82 216.008ZM0.429688 246.008C0.429688 244.391 0.96875 243.078 2.04688 242.07C3.14844 241.062 4.51953 240.559 6.16016 240.559C7.82422 240.559 9.19531 241.062 10.2734 242.07C11.375 243.078 11.9258 244.391 11.9258 246.008C11.9258 247.602 11.3867 248.902 10.3086 249.91C9.23047 250.895 7.84766 251.387 6.16016 251.387C4.49609 251.387 3.125 250.895 2.04688 249.91C0.96875 248.902 0.429688 247.602 0.429688 246.008ZM21.3828 246.008C21.3828 244.391 21.9219 243.078 23 242.07C24.1016 241.062 25.4727 240.559 27.1133 240.559C28.7773 240.559 30.1484 241.062 31.2266 242.07C32.3281 243.078 32.8789 244.391 32.8789 246.008C32.8789 247.602 32.3398 248.902 31.2617 249.91C30.1836 250.895 28.8008 251.387 27.1133 251.387C25.4492 251.387 24.0781 250.895 23 249.91C21.9219 248.902 21.3828 247.602 21.3828 246.008ZM42.3359 246.008C42.3359 244.391 42.875 243.078 43.9531 242.07C45.0547 241.062 46.4258 240.559 48.0664 240.559C49.7305 240.559 51.1016 241.062 52.1797 242.07C53.2812 243.078 53.832 244.391 53.832 246.008C53.832 247.602 53.293 248.902 52.2148 249.91C51.1367 250.895 49.7539 251.387 48.0664 251.387C46.4023 251.387 45.0312 250.895 43.9531 249.91C42.875 248.902 42.3359 247.602 42.3359 246.008ZM63.2891 246.008C63.2891 244.391 63.8281 243.078 64.9062 242.07C66.0078 241.062 67.3789 240.559 69.0195 240.559C70.6836 240.559 72.0547 241.062 73.1328 242.07C74.2344 243.078 74.7852 244.391 74.7852 246.008C74.7852 247.602 74.2461 248.902 73.168 249.91C72.0898 250.895 70.707 251.387 69.0195 251.387C67.3555 251.387 65.9844 250.895 64.9062 249.91C63.8281 248.902 63.2891 247.602 63.2891 246.008ZM84.2422 246.008C84.2422 244.391 84.7812 243.078 85.8594 242.07C86.9609 241.062 88.332 240.559 89.9727 240.559C91.6367 240.559 93.0078 241.062 94.0859 242.07C95.1875 243.078 95.7383 244.391 95.7383 246.008C95.7383 247.602 95.1992 248.902 94.1211 249.91C93.043 250.895 91.6602 251.387 89.9727 251.387C88.3086 251.387 86.9375 250.895 85.8594 249.91C84.7812 248.902 84.2422 247.602 84.2422 246.008ZM105.195 246.008C105.195 244.391 105.734 243.078 106.812 242.07C107.914 241.062 109.285 240.559 110.926 240.559C112.59 240.559 113.961 241.062 115.039 242.07C116.141 243.078 116.691 244.391 116.691 246.008C116.691 247.602 116.152 248.902 115.074 249.91C113.996 250.895 112.613 251.387 110.926 251.387C109.262 251.387 107.891 250.895 106.812 249.91C105.734 248.902 105.195 247.602 105.195 246.008ZM126.148 246.008C126.148 244.391 126.688 243.078 127.766 242.07C128.867 241.062 130.238 240.559 131.879 240.559C133.543 240.559 134.914 241.062 135.992 242.07C137.094 243.078 137.645 244.391 137.645 246.008C137.645 247.602 137.105 248.902 136.027 249.91C134.949 250.895 133.566 251.387 131.879 251.387C130.215 251.387 128.844 250.895 127.766 249.91C126.688 248.902 126.148 247.602 126.148 246.008ZM147.102 246.008C147.102 244.391 147.641 243.078 148.719 242.07C149.82 241.062 151.191 240.559 152.832 240.559C154.496 240.559 155.867 241.062 156.945 242.07C158.047 243.078 158.598 244.391 158.598 246.008C158.598 247.602 158.059 248.902 156.98 249.91C155.902 250.895 154.52 251.387 152.832 251.387C151.168 251.387 149.797 250.895 148.719 249.91C147.641 248.902 147.102 247.602 147.102 246.008ZM168.055 246.008C168.055 244.391 168.594 243.078 169.672 242.07C170.773 241.062 172.145 240.559 173.785 240.559C175.449 240.559 176.82 241.062 177.898 242.07C179 243.078 179.551 244.391 179.551 246.008C179.551 247.602 179.012 248.902 177.934 249.91C176.855 250.895 175.473 251.387 173.785 251.387C172.121 251.387 170.75 250.895 169.672 249.91C168.594 248.902 168.055 247.602 168.055 246.008ZM189.008 246.008C189.008 244.391 189.547 243.078 190.625 242.07C191.727 241.062 193.098 240.559 194.738 240.559C196.402 240.559 197.773 241.062 198.852 242.07C199.953 243.078 200.504 244.391 200.504 246.008C200.504 247.602 199.965 248.902 198.887 249.91C197.809 250.895 196.426 251.387 194.738 251.387C193.074 251.387 191.703 250.895 190.625 249.91C189.547 248.902 189.008 247.602 189.008 246.008ZM209.961 246.008C209.961 244.391 210.5 243.078 211.578 242.07C212.68 241.062 214.051 240.559 215.691 240.559C217.355 240.559 218.727 241.062 219.805 242.07C220.906 243.078 221.457 244.391 221.457 246.008C221.457 247.602 220.918 248.902 219.84 249.91C218.762 250.895 217.379 251.387 215.691 251.387C214.027 251.387 212.656 250.895 211.578 249.91C210.5 248.902 209.961 247.602 209.961 246.008ZM230.914 246.008C230.914 244.391 231.453 243.078 232.531 242.07C233.633 241.062 235.004 240.559 236.645 240.559C238.309 240.559 239.68 241.062 240.758 242.07C241.859 243.078 242.41 244.391 242.41 246.008C242.41 247.602 241.871 248.902 240.793 249.91C239.715 250.895 238.332 251.387 236.645 251.387C234.98 251.387 233.609 250.895 232.531 249.91C231.453 248.902 230.914 247.602 230.914 246.008ZM251.867 246.008C251.867 244.391 252.406 243.078 253.484 242.07C254.586 241.062 255.957 240.559 257.598 240.559C259.262 240.559 260.633 241.062 261.711 242.07C262.812 243.078 263.363 244.391 263.363 246.008C263.363 247.602 262.824 248.902 261.746 249.91C260.668 250.895 259.285 251.387 257.598 251.387C255.934 251.387 254.562 250.895 253.484 249.91C252.406 248.902 251.867 247.602 251.867 246.008ZM272.82 246.008C272.82 244.391 273.359 243.078 274.438 242.07C275.539 241.062 276.91 240.559 278.551 240.559C280.215 240.559 281.586 241.062 282.664 242.07C283.766 243.078 284.316 244.391 284.316 246.008C284.316 247.602 283.777 248.902 282.699 249.91C281.621 250.895 280.238 251.387 278.551 251.387C276.887 251.387 275.516 250.895 274.438 249.91C273.359 248.902 272.82 247.602 272.82 246.008ZM0.429688 276.008C0.429688 274.391 0.96875 273.078 2.04688 272.07C3.14844 271.062 4.51953 270.559 6.16016 270.559C7.82422 270.559 9.19531 271.062 10.2734 272.07C11.375 273.078 11.9258 274.391 11.9258 276.008C11.9258 277.602 11.3867 278.902 10.3086 279.91C9.23047 280.895 7.84766 281.387 6.16016 281.387C4.49609 281.387 3.125 280.895 2.04688 279.91C0.96875 278.902 0.429688 277.602 0.429688 276.008ZM21.3828 276.008C21.3828 274.391 21.9219 273.078 23 272.07C24.1016 271.062 25.4727 270.559 27.1133 270.559C28.7773 270.559 30.1484 271.062 31.2266 272.07C32.3281 273.078 32.8789 274.391 32.8789 276.008C32.8789 277.602 32.3398 278.902 31.2617 279.91C30.1836 280.895 28.8008 281.387 27.1133 281.387C25.4492 281.387 24.0781 280.895 23 279.91C21.9219 278.902 21.3828 277.602 21.3828 276.008ZM42.3359 276.008C42.3359 274.391 42.875 273.078 43.9531 272.07C45.0547 271.062 46.4258 270.559 48.0664 270.559C49.7305 270.559 51.1016 271.062 52.1797 272.07C53.2812 273.078 53.832 274.391 53.832 276.008C53.832 277.602 53.293 278.902 52.2148 279.91C51.1367 280.895 49.7539 281.387 48.0664 281.387C46.4023 281.387 45.0312 280.895 43.9531 279.91C42.875 278.902 42.3359 277.602 42.3359 276.008ZM63.2891 276.008C63.2891 274.391 63.8281 273.078 64.9062 272.07C66.0078 271.062 67.3789 270.559 69.0195 270.559C70.6836 270.559 72.0547 271.062 73.1328 272.07C74.2344 273.078 74.7852 274.391 74.7852 276.008C74.7852 277.602 74.2461 278.902 73.168 279.91C72.0898 280.895 70.707 281.387 69.0195 281.387C67.3555 281.387 65.9844 280.895 64.9062 279.91C63.8281 278.902 63.2891 277.602 63.2891 276.008ZM84.2422 276.008C84.2422 274.391 84.7812 273.078 85.8594 272.07C86.9609 271.062 88.332 270.559 89.9727 270.559C91.6367 270.559 93.0078 271.062 94.0859 272.07C95.1875 273.078 95.7383 274.391 95.7383 276.008C95.7383 277.602 95.1992 278.902 94.1211 279.91C93.043 280.895 91.6602 281.387 89.9727 281.387C88.3086 281.387 86.9375 280.895 85.8594 279.91C84.7812 278.902 84.2422 277.602 84.2422 276.008ZM105.195 276.008C105.195 274.391 105.734 273.078 106.812 272.07C107.914 271.062 109.285 270.559 110.926 270.559C112.59 270.559 113.961 271.062 115.039 272.07C116.141 273.078 116.691 274.391 116.691 276.008C116.691 277.602 116.152 278.902 115.074 279.91C113.996 280.895 112.613 281.387 110.926 281.387C109.262 281.387 107.891 280.895 106.812 279.91C105.734 278.902 105.195 277.602 105.195 276.008ZM126.148 276.008C126.148 274.391 126.688 273.078 127.766 272.07C128.867 271.062 130.238 270.559 131.879 270.559C133.543 270.559 134.914 271.062 135.992 272.07C137.094 273.078 137.645 274.391 137.645 276.008C137.645 277.602 137.105 278.902 136.027 279.91C134.949 280.895 133.566 281.387 131.879 281.387C130.215 281.387 128.844 280.895 127.766 279.91C126.688 278.902 126.148 277.602 126.148 276.008ZM147.102 276.008C147.102 274.391 147.641 273.078 148.719 272.07C149.82 271.062 151.191 270.559 152.832 270.559C154.496 270.559 155.867 271.062 156.945 272.07C158.047 273.078 158.598 274.391 158.598 276.008C158.598 277.602 158.059 278.902 156.98 279.91C155.902 280.895 154.52 281.387 152.832 281.387C151.168 281.387 149.797 280.895 148.719 279.91C147.641 278.902 147.102 277.602 147.102 276.008ZM168.055 276.008C168.055 274.391 168.594 273.078 169.672 272.07C170.773 271.062 172.145 270.559 173.785 270.559C175.449 270.559 176.82 271.062 177.898 272.07C179 273.078 179.551 274.391 179.551 276.008C179.551 277.602 179.012 278.902 177.934 279.91C176.855 280.895 175.473 281.387 173.785 281.387C172.121 281.387 170.75 280.895 169.672 279.91C168.594 278.902 168.055 277.602 168.055 276.008ZM189.008 276.008C189.008 274.391 189.547 273.078 190.625 272.07C191.727 271.062 193.098 270.559 194.738 270.559C196.402 270.559 197.773 271.062 198.852 272.07C199.953 273.078 200.504 274.391 200.504 276.008C200.504 277.602 199.965 278.902 198.887 279.91C197.809 280.895 196.426 281.387 194.738 281.387C193.074 281.387 191.703 280.895 190.625 279.91C189.547 278.902 189.008 277.602 189.008 276.008ZM209.961 276.008C209.961 274.391 210.5 273.078 211.578 272.07C212.68 271.062 214.051 270.559 215.691 270.559C217.355 270.559 218.727 271.062 219.805 272.07C220.906 273.078 221.457 274.391 221.457 276.008C221.457 277.602 220.918 278.902 219.84 279.91C218.762 280.895 217.379 281.387 215.691 281.387C214.027 281.387 212.656 280.895 211.578 279.91C210.5 278.902 209.961 277.602 209.961 276.008ZM230.914 276.008C230.914 274.391 231.453 273.078 232.531 272.07C233.633 271.062 235.004 270.559 236.645 270.559C238.309 270.559 239.68 271.062 240.758 272.07C241.859 273.078 242.41 274.391 242.41 276.008C242.41 277.602 241.871 278.902 240.793 279.91C239.715 280.895 238.332 281.387 236.645 281.387C234.98 281.387 233.609 280.895 232.531 279.91C231.453 278.902 230.914 277.602 230.914 276.008ZM251.867 276.008C251.867 274.391 252.406 273.078 253.484 272.07C254.586 271.062 255.957 270.559 257.598 270.559C259.262 270.559 260.633 271.062 261.711 272.07C262.812 273.078 263.363 274.391 263.363 276.008C263.363 277.602 262.824 278.902 261.746 279.91C260.668 280.895 259.285 281.387 257.598 281.387C255.934 281.387 254.562 280.895 253.484 279.91C252.406 278.902 251.867 277.602 251.867 276.008ZM272.82 276.008C272.82 274.391 273.359 273.078 274.438 272.07C275.539 271.062 276.91 270.559 278.551 270.559C280.215 270.559 281.586 271.062 282.664 272.07C283.766 273.078 284.316 274.391 284.316 276.008C284.316 277.602 283.777 278.902 282.699 279.91C281.621 280.895 280.238 281.387 278.551 281.387C276.887 281.387 275.516 280.895 274.438 279.91C273.359 278.902 272.82 277.602 272.82 276.008ZM0.429688 306.008C0.429688 304.391 0.96875 303.078 2.04688 302.07C3.14844 301.062 4.51953 300.559 6.16016 300.559C7.82422 300.559 9.19531 301.062 10.2734 302.07C11.375 303.078 11.9258 304.391 11.9258 306.008C11.9258 307.602 11.3867 308.902 10.3086 309.91C9.23047 310.895 7.84766 311.387 6.16016 311.387C4.49609 311.387 3.125 310.895 2.04688 309.91C0.96875 308.902 0.429688 307.602 0.429688 306.008ZM21.3828 306.008C21.3828 304.391 21.9219 303.078 23 302.07C24.1016 301.062 25.4727 300.559 27.1133 300.559C28.7773 300.559 30.1484 301.062 31.2266 302.07C32.3281 303.078 32.8789 304.391 32.8789 306.008C32.8789 307.602 32.3398 308.902 31.2617 309.91C30.1836 310.895 28.8008 311.387 27.1133 311.387C25.4492 311.387 24.0781 310.895 23 309.91C21.9219 308.902 21.3828 307.602 21.3828 306.008ZM42.3359 306.008C42.3359 304.391 42.875 303.078 43.9531 302.07C45.0547 301.062 46.4258 300.559 48.0664 300.559C49.7305 300.559 51.1016 301.062 52.1797 302.07C53.2812 303.078 53.832 304.391 53.832 306.008C53.832 307.602 53.293 308.902 52.2148 309.91C51.1367 310.895 49.7539 311.387 48.0664 311.387C46.4023 311.387 45.0312 310.895 43.9531 309.91C42.875 308.902 42.3359 307.602 42.3359 306.008ZM63.2891 306.008C63.2891 304.391 63.8281 303.078 64.9062 302.07C66.0078 301.062 67.3789 300.559 69.0195 300.559C70.6836 300.559 72.0547 301.062 73.1328 302.07C74.2344 303.078 74.7852 304.391 74.7852 306.008C74.7852 307.602 74.2461 308.902 73.168 309.91C72.0898 310.895 70.707 311.387 69.0195 311.387C67.3555 311.387 65.9844 310.895 64.9062 309.91C63.8281 308.902 63.2891 307.602 63.2891 306.008ZM84.2422 306.008C84.2422 304.391 84.7812 303.078 85.8594 302.07C86.9609 301.062 88.332 300.559 89.9727 300.559C91.6367 300.559 93.0078 301.062 94.0859 302.07C95.1875 303.078 95.7383 304.391 95.7383 306.008C95.7383 307.602 95.1992 308.902 94.1211 309.91C93.043 310.895 91.6602 311.387 89.9727 311.387C88.3086 311.387 86.9375 310.895 85.8594 309.91C84.7812 308.902 84.2422 307.602 84.2422 306.008ZM105.195 306.008C105.195 304.391 105.734 303.078 106.812 302.07C107.914 301.062 109.285 300.559 110.926 300.559C112.59 300.559 113.961 301.062 115.039 302.07C116.141 303.078 116.691 304.391 116.691 306.008C116.691 307.602 116.152 308.902 115.074 309.91C113.996 310.895 112.613 311.387 110.926 311.387C109.262 311.387 107.891 310.895 106.812 309.91C105.734 308.902 105.195 307.602 105.195 306.008ZM126.148 306.008C126.148 304.391 126.688 303.078 127.766 302.07C128.867 301.062 130.238 300.559 131.879 300.559C133.543 300.559 134.914 301.062 135.992 302.07C137.094 303.078 137.645 304.391 137.645 306.008C137.645 307.602 137.105 308.902 136.027 309.91C134.949 310.895 133.566 311.387 131.879 311.387C130.215 311.387 128.844 310.895 127.766 309.91C126.688 308.902 126.148 307.602 126.148 306.008ZM147.102 306.008C147.102 304.391 147.641 303.078 148.719 302.07C149.82 301.062 151.191 300.559 152.832 300.559C154.496 300.559 155.867 301.062 156.945 302.07C158.047 303.078 158.598 304.391 158.598 306.008C158.598 307.602 158.059 308.902 156.98 309.91C155.902 310.895 154.52 311.387 152.832 311.387C151.168 311.387 149.797 310.895 148.719 309.91C147.641 308.902 147.102 307.602 147.102 306.008ZM168.055 306.008C168.055 304.391 168.594 303.078 169.672 302.07C170.773 301.062 172.145 300.559 173.785 300.559C175.449 300.559 176.82 301.062 177.898 302.07C179 303.078 179.551 304.391 179.551 306.008C179.551 307.602 179.012 308.902 177.934 309.91C176.855 310.895 175.473 311.387 173.785 311.387C172.121 311.387 170.75 310.895 169.672 309.91C168.594 308.902 168.055 307.602 168.055 306.008ZM189.008 306.008C189.008 304.391 189.547 303.078 190.625 302.07C191.727 301.062 193.098 300.559 194.738 300.559C196.402 300.559 197.773 301.062 198.852 302.07C199.953 303.078 200.504 304.391 200.504 306.008C200.504 307.602 199.965 308.902 198.887 309.91C197.809 310.895 196.426 311.387 194.738 311.387C193.074 311.387 191.703 310.895 190.625 309.91C189.547 308.902 189.008 307.602 189.008 306.008ZM209.961 306.008C209.961 304.391 210.5 303.078 211.578 302.07C212.68 301.062 214.051 300.559 215.691 300.559C217.355 300.559 218.727 301.062 219.805 302.07C220.906 303.078 221.457 304.391 221.457 306.008C221.457 307.602 220.918 308.902 219.84 309.91C218.762 310.895 217.379 311.387 215.691 311.387C214.027 311.387 212.656 310.895 211.578 309.91C210.5 308.902 209.961 307.602 209.961 306.008ZM230.914 306.008C230.914 304.391 231.453 303.078 232.531 302.07C233.633 301.062 235.004 300.559 236.645 300.559C238.309 300.559 239.68 301.062 240.758 302.07C241.859 303.078 242.41 304.391 242.41 306.008C242.41 307.602 241.871 308.902 240.793 309.91C239.715 310.895 238.332 311.387 236.645 311.387C234.98 311.387 233.609 310.895 232.531 309.91C231.453 308.902 230.914 307.602 230.914 306.008ZM251.867 306.008C251.867 304.391 252.406 303.078 253.484 302.07C254.586 301.062 255.957 300.559 257.598 300.559C259.262 300.559 260.633 301.062 261.711 302.07C262.812 303.078 263.363 304.391 263.363 306.008C263.363 307.602 262.824 308.902 261.746 309.91C260.668 310.895 259.285 311.387 257.598 311.387C255.934 311.387 254.562 310.895 253.484 309.91C252.406 308.902 251.867 307.602 251.867 306.008ZM272.82 306.008C272.82 304.391 273.359 303.078 274.438 302.07C275.539 301.062 276.91 300.559 278.551 300.559C280.215 300.559 281.586 301.062 282.664 302.07C283.766 303.078 284.316 304.391 284.316 306.008C284.316 307.602 283.777 308.902 282.699 309.91C281.621 310.895 280.238 311.387 278.551 311.387C276.887 311.387 275.516 310.895 274.438 309.91C273.359 308.902 272.82 307.602 272.82 306.008ZM0.429688 336.008C0.429688 334.391 0.96875 333.078 2.04688 332.07C3.14844 331.062 4.51953 330.559 6.16016 330.559C7.82422 330.559 9.19531 331.062 10.2734 332.07C11.375 333.078 11.9258 334.391 11.9258 336.008C11.9258 337.602 11.3867 338.902 10.3086 339.91C9.23047 340.895 7.84766 341.387 6.16016 341.387C4.49609 341.387 3.125 340.895 2.04688 339.91C0.96875 338.902 0.429688 337.602 0.429688 336.008ZM21.3828 336.008C21.3828 334.391 21.9219 333.078 23 332.07C24.1016 331.062 25.4727 330.559 27.1133 330.559C28.7773 330.559 30.1484 331.062 31.2266 332.07C32.3281 333.078 32.8789 334.391 32.8789 336.008C32.8789 337.602 32.3398 338.902 31.2617 339.91C30.1836 340.895 28.8008 341.387 27.1133 341.387C25.4492 341.387 24.0781 340.895 23 339.91C21.9219 338.902 21.3828 337.602 21.3828 336.008ZM42.3359 336.008C42.3359 334.391 42.875 333.078 43.9531 332.07C45.0547 331.062 46.4258 330.559 48.0664 330.559C49.7305 330.559 51.1016 331.062 52.1797 332.07C53.2812 333.078 53.832 334.391 53.832 336.008C53.832 337.602 53.293 338.902 52.2148 339.91C51.1367 340.895 49.7539 341.387 48.0664 341.387C46.4023 341.387 45.0312 340.895 43.9531 339.91C42.875 338.902 42.3359 337.602 42.3359 336.008ZM63.2891 336.008C63.2891 334.391 63.8281 333.078 64.9062 332.07C66.0078 331.062 67.3789 330.559 69.0195 330.559C70.6836 330.559 72.0547 331.062 73.1328 332.07C74.2344 333.078 74.7852 334.391 74.7852 336.008C74.7852 337.602 74.2461 338.902 73.168 339.91C72.0898 340.895 70.707 341.387 69.0195 341.387C67.3555 341.387 65.9844 340.895 64.9062 339.91C63.8281 338.902 63.2891 337.602 63.2891 336.008ZM84.2422 336.008C84.2422 334.391 84.7812 333.078 85.8594 332.07C86.9609 331.062 88.332 330.559 89.9727 330.559C91.6367 330.559 93.0078 331.062 94.0859 332.07C95.1875 333.078 95.7383 334.391 95.7383 336.008C95.7383 337.602 95.1992 338.902 94.1211 339.91C93.043 340.895 91.6602 341.387 89.9727 341.387C88.3086 341.387 86.9375 340.895 85.8594 339.91C84.7812 338.902 84.2422 337.602 84.2422 336.008ZM105.195 336.008C105.195 334.391 105.734 333.078 106.812 332.07C107.914 331.062 109.285 330.559 110.926 330.559C112.59 330.559 113.961 331.062 115.039 332.07C116.141 333.078 116.691 334.391 116.691 336.008C116.691 337.602 116.152 338.902 115.074 339.91C113.996 340.895 112.613 341.387 110.926 341.387C109.262 341.387 107.891 340.895 106.812 339.91C105.734 338.902 105.195 337.602 105.195 336.008ZM126.148 336.008C126.148 334.391 126.688 333.078 127.766 332.07C128.867 331.062 130.238 330.559 131.879 330.559C133.543 330.559 134.914 331.062 135.992 332.07C137.094 333.078 137.645 334.391 137.645 336.008C137.645 337.602 137.105 338.902 136.027 339.91C134.949 340.895 133.566 341.387 131.879 341.387C130.215 341.387 128.844 340.895 127.766 339.91C126.688 338.902 126.148 337.602 126.148 336.008ZM147.102 336.008C147.102 334.391 147.641 333.078 148.719 332.07C149.82 331.062 151.191 330.559 152.832 330.559C154.496 330.559 155.867 331.062 156.945 332.07C158.047 333.078 158.598 334.391 158.598 336.008C158.598 337.602 158.059 338.902 156.98 339.91C155.902 340.895 154.52 341.387 152.832 341.387C151.168 341.387 149.797 340.895 148.719 339.91C147.641 338.902 147.102 337.602 147.102 336.008ZM168.055 336.008C168.055 334.391 168.594 333.078 169.672 332.07C170.773 331.062 172.145 330.559 173.785 330.559C175.449 330.559 176.82 331.062 177.898 332.07C179 333.078 179.551 334.391 179.551 336.008C179.551 337.602 179.012 338.902 177.934 339.91C176.855 340.895 175.473 341.387 173.785 341.387C172.121 341.387 170.75 340.895 169.672 339.91C168.594 338.902 168.055 337.602 168.055 336.008ZM189.008 336.008C189.008 334.391 189.547 333.078 190.625 332.07C191.727 331.062 193.098 330.559 194.738 330.559C196.402 330.559 197.773 331.062 198.852 332.07C199.953 333.078 200.504 334.391 200.504 336.008C200.504 337.602 199.965 338.902 198.887 339.91C197.809 340.895 196.426 341.387 194.738 341.387C193.074 341.387 191.703 340.895 190.625 339.91C189.547 338.902 189.008 337.602 189.008 336.008ZM209.961 336.008C209.961 334.391 210.5 333.078 211.578 332.07C212.68 331.062 214.051 330.559 215.691 330.559C217.355 330.559 218.727 331.062 219.805 332.07C220.906 333.078 221.457 334.391 221.457 336.008C221.457 337.602 220.918 338.902 219.84 339.91C218.762 340.895 217.379 341.387 215.691 341.387C214.027 341.387 212.656 340.895 211.578 339.91C210.5 338.902 209.961 337.602 209.961 336.008ZM230.914 336.008C230.914 334.391 231.453 333.078 232.531 332.07C233.633 331.062 235.004 330.559 236.645 330.559C238.309 330.559 239.68 331.062 240.758 332.07C241.859 333.078 242.41 334.391 242.41 336.008C242.41 337.602 241.871 338.902 240.793 339.91C239.715 340.895 238.332 341.387 236.645 341.387C234.98 341.387 233.609 340.895 232.531 339.91C231.453 338.902 230.914 337.602 230.914 336.008ZM251.867 336.008C251.867 334.391 252.406 333.078 253.484 332.07C254.586 331.062 255.957 330.559 257.598 330.559C259.262 330.559 260.633 331.062 261.711 332.07C262.812 333.078 263.363 334.391 263.363 336.008C263.363 337.602 262.824 338.902 261.746 339.91C260.668 340.895 259.285 341.387 257.598 341.387C255.934 341.387 254.562 340.895 253.484 339.91C252.406 338.902 251.867 337.602 251.867 336.008ZM272.82 336.008C272.82 334.391 273.359 333.078 274.438 332.07C275.539 331.062 276.91 330.559 278.551 330.559C280.215 330.559 281.586 331.062 282.664 332.07C283.766 333.078 284.316 334.391 284.316 336.008C284.316 337.602 283.777 338.902 282.699 339.91C281.621 340.895 280.238 341.387 278.551 341.387C276.887 341.387 275.516 340.895 274.438 339.91C273.359 338.902 272.82 337.602 272.82 336.008ZM0.429688 366.008C0.429688 364.391 0.96875 363.078 2.04688 362.07C3.14844 361.062 4.51953 360.559 6.16016 360.559C7.82422 360.559 9.19531 361.062 10.2734 362.07C11.375 363.078 11.9258 364.391 11.9258 366.008C11.9258 367.602 11.3867 368.902 10.3086 369.91C9.23047 370.895 7.84766 371.387 6.16016 371.387C4.49609 371.387 3.125 370.895 2.04688 369.91C0.96875 368.902 0.429688 367.602 0.429688 366.008ZM21.3828 366.008C21.3828 364.391 21.9219 363.078 23 362.07C24.1016 361.062 25.4727 360.559 27.1133 360.559C28.7773 360.559 30.1484 361.062 31.2266 362.07C32.3281 363.078 32.8789 364.391 32.8789 366.008C32.8789 367.602 32.3398 368.902 31.2617 369.91C30.1836 370.895 28.8008 371.387 27.1133 371.387C25.4492 371.387 24.0781 370.895 23 369.91C21.9219 368.902 21.3828 367.602 21.3828 366.008ZM42.3359 366.008C42.3359 364.391 42.875 363.078 43.9531 362.07C45.0547 361.062 46.4258 360.559 48.0664 360.559C49.7305 360.559 51.1016 361.062 52.1797 362.07C53.2812 363.078 53.832 364.391 53.832 366.008C53.832 367.602 53.293 368.902 52.2148 369.91C51.1367 370.895 49.7539 371.387 48.0664 371.387C46.4023 371.387 45.0312 370.895 43.9531 369.91C42.875 368.902 42.3359 367.602 42.3359 366.008ZM63.2891 366.008C63.2891 364.391 63.8281 363.078 64.9062 362.07C66.0078 361.062 67.3789 360.559 69.0195 360.559C70.6836 360.559 72.0547 361.062 73.1328 362.07C74.2344 363.078 74.7852 364.391 74.7852 366.008C74.7852 367.602 74.2461 368.902 73.168 369.91C72.0898 370.895 70.707 371.387 69.0195 371.387C67.3555 371.387 65.9844 370.895 64.9062 369.91C63.8281 368.902 63.2891 367.602 63.2891 366.008ZM84.2422 366.008C84.2422 364.391 84.7812 363.078 85.8594 362.07C86.9609 361.062 88.332 360.559 89.9727 360.559C91.6367 360.559 93.0078 361.062 94.0859 362.07C95.1875 363.078 95.7383 364.391 95.7383 366.008C95.7383 367.602 95.1992 368.902 94.1211 369.91C93.043 370.895 91.6602 371.387 89.9727 371.387C88.3086 371.387 86.9375 370.895 85.8594 369.91C84.7812 368.902 84.2422 367.602 84.2422 366.008ZM105.195 366.008C105.195 364.391 105.734 363.078 106.812 362.07C107.914 361.062 109.285 360.559 110.926 360.559C112.59 360.559 113.961 361.062 115.039 362.07C116.141 363.078 116.691 364.391 116.691 366.008C116.691 367.602 116.152 368.902 115.074 369.91C113.996 370.895 112.613 371.387 110.926 371.387C109.262 371.387 107.891 370.895 106.812 369.91C105.734 368.902 105.195 367.602 105.195 366.008ZM126.148 366.008C126.148 364.391 126.688 363.078 127.766 362.07C128.867 361.062 130.238 360.559 131.879 360.559C133.543 360.559 134.914 361.062 135.992 362.07C137.094 363.078 137.645 364.391 137.645 366.008C137.645 367.602 137.105 368.902 136.027 369.91C134.949 370.895 133.566 371.387 131.879 371.387C130.215 371.387 128.844 370.895 127.766 369.91C126.688 368.902 126.148 367.602 126.148 366.008ZM147.102 366.008C147.102 364.391 147.641 363.078 148.719 362.07C149.82 361.062 151.191 360.559 152.832 360.559C154.496 360.559 155.867 361.062 156.945 362.07C158.047 363.078 158.598 364.391 158.598 366.008C158.598 367.602 158.059 368.902 156.98 369.91C155.902 370.895 154.52 371.387 152.832 371.387C151.168 371.387 149.797 370.895 148.719 369.91C147.641 368.902 147.102 367.602 147.102 366.008ZM168.055 366.008C168.055 364.391 168.594 363.078 169.672 362.07C170.773 361.062 172.145 360.559 173.785 360.559C175.449 360.559 176.82 361.062 177.898 362.07C179 363.078 179.551 364.391 179.551 366.008C179.551 367.602 179.012 368.902 177.934 369.91C176.855 370.895 175.473 371.387 173.785 371.387C172.121 371.387 170.75 370.895 169.672 369.91C168.594 368.902 168.055 367.602 168.055 366.008ZM189.008 366.008C189.008 364.391 189.547 363.078 190.625 362.07C191.727 361.062 193.098 360.559 194.738 360.559C196.402 360.559 197.773 361.062 198.852 362.07C199.953 363.078 200.504 364.391 200.504 366.008C200.504 367.602 199.965 368.902 198.887 369.91C197.809 370.895 196.426 371.387 194.738 371.387C193.074 371.387 191.703 370.895 190.625 369.91C189.547 368.902 189.008 367.602 189.008 366.008ZM209.961 366.008C209.961 364.391 210.5 363.078 211.578 362.07C212.68 361.062 214.051 360.559 215.691 360.559C217.355 360.559 218.727 361.062 219.805 362.07C220.906 363.078 221.457 364.391 221.457 366.008C221.457 367.602 220.918 368.902 219.84 369.91C218.762 370.895 217.379 371.387 215.691 371.387C214.027 371.387 212.656 370.895 211.578 369.91C210.5 368.902 209.961 367.602 209.961 366.008ZM230.914 366.008C230.914 364.391 231.453 363.078 232.531 362.07C233.633 361.062 235.004 360.559 236.645 360.559C238.309 360.559 239.68 361.062 240.758 362.07C241.859 363.078 242.41 364.391 242.41 366.008C242.41 367.602 241.871 368.902 240.793 369.91C239.715 370.895 238.332 371.387 236.645 371.387C234.98 371.387 233.609 370.895 232.531 369.91C231.453 368.902 230.914 367.602 230.914 366.008ZM251.867 366.008C251.867 364.391 252.406 363.078 253.484 362.07C254.586 361.062 255.957 360.559 257.598 360.559C259.262 360.559 260.633 361.062 261.711 362.07C262.812 363.078 263.363 364.391 263.363 366.008C263.363 367.602 262.824 368.902 261.746 369.91C260.668 370.895 259.285 371.387 257.598 371.387C255.934 371.387 254.562 370.895 253.484 369.91C252.406 368.902 251.867 367.602 251.867 366.008ZM272.82 366.008C272.82 364.391 273.359 363.078 274.438 362.07C275.539 361.062 276.91 360.559 278.551 360.559C280.215 360.559 281.586 361.062 282.664 362.07C283.766 363.078 284.316 364.391 284.316 366.008C284.316 367.602 283.777 368.902 282.699 369.91C281.621 370.895 280.238 371.387 278.551 371.387C276.887 371.387 275.516 370.895 274.438 369.91C273.359 368.902 272.82 367.602 272.82 366.008Z" fill="#C6A88F"/>
</svg>
