<svg width="345" height="322" viewBox="0 0 345 322" fill="none" xmlns="http://www.w3.org/2000/svg">
<path d="M0.429688 6.00781C0.429688 4.39062 0.96875 3.07812 2.04688 2.07031C3.14844 1.0625 4.51953 0.558594 6.16016 0.558594C7.82422 0.558594 9.19531 1.0625 10.2734 2.07031C11.375 3.07812 11.9258 4.39062 11.9258 6.00781C11.9258 7.60156 11.3867 8.90234 10.3086 9.91016C9.23047 10.8945 7.84766 11.3867 6.16016 11.3867C4.49609 11.3867 3.125 10.8945 2.04688 9.91016C0.96875 8.90234 0.429688 7.60156 0.429688 6.00781ZM21.3828 6.00781C21.3828 4.39062 21.9219 3.07812 23 2.07031C24.1016 1.0625 25.4727 0.558594 27.1133 0.558594C28.7773 0.558594 30.1484 1.0625 31.2266 2.07031C32.3281 3.07812 32.8789 4.39062 32.8789 6.00781C32.8789 7.60156 32.3398 8.90234 31.2617 9.91016C30.1836 10.8945 28.8008 11.3867 27.1133 11.3867C25.4492 11.3867 24.0781 10.8945 23 9.91016C21.9219 8.90234 21.3828 7.60156 21.3828 6.00781ZM42.3359 6.00781C42.3359 4.39062 42.875 3.07812 43.9531 2.07031C45.0547 1.0625 46.4258 0.558594 48.0664 0.558594C49.7305 0.558594 51.1016 1.0625 52.1797 2.07031C53.2812 3.07812 53.832 4.39062 53.832 6.00781C53.832 7.60156 53.293 8.90234 52.2148 9.91016C51.1367 10.8945 49.7539 11.3867 48.0664 11.3867C46.4023 11.3867 45.0312 10.8945 43.9531 9.91016C42.875 8.90234 42.3359 7.60156 42.3359 6.00781ZM63.2891 6.00781C63.2891 4.39062 63.8281 3.07812 64.9062 2.07031C66.0078 1.0625 67.3789 0.558594 69.0195 0.558594C70.6836 0.558594 72.0547 1.0625 73.1328 2.07031C74.2344 3.07812 74.7852 4.39062 74.7852 6.00781C74.7852 7.60156 74.2461 8.90234 73.168 9.91016C72.0898 10.8945 70.707 11.3867 69.0195 11.3867C67.3555 11.3867 65.9844 10.8945 64.9062 9.91016C63.8281 8.90234 63.2891 7.60156 63.2891 6.00781ZM84.2422 6.00781C84.2422 4.39062 84.7812 3.07812 85.8594 2.07031C86.9609 1.0625 88.332 0.558594 89.9727 0.558594C91.6367 0.558594 93.0078 1.0625 94.0859 2.07031C95.1875 3.07812 95.7383 4.39062 95.7383 6.00781C95.7383 7.60156 95.1992 8.90234 94.1211 9.91016C93.043 10.8945 91.6602 11.3867 89.9727 11.3867C88.3086 11.3867 86.9375 10.8945 85.8594 9.91016C84.7812 8.90234 84.2422 7.60156 84.2422 6.00781ZM105.195 6.00781C105.195 4.39062 105.734 3.07812 106.812 2.07031C107.914 1.0625 109.285 0.558594 110.926 0.558594C112.59 0.558594 113.961 1.0625 115.039 2.07031C116.141 3.07812 116.691 4.39062 116.691 6.00781C116.691 7.60156 116.152 8.90234 115.074 9.91016C113.996 10.8945 112.613 11.3867 110.926 11.3867C109.262 11.3867 107.891 10.8945 106.812 9.91016C105.734 8.90234 105.195 7.60156 105.195 6.00781ZM126.148 6.00781C126.148 4.39062 126.688 3.07812 127.766 2.07031C128.867 1.0625 130.238 0.558594 131.879 0.558594C133.543 0.558594 134.914 1.0625 135.992 2.07031C137.094 3.07812 137.645 4.39062 137.645 6.00781C137.645 7.60156 137.105 8.90234 136.027 9.91016C134.949 10.8945 133.566 11.3867 131.879 11.3867C130.215 11.3867 128.844 10.8945 127.766 9.91016C126.688 8.90234 126.148 7.60156 126.148 6.00781ZM147.102 6.00781C147.102 4.39062 147.641 3.07812 148.719 2.07031C149.82 1.0625 151.191 0.558594 152.832 0.558594C154.496 0.558594 155.867 1.0625 156.945 2.07031C158.047 3.07812 158.598 4.39062 158.598 6.00781C158.598 7.60156 158.059 8.90234 156.98 9.91016C155.902 10.8945 154.52 11.3867 152.832 11.3867C151.168 11.3867 149.797 10.8945 148.719 9.91016C147.641 8.90234 147.102 7.60156 147.102 6.00781ZM168.055 6.00781C168.055 4.39062 168.594 3.07812 169.672 2.07031C170.773 1.0625 172.145 0.558594 173.785 0.558594C175.449 0.558594 176.82 1.0625 177.898 2.07031C179 3.07812 179.551 4.39062 179.551 6.00781C179.551 7.60156 179.012 8.90234 177.934 9.91016C176.855 10.8945 175.473 11.3867 173.785 11.3867C172.121 11.3867 170.75 10.8945 169.672 9.91016C168.594 8.90234 168.055 7.60156 168.055 6.00781ZM189.008 6.00781C189.008 4.39062 189.547 3.07812 190.625 2.07031C191.727 1.0625 193.098 0.558594 194.738 0.558594C196.402 0.558594 197.773 1.0625 198.852 2.07031C199.953 3.07812 200.504 4.39062 200.504 6.00781C200.504 7.60156 199.965 8.90234 198.887 9.91016C197.809 10.8945 196.426 11.3867 194.738 11.3867C193.074 11.3867 191.703 10.8945 190.625 9.91016C189.547 8.90234 189.008 7.60156 189.008 6.00781ZM209.961 6.00781C209.961 4.39062 210.5 3.07812 211.578 2.07031C212.68 1.0625 214.051 0.558594 215.691 0.558594C217.355 0.558594 218.727 1.0625 219.805 2.07031C220.906 3.07812 221.457 4.39062 221.457 6.00781C221.457 7.60156 220.918 8.90234 219.84 9.91016C218.762 10.8945 217.379 11.3867 215.691 11.3867C214.027 11.3867 212.656 10.8945 211.578 9.91016C210.5 8.90234 209.961 7.60156 209.961 6.00781ZM230.914 6.00781C230.914 4.39062 231.453 3.07812 232.531 2.07031C233.633 1.0625 235.004 0.558594 236.645 0.558594C238.309 0.558594 239.68 1.0625 240.758 2.07031C241.859 3.07812 242.41 4.39062 242.41 6.00781C242.41 7.60156 241.871 8.90234 240.793 9.91016C239.715 10.8945 238.332 11.3867 236.645 11.3867C234.98 11.3867 233.609 10.8945 232.531 9.91016C231.453 8.90234 230.914 7.60156 230.914 6.00781ZM251.867 6.00781C251.867 4.39062 252.406 3.07812 253.484 2.07031C254.586 1.0625 255.957 0.558594 257.598 0.558594C259.262 0.558594 260.633 1.0625 261.711 2.07031C262.812 3.07812 263.363 4.39062 263.363 6.00781C263.363 7.60156 262.824 8.90234 261.746 9.91016C260.668 10.8945 259.285 11.3867 257.598 11.3867C255.934 11.3867 254.562 10.8945 253.484 9.91016C252.406 8.90234 251.867 7.60156 251.867 6.00781ZM272.82 6.00781C272.82 4.39062 273.359 3.07812 274.438 2.07031C275.539 1.0625 276.91 0.558594 278.551 0.558594C280.215 0.558594 281.586 1.0625 282.664 2.07031C283.766 3.07812 284.316 4.39062 284.316 6.00781C284.316 7.60156 283.777 8.90234 282.699 9.91016C281.621 10.8945 280.238 11.3867 278.551 11.3867C276.887 11.3867 275.516 10.8945 274.438 9.91016C273.359 8.90234 272.82 7.60156 272.82 6.00781ZM293.773 6.00781C293.773 4.39062 294.312 3.07812 295.391 2.07031C296.492 1.0625 297.863 0.558594 299.504 0.558594C301.168 0.558594 302.539 1.0625 303.617 2.07031C304.719 3.07812 305.27 4.39062 305.27 6.00781C305.27 7.60156 304.73 8.90234 303.652 9.91016C302.574 10.8945 301.191 11.3867 299.504 11.3867C297.84 11.3867 296.469 10.8945 295.391 9.91016C294.312 8.90234 293.773 7.60156 293.773 6.00781ZM314.727 6.00781C314.727 4.39062 315.266 3.07812 316.344 2.07031C317.445 1.0625 318.816 0.558594 320.457 0.558594C322.121 0.558594 323.492 1.0625 324.57 2.07031C325.672 3.07812 326.223 4.39062 326.223 6.00781C326.223 7.60156 325.684 8.90234 324.605 9.91016C323.527 10.8945 322.145 11.3867 320.457 11.3867C318.793 11.3867 317.422 10.8945 316.344 9.91016C315.266 8.90234 314.727 7.60156 314.727 6.00781ZM335.68 6.00781C335.68 4.39062 336.219 3.07812 337.297 2.07031C338.398 1.0625 339.77 0.558594 341.41 0.558594C343.074 0.558594 344.445 1.0625 345.523 2.07031C346.625 3.07812 347.176 4.39062 347.176 6.00781C347.176 7.60156 346.637 8.90234 345.559 9.91016C344.48 10.8945 343.098 11.3867 341.41 11.3867C339.746 11.3867 338.375 10.8945 337.297 9.91016C336.219 8.90234 335.68 7.60156 335.68 6.00781ZM356.633 6.00781C356.633 4.39062 357.172 3.07812 358.25 2.07031C359.352 1.0625 360.723 0.558594 362.363 0.558594C364.027 0.558594 365.398 1.0625 366.477 2.07031C367.578 3.07812 368.129 4.39062 368.129 6.00781C368.129 7.60156 367.59 8.90234 366.512 9.91016C365.434 10.8945 364.051 11.3867 362.363 11.3867C360.699 11.3867 359.328 10.8945 358.25 9.91016C357.172 8.90234 356.633 7.60156 356.633 6.00781ZM377.586 6.00781C377.586 4.39062 378.125 3.07812 379.203 2.07031C380.305 1.0625 381.676 0.558594 383.316 0.558594C384.98 0.558594 386.352 1.0625 387.43 2.07031C388.531 3.07812 389.082 4.39062 389.082 6.00781C389.082 7.60156 388.543 8.90234 387.465 9.91016C386.387 10.8945 385.004 11.3867 383.316 11.3867C381.652 11.3867 380.281 10.8945 379.203 9.91016C378.125 8.90234 377.586 7.60156 377.586 6.00781ZM0.429688 37.0078C0.429688 35.3906 0.96875 34.0781 2.04688 33.0703C3.14844 32.0625 4.51953 31.5586 6.16016 31.5586C7.82422 31.5586 9.19531 32.0625 10.2734 33.0703C11.375 34.0781 11.9258 35.3906 11.9258 37.0078C11.9258 38.6016 11.3867 39.9023 10.3086 40.9102C9.23047 41.8945 7.84766 42.3867 6.16016 42.3867C4.49609 42.3867 3.125 41.8945 2.04688 40.9102C0.96875 39.9023 0.429688 38.6016 0.429688 37.0078ZM21.3828 37.0078C21.3828 35.3906 21.9219 34.0781 23 33.0703C24.1016 32.0625 25.4727 31.5586 27.1133 31.5586C28.7773 31.5586 30.1484 32.0625 31.2266 33.0703C32.3281 34.0781 32.8789 35.3906 32.8789 37.0078C32.8789 38.6016 32.3398 39.9023 31.2617 40.9102C30.1836 41.8945 28.8008 42.3867 27.1133 42.3867C25.4492 42.3867 24.0781 41.8945 23 40.9102C21.9219 39.9023 21.3828 38.6016 21.3828 37.0078ZM42.3359 37.0078C42.3359 35.3906 42.875 34.0781 43.9531 33.0703C45.0547 32.0625 46.4258 31.5586 48.0664 31.5586C49.7305 31.5586 51.1016 32.0625 52.1797 33.0703C53.2812 34.0781 53.832 35.3906 53.832 37.0078C53.832 38.6016 53.293 39.9023 52.2148 40.9102C51.1367 41.8945 49.7539 42.3867 48.0664 42.3867C46.4023 42.3867 45.0312 41.8945 43.9531 40.9102C42.875 39.9023 42.3359 38.6016 42.3359 37.0078ZM63.2891 37.0078C63.2891 35.3906 63.8281 34.0781 64.9062 33.0703C66.0078 32.0625 67.3789 31.5586 69.0195 31.5586C70.6836 31.5586 72.0547 32.0625 73.1328 33.0703C74.2344 34.0781 74.7852 35.3906 74.7852 37.0078C74.7852 38.6016 74.2461 39.9023 73.168 40.9102C72.0898 41.8945 70.707 42.3867 69.0195 42.3867C67.3555 42.3867 65.9844 41.8945 64.9062 40.9102C63.8281 39.9023 63.2891 38.6016 63.2891 37.0078ZM84.2422 37.0078C84.2422 35.3906 84.7812 34.0781 85.8594 33.0703C86.9609 32.0625 88.332 31.5586 89.9727 31.5586C91.6367 31.5586 93.0078 32.0625 94.0859 33.0703C95.1875 34.0781 95.7383 35.3906 95.7383 37.0078C95.7383 38.6016 95.1992 39.9023 94.1211 40.9102C93.043 41.8945 91.6602 42.3867 89.9727 42.3867C88.3086 42.3867 86.9375 41.8945 85.8594 40.9102C84.7812 39.9023 84.2422 38.6016 84.2422 37.0078ZM105.195 37.0078C105.195 35.3906 105.734 34.0781 106.812 33.0703C107.914 32.0625 109.285 31.5586 110.926 31.5586C112.59 31.5586 113.961 32.0625 115.039 33.0703C116.141 34.0781 116.691 35.3906 116.691 37.0078C116.691 38.6016 116.152 39.9023 115.074 40.9102C113.996 41.8945 112.613 42.3867 110.926 42.3867C109.262 42.3867 107.891 41.8945 106.812 40.9102C105.734 39.9023 105.195 38.6016 105.195 37.0078ZM126.148 37.0078C126.148 35.3906 126.688 34.0781 127.766 33.0703C128.867 32.0625 130.238 31.5586 131.879 31.5586C133.543 31.5586 134.914 32.0625 135.992 33.0703C137.094 34.0781 137.645 35.3906 137.645 37.0078C137.645 38.6016 137.105 39.9023 136.027 40.9102C134.949 41.8945 133.566 42.3867 131.879 42.3867C130.215 42.3867 128.844 41.8945 127.766 40.9102C126.688 39.9023 126.148 38.6016 126.148 37.0078ZM147.102 37.0078C147.102 35.3906 147.641 34.0781 148.719 33.0703C149.82 32.0625 151.191 31.5586 152.832 31.5586C154.496 31.5586 155.867 32.0625 156.945 33.0703C158.047 34.0781 158.598 35.3906 158.598 37.0078C158.598 38.6016 158.059 39.9023 156.98 40.9102C155.902 41.8945 154.52 42.3867 152.832 42.3867C151.168 42.3867 149.797 41.8945 148.719 40.9102C147.641 39.9023 147.102 38.6016 147.102 37.0078ZM168.055 37.0078C168.055 35.3906 168.594 34.0781 169.672 33.0703C170.773 32.0625 172.145 31.5586 173.785 31.5586C175.449 31.5586 176.82 32.0625 177.898 33.0703C179 34.0781 179.551 35.3906 179.551 37.0078C179.551 38.6016 179.012 39.9023 177.934 40.9102C176.855 41.8945 175.473 42.3867 173.785 42.3867C172.121 42.3867 170.75 41.8945 169.672 40.9102C168.594 39.9023 168.055 38.6016 168.055 37.0078ZM189.008 37.0078C189.008 35.3906 189.547 34.0781 190.625 33.0703C191.727 32.0625 193.098 31.5586 194.738 31.5586C196.402 31.5586 197.773 32.0625 198.852 33.0703C199.953 34.0781 200.504 35.3906 200.504 37.0078C200.504 38.6016 199.965 39.9023 198.887 40.9102C197.809 41.8945 196.426 42.3867 194.738 42.3867C193.074 42.3867 191.703 41.8945 190.625 40.9102C189.547 39.9023 189.008 38.6016 189.008 37.0078ZM209.961 37.0078C209.961 35.3906 210.5 34.0781 211.578 33.0703C212.68 32.0625 214.051 31.5586 215.691 31.5586C217.355 31.5586 218.727 32.0625 219.805 33.0703C220.906 34.0781 221.457 35.3906 221.457 37.0078C221.457 38.6016 220.918 39.9023 219.84 40.9102C218.762 41.8945 217.379 42.3867 215.691 42.3867C214.027 42.3867 212.656 41.8945 211.578 40.9102C210.5 39.9023 209.961 38.6016 209.961 37.0078ZM230.914 37.0078C230.914 35.3906 231.453 34.0781 232.531 33.0703C233.633 32.0625 235.004 31.5586 236.645 31.5586C238.309 31.5586 239.68 32.0625 240.758 33.0703C241.859 34.0781 242.41 35.3906 242.41 37.0078C242.41 38.6016 241.871 39.9023 240.793 40.9102C239.715 41.8945 238.332 42.3867 236.645 42.3867C234.98 42.3867 233.609 41.8945 232.531 40.9102C231.453 39.9023 230.914 38.6016 230.914 37.0078ZM251.867 37.0078C251.867 35.3906 252.406 34.0781 253.484 33.0703C254.586 32.0625 255.957 31.5586 257.598 31.5586C259.262 31.5586 260.633 32.0625 261.711 33.0703C262.812 34.0781 263.363 35.3906 263.363 37.0078C263.363 38.6016 262.824 39.9023 261.746 40.9102C260.668 41.8945 259.285 42.3867 257.598 42.3867C255.934 42.3867 254.562 41.8945 253.484 40.9102C252.406 39.9023 251.867 38.6016 251.867 37.0078ZM272.82 37.0078C272.82 35.3906 273.359 34.0781 274.438 33.0703C275.539 32.0625 276.91 31.5586 278.551 31.5586C280.215 31.5586 281.586 32.0625 282.664 33.0703C283.766 34.0781 284.316 35.3906 284.316 37.0078C284.316 38.6016 283.777 39.9023 282.699 40.9102C281.621 41.8945 280.238 42.3867 278.551 42.3867C276.887 42.3867 275.516 41.8945 274.438 40.9102C273.359 39.9023 272.82 38.6016 272.82 37.0078ZM293.773 37.0078C293.773 35.3906 294.312 34.0781 295.391 33.0703C296.492 32.0625 297.863 31.5586 299.504 31.5586C301.168 31.5586 302.539 32.0625 303.617 33.0703C304.719 34.0781 305.27 35.3906 305.27 37.0078C305.27 38.6016 304.73 39.9023 303.652 40.9102C302.574 41.8945 301.191 42.3867 299.504 42.3867C297.84 42.3867 296.469 41.8945 295.391 40.9102C294.312 39.9023 293.773 38.6016 293.773 37.0078ZM314.727 37.0078C314.727 35.3906 315.266 34.0781 316.344 33.0703C317.445 32.0625 318.816 31.5586 320.457 31.5586C322.121 31.5586 323.492 32.0625 324.57 33.0703C325.672 34.0781 326.223 35.3906 326.223 37.0078C326.223 38.6016 325.684 39.9023 324.605 40.9102C323.527 41.8945 322.145 42.3867 320.457 42.3867C318.793 42.3867 317.422 41.8945 316.344 40.9102C315.266 39.9023 314.727 38.6016 314.727 37.0078ZM335.68 37.0078C335.68 35.3906 336.219 34.0781 337.297 33.0703C338.398 32.0625 339.77 31.5586 341.41 31.5586C343.074 31.5586 344.445 32.0625 345.523 33.0703C346.625 34.0781 347.176 35.3906 347.176 37.0078C347.176 38.6016 346.637 39.9023 345.559 40.9102C344.48 41.8945 343.098 42.3867 341.41 42.3867C339.746 42.3867 338.375 41.8945 337.297 40.9102C336.219 39.9023 335.68 38.6016 335.68 37.0078ZM356.633 37.0078C356.633 35.3906 357.172 34.0781 358.25 33.0703C359.352 32.0625 360.723 31.5586 362.363 31.5586C364.027 31.5586 365.398 32.0625 366.477 33.0703C367.578 34.0781 368.129 35.3906 368.129 37.0078C368.129 38.6016 367.59 39.9023 366.512 40.9102C365.434 41.8945 364.051 42.3867 362.363 42.3867C360.699 42.3867 359.328 41.8945 358.25 40.9102C357.172 39.9023 356.633 38.6016 356.633 37.0078ZM377.586 37.0078C377.586 35.3906 378.125 34.0781 379.203 33.0703C380.305 32.0625 381.676 31.5586 383.316 31.5586C384.98 31.5586 386.352 32.0625 387.43 33.0703C388.531 34.0781 389.082 35.3906 389.082 37.0078C389.082 38.6016 388.543 39.9023 387.465 40.9102C386.387 41.8945 385.004 42.3867 383.316 42.3867C381.652 42.3867 380.281 41.8945 379.203 40.9102C378.125 39.9023 377.586 38.6016 377.586 37.0078ZM0.429688 68.0078C0.429688 66.3906 0.96875 65.0781 2.04688 64.0703C3.14844 63.0625 4.51953 62.5586 6.16016 62.5586C7.82422 62.5586 9.19531 63.0625 10.2734 64.0703C11.375 65.0781 11.9258 66.3906 11.9258 68.0078C11.9258 69.6016 11.3867 70.9023 10.3086 71.9102C9.23047 72.8945 7.84766 73.3867 6.16016 73.3867C4.49609 73.3867 3.125 72.8945 2.04688 71.9102C0.96875 70.9023 0.429688 69.6016 0.429688 68.0078ZM21.3828 68.0078C21.3828 66.3906 21.9219 65.0781 23 64.0703C24.1016 63.0625 25.4727 62.5586 27.1133 62.5586C28.7773 62.5586 30.1484 63.0625 31.2266 64.0703C32.3281 65.0781 32.8789 66.3906 32.8789 68.0078C32.8789 69.6016 32.3398 70.9023 31.2617 71.9102C30.1836 72.8945 28.8008 73.3867 27.1133 73.3867C25.4492 73.3867 24.0781 72.8945 23 71.9102C21.9219 70.9023 21.3828 69.6016 21.3828 68.0078ZM42.3359 68.0078C42.3359 66.3906 42.875 65.0781 43.9531 64.0703C45.0547 63.0625 46.4258 62.5586 48.0664 62.5586C49.7305 62.5586 51.1016 63.0625 52.1797 64.0703C53.2812 65.0781 53.832 66.3906 53.832 68.0078C53.832 69.6016 53.293 70.9023 52.2148 71.9102C51.1367 72.8945 49.7539 73.3867 48.0664 73.3867C46.4023 73.3867 45.0312 72.8945 43.9531 71.9102C42.875 70.9023 42.3359 69.6016 42.3359 68.0078ZM63.2891 68.0078C63.2891 66.3906 63.8281 65.0781 64.9062 64.0703C66.0078 63.0625 67.3789 62.5586 69.0195 62.5586C70.6836 62.5586 72.0547 63.0625 73.1328 64.0703C74.2344 65.0781 74.7852 66.3906 74.7852 68.0078C74.7852 69.6016 74.2461 70.9023 73.168 71.9102C72.0898 72.8945 70.707 73.3867 69.0195 73.3867C67.3555 73.3867 65.9844 72.8945 64.9062 71.9102C63.8281 70.9023 63.2891 69.6016 63.2891 68.0078ZM84.2422 68.0078C84.2422 66.3906 84.7812 65.0781 85.8594 64.0703C86.9609 63.0625 88.332 62.5586 89.9727 62.5586C91.6367 62.5586 93.0078 63.0625 94.0859 64.0703C95.1875 65.0781 95.7383 66.3906 95.7383 68.0078C95.7383 69.6016 95.1992 70.9023 94.1211 71.9102C93.043 72.8945 91.6602 73.3867 89.9727 73.3867C88.3086 73.3867 86.9375 72.8945 85.8594 71.9102C84.7812 70.9023 84.2422 69.6016 84.2422 68.0078ZM105.195 68.0078C105.195 66.3906 105.734 65.0781 106.812 64.0703C107.914 63.0625 109.285 62.5586 110.926 62.5586C112.59 62.5586 113.961 63.0625 115.039 64.0703C116.141 65.0781 116.691 66.3906 116.691 68.0078C116.691 69.6016 116.152 70.9023 115.074 71.9102C113.996 72.8945 112.613 73.3867 110.926 73.3867C109.262 73.3867 107.891 72.8945 106.812 71.9102C105.734 70.9023 105.195 69.6016 105.195 68.0078ZM126.148 68.0078C126.148 66.3906 126.688 65.0781 127.766 64.0703C128.867 63.0625 130.238 62.5586 131.879 62.5586C133.543 62.5586 134.914 63.0625 135.992 64.0703C137.094 65.0781 137.645 66.3906 137.645 68.0078C137.645 69.6016 137.105 70.9023 136.027 71.9102C134.949 72.8945 133.566 73.3867 131.879 73.3867C130.215 73.3867 128.844 72.8945 127.766 71.9102C126.688 70.9023 126.148 69.6016 126.148 68.0078ZM147.102 68.0078C147.102 66.3906 147.641 65.0781 148.719 64.0703C149.82 63.0625 151.191 62.5586 152.832 62.5586C154.496 62.5586 155.867 63.0625 156.945 64.0703C158.047 65.0781 158.598 66.3906 158.598 68.0078C158.598 69.6016 158.059 70.9023 156.98 71.9102C155.902 72.8945 154.52 73.3867 152.832 73.3867C151.168 73.3867 149.797 72.8945 148.719 71.9102C147.641 70.9023 147.102 69.6016 147.102 68.0078ZM168.055 68.0078C168.055 66.3906 168.594 65.0781 169.672 64.0703C170.773 63.0625 172.145 62.5586 173.785 62.5586C175.449 62.5586 176.82 63.0625 177.898 64.0703C179 65.0781 179.551 66.3906 179.551 68.0078C179.551 69.6016 179.012 70.9023 177.934 71.9102C176.855 72.8945 175.473 73.3867 173.785 73.3867C172.121 73.3867 170.75 72.8945 169.672 71.9102C168.594 70.9023 168.055 69.6016 168.055 68.0078ZM189.008 68.0078C189.008 66.3906 189.547 65.0781 190.625 64.0703C191.727 63.0625 193.098 62.5586 194.738 62.5586C196.402 62.5586 197.773 63.0625 198.852 64.0703C199.953 65.0781 200.504 66.3906 200.504 68.0078C200.504 69.6016 199.965 70.9023 198.887 71.9102C197.809 72.8945 196.426 73.3867 194.738 73.3867C193.074 73.3867 191.703 72.8945 190.625 71.9102C189.547 70.9023 189.008 69.6016 189.008 68.0078ZM209.961 68.0078C209.961 66.3906 210.5 65.0781 211.578 64.0703C212.68 63.0625 214.051 62.5586 215.691 62.5586C217.355 62.5586 218.727 63.0625 219.805 64.0703C220.906 65.0781 221.457 66.3906 221.457 68.0078C221.457 69.6016 220.918 70.9023 219.84 71.9102C218.762 72.8945 217.379 73.3867 215.691 73.3867C214.027 73.3867 212.656 72.8945 211.578 71.9102C210.5 70.9023 209.961 69.6016 209.961 68.0078ZM230.914 68.0078C230.914 66.3906 231.453 65.0781 232.531 64.0703C233.633 63.0625 235.004 62.5586 236.645 62.5586C238.309 62.5586 239.68 63.0625 240.758 64.0703C241.859 65.0781 242.41 66.3906 242.41 68.0078C242.41 69.6016 241.871 70.9023 240.793 71.9102C239.715 72.8945 238.332 73.3867 236.645 73.3867C234.98 73.3867 233.609 72.8945 232.531 71.9102C231.453 70.9023 230.914 69.6016 230.914 68.0078ZM251.867 68.0078C251.867 66.3906 252.406 65.0781 253.484 64.0703C254.586 63.0625 255.957 62.5586 257.598 62.5586C259.262 62.5586 260.633 63.0625 261.711 64.0703C262.812 65.0781 263.363 66.3906 263.363 68.0078C263.363 69.6016 262.824 70.9023 261.746 71.9102C260.668 72.8945 259.285 73.3867 257.598 73.3867C255.934 73.3867 254.562 72.8945 253.484 71.9102C252.406 70.9023 251.867 69.6016 251.867 68.0078ZM272.82 68.0078C272.82 66.3906 273.359 65.0781 274.438 64.0703C275.539 63.0625 276.91 62.5586 278.551 62.5586C280.215 62.5586 281.586 63.0625 282.664 64.0703C283.766 65.0781 284.316 66.3906 284.316 68.0078C284.316 69.6016 283.777 70.9023 282.699 71.9102C281.621 72.8945 280.238 73.3867 278.551 73.3867C276.887 73.3867 275.516 72.8945 274.438 71.9102C273.359 70.9023 272.82 69.6016 272.82 68.0078ZM293.773 68.0078C293.773 66.3906 294.312 65.0781 295.391 64.0703C296.492 63.0625 297.863 62.5586 299.504 62.5586C301.168 62.5586 302.539 63.0625 303.617 64.0703C304.719 65.0781 305.27 66.3906 305.27 68.0078C305.27 69.6016 304.73 70.9023 303.652 71.9102C302.574 72.8945 301.191 73.3867 299.504 73.3867C297.84 73.3867 296.469 72.8945 295.391 71.9102C294.312 70.9023 293.773 69.6016 293.773 68.0078ZM314.727 68.0078C314.727 66.3906 315.266 65.0781 316.344 64.0703C317.445 63.0625 318.816 62.5586 320.457 62.5586C322.121 62.5586 323.492 63.0625 324.57 64.0703C325.672 65.0781 326.223 66.3906 326.223 68.0078C326.223 69.6016 325.684 70.9023 324.605 71.9102C323.527 72.8945 322.145 73.3867 320.457 73.3867C318.793 73.3867 317.422 72.8945 316.344 71.9102C315.266 70.9023 314.727 69.6016 314.727 68.0078ZM335.68 68.0078C335.68 66.3906 336.219 65.0781 337.297 64.0703C338.398 63.0625 339.77 62.5586 341.41 62.5586C343.074 62.5586 344.445 63.0625 345.523 64.0703C346.625 65.0781 347.176 66.3906 347.176 68.0078C347.176 69.6016 346.637 70.9023 345.559 71.9102C344.48 72.8945 343.098 73.3867 341.41 73.3867C339.746 73.3867 338.375 72.8945 337.297 71.9102C336.219 70.9023 335.68 69.6016 335.68 68.0078ZM356.633 68.0078C356.633 66.3906 357.172 65.0781 358.25 64.0703C359.352 63.0625 360.723 62.5586 362.363 62.5586C364.027 62.5586 365.398 63.0625 366.477 64.0703C367.578 65.0781 368.129 66.3906 368.129 68.0078C368.129 69.6016 367.59 70.9023 366.512 71.9102C365.434 72.8945 364.051 73.3867 362.363 73.3867C360.699 73.3867 359.328 72.8945 358.25 71.9102C357.172 70.9023 356.633 69.6016 356.633 68.0078ZM377.586 68.0078C377.586 66.3906 378.125 65.0781 379.203 64.0703C380.305 63.0625 381.676 62.5586 383.316 62.5586C384.98 62.5586 386.352 63.0625 387.43 64.0703C388.531 65.0781 389.082 66.3906 389.082 68.0078C389.082 69.6016 388.543 70.9023 387.465 71.9102C386.387 72.8945 385.004 73.3867 383.316 73.3867C381.652 73.3867 380.281 72.8945 379.203 71.9102C378.125 70.9023 377.586 69.6016 377.586 68.0078ZM0.429688 99.0078C0.429688 97.3906 0.96875 96.0781 2.04688 95.0703C3.14844 94.0625 4.51953 93.5586 6.16016 93.5586C7.82422 93.5586 9.19531 94.0625 10.2734 95.0703C11.375 96.0781 11.9258 97.3906 11.9258 99.0078C11.9258 100.602 11.3867 101.902 10.3086 102.91C9.23047 103.895 7.84766 104.387 6.16016 104.387C4.49609 104.387 3.125 103.895 2.04688 102.91C0.96875 101.902 0.429688 100.602 0.429688 99.0078ZM21.3828 99.0078C21.3828 97.3906 21.9219 96.0781 23 95.0703C24.1016 94.0625 25.4727 93.5586 27.1133 93.5586C28.7773 93.5586 30.1484 94.0625 31.2266 95.0703C32.3281 96.0781 32.8789 97.3906 32.8789 99.0078C32.8789 100.602 32.3398 101.902 31.2617 102.91C30.1836 103.895 28.8008 104.387 27.1133 104.387C25.4492 104.387 24.0781 103.895 23 102.91C21.9219 101.902 21.3828 100.602 21.3828 99.0078ZM42.3359 99.0078C42.3359 97.3906 42.875 96.0781 43.9531 95.0703C45.0547 94.0625 46.4258 93.5586 48.0664 93.5586C49.7305 93.5586 51.1016 94.0625 52.1797 95.0703C53.2812 96.0781 53.832 97.3906 53.832 99.0078C53.832 100.602 53.293 101.902 52.2148 102.91C51.1367 103.895 49.7539 104.387 48.0664 104.387C46.4023 104.387 45.0312 103.895 43.9531 102.91C42.875 101.902 42.3359 100.602 42.3359 99.0078ZM63.2891 99.0078C63.2891 97.3906 63.8281 96.0781 64.9062 95.0703C66.0078 94.0625 67.3789 93.5586 69.0195 93.5586C70.6836 93.5586 72.0547 94.0625 73.1328 95.0703C74.2344 96.0781 74.7852 97.3906 74.7852 99.0078C74.7852 100.602 74.2461 101.902 73.168 102.91C72.0898 103.895 70.707 104.387 69.0195 104.387C67.3555 104.387 65.9844 103.895 64.9062 102.91C63.8281 101.902 63.2891 100.602 63.2891 99.0078ZM84.2422 99.0078C84.2422 97.3906 84.7812 96.0781 85.8594 95.0703C86.9609 94.0625 88.332 93.5586 89.9727 93.5586C91.6367 93.5586 93.0078 94.0625 94.0859 95.0703C95.1875 96.0781 95.7383 97.3906 95.7383 99.0078C95.7383 100.602 95.1992 101.902 94.1211 102.91C93.043 103.895 91.6602 104.387 89.9727 104.387C88.3086 104.387 86.9375 103.895 85.8594 102.91C84.7812 101.902 84.2422 100.602 84.2422 99.0078ZM105.195 99.0078C105.195 97.3906 105.734 96.0781 106.812 95.0703C107.914 94.0625 109.285 93.5586 110.926 93.5586C112.59 93.5586 113.961 94.0625 115.039 95.0703C116.141 96.0781 116.691 97.3906 116.691 99.0078C116.691 100.602 116.152 101.902 115.074 102.91C113.996 103.895 112.613 104.387 110.926 104.387C109.262 104.387 107.891 103.895 106.812 102.91C105.734 101.902 105.195 100.602 105.195 99.0078ZM126.148 99.0078C126.148 97.3906 126.688 96.0781 127.766 95.0703C128.867 94.0625 130.238 93.5586 131.879 93.5586C133.543 93.5586 134.914 94.0625 135.992 95.0703C137.094 96.0781 137.645 97.3906 137.645 99.0078C137.645 100.602 137.105 101.902 136.027 102.91C134.949 103.895 133.566 104.387 131.879 104.387C130.215 104.387 128.844 103.895 127.766 102.91C126.688 101.902 126.148 100.602 126.148 99.0078ZM147.102 99.0078C147.102 97.3906 147.641 96.0781 148.719 95.0703C149.82 94.0625 151.191 93.5586 152.832 93.5586C154.496 93.5586 155.867 94.0625 156.945 95.0703C158.047 96.0781 158.598 97.3906 158.598 99.0078C158.598 100.602 158.059 101.902 156.98 102.91C155.902 103.895 154.52 104.387 152.832 104.387C151.168 104.387 149.797 103.895 148.719 102.91C147.641 101.902 147.102 100.602 147.102 99.0078ZM168.055 99.0078C168.055 97.3906 168.594 96.0781 169.672 95.0703C170.773 94.0625 172.145 93.5586 173.785 93.5586C175.449 93.5586 176.82 94.0625 177.898 95.0703C179 96.0781 179.551 97.3906 179.551 99.0078C179.551 100.602 179.012 101.902 177.934 102.91C176.855 103.895 175.473 104.387 173.785 104.387C172.121 104.387 170.75 103.895 169.672 102.91C168.594 101.902 168.055 100.602 168.055 99.0078ZM189.008 99.0078C189.008 97.3906 189.547 96.0781 190.625 95.0703C191.727 94.0625 193.098 93.5586 194.738 93.5586C196.402 93.5586 197.773 94.0625 198.852 95.0703C199.953 96.0781 200.504 97.3906 200.504 99.0078C200.504 100.602 199.965 101.902 198.887 102.91C197.809 103.895 196.426 104.387 194.738 104.387C193.074 104.387 191.703 103.895 190.625 102.91C189.547 101.902 189.008 100.602 189.008 99.0078ZM209.961 99.0078C209.961 97.3906 210.5 96.0781 211.578 95.0703C212.68 94.0625 214.051 93.5586 215.691 93.5586C217.355 93.5586 218.727 94.0625 219.805 95.0703C220.906 96.0781 221.457 97.3906 221.457 99.0078C221.457 100.602 220.918 101.902 219.84 102.91C218.762 103.895 217.379 104.387 215.691 104.387C214.027 104.387 212.656 103.895 211.578 102.91C210.5 101.902 209.961 100.602 209.961 99.0078ZM230.914 99.0078C230.914 97.3906 231.453 96.0781 232.531 95.0703C233.633 94.0625 235.004 93.5586 236.645 93.5586C238.309 93.5586 239.68 94.0625 240.758 95.0703C241.859 96.0781 242.41 97.3906 242.41 99.0078C242.41 100.602 241.871 101.902 240.793 102.91C239.715 103.895 238.332 104.387 236.645 104.387C234.98 104.387 233.609 103.895 232.531 102.91C231.453 101.902 230.914 100.602 230.914 99.0078ZM251.867 99.0078C251.867 97.3906 252.406 96.0781 253.484 95.0703C254.586 94.0625 255.957 93.5586 257.598 93.5586C259.262 93.5586 260.633 94.0625 261.711 95.0703C262.812 96.0781 263.363 97.3906 263.363 99.0078C263.363 100.602 262.824 101.902 261.746 102.91C260.668 103.895 259.285 104.387 257.598 104.387C255.934 104.387 254.562 103.895 253.484 102.91C252.406 101.902 251.867 100.602 251.867 99.0078ZM272.82 99.0078C272.82 97.3906 273.359 96.0781 274.438 95.0703C275.539 94.0625 276.91 93.5586 278.551 93.5586C280.215 93.5586 281.586 94.0625 282.664 95.0703C283.766 96.0781 284.316 97.3906 284.316 99.0078C284.316 100.602 283.777 101.902 282.699 102.91C281.621 103.895 280.238 104.387 278.551 104.387C276.887 104.387 275.516 103.895 274.438 102.91C273.359 101.902 272.82 100.602 272.82 99.0078ZM293.773 99.0078C293.773 97.3906 294.312 96.0781 295.391 95.0703C296.492 94.0625 297.863 93.5586 299.504 93.5586C301.168 93.5586 302.539 94.0625 303.617 95.0703C304.719 96.0781 305.27 97.3906 305.27 99.0078C305.27 100.602 304.73 101.902 303.652 102.91C302.574 103.895 301.191 104.387 299.504 104.387C297.84 104.387 296.469 103.895 295.391 102.91C294.312 101.902 293.773 100.602 293.773 99.0078ZM314.727 99.0078C314.727 97.3906 315.266 96.0781 316.344 95.0703C317.445 94.0625 318.816 93.5586 320.457 93.5586C322.121 93.5586 323.492 94.0625 324.57 95.0703C325.672 96.0781 326.223 97.3906 326.223 99.0078C326.223 100.602 325.684 101.902 324.605 102.91C323.527 103.895 322.145 104.387 320.457 104.387C318.793 104.387 317.422 103.895 316.344 102.91C315.266 101.902 314.727 100.602 314.727 99.0078ZM335.68 99.0078C335.68 97.3906 336.219 96.0781 337.297 95.0703C338.398 94.0625 339.77 93.5586 341.41 93.5586C343.074 93.5586 344.445 94.0625 345.523 95.0703C346.625 96.0781 347.176 97.3906 347.176 99.0078C347.176 100.602 346.637 101.902 345.559 102.91C344.48 103.895 343.098 104.387 341.41 104.387C339.746 104.387 338.375 103.895 337.297 102.91C336.219 101.902 335.68 100.602 335.68 99.0078ZM356.633 99.0078C356.633 97.3906 357.172 96.0781 358.25 95.0703C359.352 94.0625 360.723 93.5586 362.363 93.5586C364.027 93.5586 365.398 94.0625 366.477 95.0703C367.578 96.0781 368.129 97.3906 368.129 99.0078C368.129 100.602 367.59 101.902 366.512 102.91C365.434 103.895 364.051 104.387 362.363 104.387C360.699 104.387 359.328 103.895 358.25 102.91C357.172 101.902 356.633 100.602 356.633 99.0078ZM377.586 99.0078C377.586 97.3906 378.125 96.0781 379.203 95.0703C380.305 94.0625 381.676 93.5586 383.316 93.5586C384.98 93.5586 386.352 94.0625 387.43 95.0703C388.531 96.0781 389.082 97.3906 389.082 99.0078C389.082 100.602 388.543 101.902 387.465 102.91C386.387 103.895 385.004 104.387 383.316 104.387C381.652 104.387 380.281 103.895 379.203 102.91C378.125 101.902 377.586 100.602 377.586 99.0078ZM0.429688 130.008C0.429688 128.391 0.96875 127.078 2.04688 126.07C3.14844 125.062 4.51953 124.559 6.16016 124.559C7.82422 124.559 9.19531 125.062 10.2734 126.07C11.375 127.078 11.9258 128.391 11.9258 130.008C11.9258 131.602 11.3867 132.902 10.3086 133.91C9.23047 134.895 7.84766 135.387 6.16016 135.387C4.49609 135.387 3.125 134.895 2.04688 133.91C0.96875 132.902 0.429688 131.602 0.429688 130.008ZM21.3828 130.008C21.3828 128.391 21.9219 127.078 23 126.07C24.1016 125.062 25.4727 124.559 27.1133 124.559C28.7773 124.559 30.1484 125.062 31.2266 126.07C32.3281 127.078 32.8789 128.391 32.8789 130.008C32.8789 131.602 32.3398 132.902 31.2617 133.91C30.1836 134.895 28.8008 135.387 27.1133 135.387C25.4492 135.387 24.0781 134.895 23 133.91C21.9219 132.902 21.3828 131.602 21.3828 130.008ZM42.3359 130.008C42.3359 128.391 42.875 127.078 43.9531 126.07C45.0547 125.062 46.4258 124.559 48.0664 124.559C49.7305 124.559 51.1016 125.062 52.1797 126.07C53.2812 127.078 53.832 128.391 53.832 130.008C53.832 131.602 53.293 132.902 52.2148 133.91C51.1367 134.895 49.7539 135.387 48.0664 135.387C46.4023 135.387 45.0312 134.895 43.9531 133.91C42.875 132.902 42.3359 131.602 42.3359 130.008ZM63.2891 130.008C63.2891 128.391 63.8281 127.078 64.9062 126.07C66.0078 125.062 67.3789 124.559 69.0195 124.559C70.6836 124.559 72.0547 125.062 73.1328 126.07C74.2344 127.078 74.7852 128.391 74.7852 130.008C74.7852 131.602 74.2461 132.902 73.168 133.91C72.0898 134.895 70.707 135.387 69.0195 135.387C67.3555 135.387 65.9844 134.895 64.9062 133.91C63.8281 132.902 63.2891 131.602 63.2891 130.008ZM84.2422 130.008C84.2422 128.391 84.7812 127.078 85.8594 126.07C86.9609 125.062 88.332 124.559 89.9727 124.559C91.6367 124.559 93.0078 125.062 94.0859 126.07C95.1875 127.078 95.7383 128.391 95.7383 130.008C95.7383 131.602 95.1992 132.902 94.1211 133.91C93.043 134.895 91.6602 135.387 89.9727 135.387C88.3086 135.387 86.9375 134.895 85.8594 133.91C84.7812 132.902 84.2422 131.602 84.2422 130.008ZM105.195 130.008C105.195 128.391 105.734 127.078 106.812 126.07C107.914 125.062 109.285 124.559 110.926 124.559C112.59 124.559 113.961 125.062 115.039 126.07C116.141 127.078 116.691 128.391 116.691 130.008C116.691 131.602 116.152 132.902 115.074 133.91C113.996 134.895 112.613 135.387 110.926 135.387C109.262 135.387 107.891 134.895 106.812 133.91C105.734 132.902 105.195 131.602 105.195 130.008ZM126.148 130.008C126.148 128.391 126.688 127.078 127.766 126.07C128.867 125.062 130.238 124.559 131.879 124.559C133.543 124.559 134.914 125.062 135.992 126.07C137.094 127.078 137.645 128.391 137.645 130.008C137.645 131.602 137.105 132.902 136.027 133.91C134.949 134.895 133.566 135.387 131.879 135.387C130.215 135.387 128.844 134.895 127.766 133.91C126.688 132.902 126.148 131.602 126.148 130.008ZM147.102 130.008C147.102 128.391 147.641 127.078 148.719 126.07C149.82 125.062 151.191 124.559 152.832 124.559C154.496 124.559 155.867 125.062 156.945 126.07C158.047 127.078 158.598 128.391 158.598 130.008C158.598 131.602 158.059 132.902 156.98 133.91C155.902 134.895 154.52 135.387 152.832 135.387C151.168 135.387 149.797 134.895 148.719 133.91C147.641 132.902 147.102 131.602 147.102 130.008ZM168.055 130.008C168.055 128.391 168.594 127.078 169.672 126.07C170.773 125.062 172.145 124.559 173.785 124.559C175.449 124.559 176.82 125.062 177.898 126.07C179 127.078 179.551 128.391 179.551 130.008C179.551 131.602 179.012 132.902 177.934 133.91C176.855 134.895 175.473 135.387 173.785 135.387C172.121 135.387 170.75 134.895 169.672 133.91C168.594 132.902 168.055 131.602 168.055 130.008ZM189.008 130.008C189.008 128.391 189.547 127.078 190.625 126.07C191.727 125.062 193.098 124.559 194.738 124.559C196.402 124.559 197.773 125.062 198.852 126.07C199.953 127.078 200.504 128.391 200.504 130.008C200.504 131.602 199.965 132.902 198.887 133.91C197.809 134.895 196.426 135.387 194.738 135.387C193.074 135.387 191.703 134.895 190.625 133.91C189.547 132.902 189.008 131.602 189.008 130.008ZM209.961 130.008C209.961 128.391 210.5 127.078 211.578 126.07C212.68 125.062 214.051 124.559 215.691 124.559C217.355 124.559 218.727 125.062 219.805 126.07C220.906 127.078 221.457 128.391 221.457 130.008C221.457 131.602 220.918 132.902 219.84 133.91C218.762 134.895 217.379 135.387 215.691 135.387C214.027 135.387 212.656 134.895 211.578 133.91C210.5 132.902 209.961 131.602 209.961 130.008ZM230.914 130.008C230.914 128.391 231.453 127.078 232.531 126.07C233.633 125.062 235.004 124.559 236.645 124.559C238.309 124.559 239.68 125.062 240.758 126.07C241.859 127.078 242.41 128.391 242.41 130.008C242.41 131.602 241.871 132.902 240.793 133.91C239.715 134.895 238.332 135.387 236.645 135.387C234.98 135.387 233.609 134.895 232.531 133.91C231.453 132.902 230.914 131.602 230.914 130.008ZM251.867 130.008C251.867 128.391 252.406 127.078 253.484 126.07C254.586 125.062 255.957 124.559 257.598 124.559C259.262 124.559 260.633 125.062 261.711 126.07C262.812 127.078 263.363 128.391 263.363 130.008C263.363 131.602 262.824 132.902 261.746 133.91C260.668 134.895 259.285 135.387 257.598 135.387C255.934 135.387 254.562 134.895 253.484 133.91C252.406 132.902 251.867 131.602 251.867 130.008ZM272.82 130.008C272.82 128.391 273.359 127.078 274.438 126.07C275.539 125.062 276.91 124.559 278.551 124.559C280.215 124.559 281.586 125.062 282.664 126.07C283.766 127.078 284.316 128.391 284.316 130.008C284.316 131.602 283.777 132.902 282.699 133.91C281.621 134.895 280.238 135.387 278.551 135.387C276.887 135.387 275.516 134.895 274.438 133.91C273.359 132.902 272.82 131.602 272.82 130.008ZM293.773 130.008C293.773 128.391 294.312 127.078 295.391 126.07C296.492 125.062 297.863 124.559 299.504 124.559C301.168 124.559 302.539 125.062 303.617 126.07C304.719 127.078 305.27 128.391 305.27 130.008C305.27 131.602 304.73 132.902 303.652 133.91C302.574 134.895 301.191 135.387 299.504 135.387C297.84 135.387 296.469 134.895 295.391 133.91C294.312 132.902 293.773 131.602 293.773 130.008ZM314.727 130.008C314.727 128.391 315.266 127.078 316.344 126.07C317.445 125.062 318.816 124.559 320.457 124.559C322.121 124.559 323.492 125.062 324.57 126.07C325.672 127.078 326.223 128.391 326.223 130.008C326.223 131.602 325.684 132.902 324.605 133.91C323.527 134.895 322.145 135.387 320.457 135.387C318.793 135.387 317.422 134.895 316.344 133.91C315.266 132.902 314.727 131.602 314.727 130.008ZM335.68 130.008C335.68 128.391 336.219 127.078 337.297 126.07C338.398 125.062 339.77 124.559 341.41 124.559C343.074 124.559 344.445 125.062 345.523 126.07C346.625 127.078 347.176 128.391 347.176 130.008C347.176 131.602 346.637 132.902 345.559 133.91C344.48 134.895 343.098 135.387 341.41 135.387C339.746 135.387 338.375 134.895 337.297 133.91C336.219 132.902 335.68 131.602 335.68 130.008ZM356.633 130.008C356.633 128.391 357.172 127.078 358.25 126.07C359.352 125.062 360.723 124.559 362.363 124.559C364.027 124.559 365.398 125.062 366.477 126.07C367.578 127.078 368.129 128.391 368.129 130.008C368.129 131.602 367.59 132.902 366.512 133.91C365.434 134.895 364.051 135.387 362.363 135.387C360.699 135.387 359.328 134.895 358.25 133.91C357.172 132.902 356.633 131.602 356.633 130.008ZM377.586 130.008C377.586 128.391 378.125 127.078 379.203 126.07C380.305 125.062 381.676 124.559 383.316 124.559C384.98 124.559 386.352 125.062 387.43 126.07C388.531 127.078 389.082 128.391 389.082 130.008C389.082 131.602 388.543 132.902 387.465 133.91C386.387 134.895 385.004 135.387 383.316 135.387C381.652 135.387 380.281 134.895 379.203 133.91C378.125 132.902 377.586 131.602 377.586 130.008ZM0.429688 161.008C0.429688 159.391 0.96875 158.078 2.04688 157.07C3.14844 156.062 4.51953 155.559 6.16016 155.559C7.82422 155.559 9.19531 156.062 10.2734 157.07C11.375 158.078 11.9258 159.391 11.9258 161.008C11.9258 162.602 11.3867 163.902 10.3086 164.91C9.23047 165.895 7.84766 166.387 6.16016 166.387C4.49609 166.387 3.125 165.895 2.04688 164.91C0.96875 163.902 0.429688 162.602 0.429688 161.008ZM21.3828 161.008C21.3828 159.391 21.9219 158.078 23 157.07C24.1016 156.062 25.4727 155.559 27.1133 155.559C28.7773 155.559 30.1484 156.062 31.2266 157.07C32.3281 158.078 32.8789 159.391 32.8789 161.008C32.8789 162.602 32.3398 163.902 31.2617 164.91C30.1836 165.895 28.8008 166.387 27.1133 166.387C25.4492 166.387 24.0781 165.895 23 164.91C21.9219 163.902 21.3828 162.602 21.3828 161.008ZM42.3359 161.008C42.3359 159.391 42.875 158.078 43.9531 157.07C45.0547 156.062 46.4258 155.559 48.0664 155.559C49.7305 155.559 51.1016 156.062 52.1797 157.07C53.2812 158.078 53.832 159.391 53.832 161.008C53.832 162.602 53.293 163.902 52.2148 164.91C51.1367 165.895 49.7539 166.387 48.0664 166.387C46.4023 166.387 45.0312 165.895 43.9531 164.91C42.875 163.902 42.3359 162.602 42.3359 161.008ZM63.2891 161.008C63.2891 159.391 63.8281 158.078 64.9062 157.07C66.0078 156.062 67.3789 155.559 69.0195 155.559C70.6836 155.559 72.0547 156.062 73.1328 157.07C74.2344 158.078 74.7852 159.391 74.7852 161.008C74.7852 162.602 74.2461 163.902 73.168 164.91C72.0898 165.895 70.707 166.387 69.0195 166.387C67.3555 166.387 65.9844 165.895 64.9062 164.91C63.8281 163.902 63.2891 162.602 63.2891 161.008ZM84.2422 161.008C84.2422 159.391 84.7812 158.078 85.8594 157.07C86.9609 156.062 88.332 155.559 89.9727 155.559C91.6367 155.559 93.0078 156.062 94.0859 157.07C95.1875 158.078 95.7383 159.391 95.7383 161.008C95.7383 162.602 95.1992 163.902 94.1211 164.91C93.043 165.895 91.6602 166.387 89.9727 166.387C88.3086 166.387 86.9375 165.895 85.8594 164.91C84.7812 163.902 84.2422 162.602 84.2422 161.008ZM105.195 161.008C105.195 159.391 105.734 158.078 106.812 157.07C107.914 156.062 109.285 155.559 110.926 155.559C112.59 155.559 113.961 156.062 115.039 157.07C116.141 158.078 116.691 159.391 116.691 161.008C116.691 162.602 116.152 163.902 115.074 164.91C113.996 165.895 112.613 166.387 110.926 166.387C109.262 166.387 107.891 165.895 106.812 164.91C105.734 163.902 105.195 162.602 105.195 161.008ZM126.148 161.008C126.148 159.391 126.688 158.078 127.766 157.07C128.867 156.062 130.238 155.559 131.879 155.559C133.543 155.559 134.914 156.062 135.992 157.07C137.094 158.078 137.645 159.391 137.645 161.008C137.645 162.602 137.105 163.902 136.027 164.91C134.949 165.895 133.566 166.387 131.879 166.387C130.215 166.387 128.844 165.895 127.766 164.91C126.688 163.902 126.148 162.602 126.148 161.008ZM147.102 161.008C147.102 159.391 147.641 158.078 148.719 157.07C149.82 156.062 151.191 155.559 152.832 155.559C154.496 155.559 155.867 156.062 156.945 157.07C158.047 158.078 158.598 159.391 158.598 161.008C158.598 162.602 158.059 163.902 156.98 164.91C155.902 165.895 154.52 166.387 152.832 166.387C151.168 166.387 149.797 165.895 148.719 164.91C147.641 163.902 147.102 162.602 147.102 161.008ZM168.055 161.008C168.055 159.391 168.594 158.078 169.672 157.07C170.773 156.062 172.145 155.559 173.785 155.559C175.449 155.559 176.82 156.062 177.898 157.07C179 158.078 179.551 159.391 179.551 161.008C179.551 162.602 179.012 163.902 177.934 164.91C176.855 165.895 175.473 166.387 173.785 166.387C172.121 166.387 170.75 165.895 169.672 164.91C168.594 163.902 168.055 162.602 168.055 161.008ZM189.008 161.008C189.008 159.391 189.547 158.078 190.625 157.07C191.727 156.062 193.098 155.559 194.738 155.559C196.402 155.559 197.773 156.062 198.852 157.07C199.953 158.078 200.504 159.391 200.504 161.008C200.504 162.602 199.965 163.902 198.887 164.91C197.809 165.895 196.426 166.387 194.738 166.387C193.074 166.387 191.703 165.895 190.625 164.91C189.547 163.902 189.008 162.602 189.008 161.008ZM209.961 161.008C209.961 159.391 210.5 158.078 211.578 157.07C212.68 156.062 214.051 155.559 215.691 155.559C217.355 155.559 218.727 156.062 219.805 157.07C220.906 158.078 221.457 159.391 221.457 161.008C221.457 162.602 220.918 163.902 219.84 164.91C218.762 165.895 217.379 166.387 215.691 166.387C214.027 166.387 212.656 165.895 211.578 164.91C210.5 163.902 209.961 162.602 209.961 161.008ZM230.914 161.008C230.914 159.391 231.453 158.078 232.531 157.07C233.633 156.062 235.004 155.559 236.645 155.559C238.309 155.559 239.68 156.062 240.758 157.07C241.859 158.078 242.41 159.391 242.41 161.008C242.41 162.602 241.871 163.902 240.793 164.91C239.715 165.895 238.332 166.387 236.645 166.387C234.98 166.387 233.609 165.895 232.531 164.91C231.453 163.902 230.914 162.602 230.914 161.008ZM251.867 161.008C251.867 159.391 252.406 158.078 253.484 157.07C254.586 156.062 255.957 155.559 257.598 155.559C259.262 155.559 260.633 156.062 261.711 157.07C262.812 158.078 263.363 159.391 263.363 161.008C263.363 162.602 262.824 163.902 261.746 164.91C260.668 165.895 259.285 166.387 257.598 166.387C255.934 166.387 254.562 165.895 253.484 164.91C252.406 163.902 251.867 162.602 251.867 161.008ZM272.82 161.008C272.82 159.391 273.359 158.078 274.438 157.07C275.539 156.062 276.91 155.559 278.551 155.559C280.215 155.559 281.586 156.062 282.664 157.07C283.766 158.078 284.316 159.391 284.316 161.008C284.316 162.602 283.777 163.902 282.699 164.91C281.621 165.895 280.238 166.387 278.551 166.387C276.887 166.387 275.516 165.895 274.438 164.91C273.359 163.902 272.82 162.602 272.82 161.008ZM293.773 161.008C293.773 159.391 294.312 158.078 295.391 157.07C296.492 156.062 297.863 155.559 299.504 155.559C301.168 155.559 302.539 156.062 303.617 157.07C304.719 158.078 305.27 159.391 305.27 161.008C305.27 162.602 304.73 163.902 303.652 164.91C302.574 165.895 301.191 166.387 299.504 166.387C297.84 166.387 296.469 165.895 295.391 164.91C294.312 163.902 293.773 162.602 293.773 161.008ZM314.727 161.008C314.727 159.391 315.266 158.078 316.344 157.07C317.445 156.062 318.816 155.559 320.457 155.559C322.121 155.559 323.492 156.062 324.57 157.07C325.672 158.078 326.223 159.391 326.223 161.008C326.223 162.602 325.684 163.902 324.605 164.91C323.527 165.895 322.145 166.387 320.457 166.387C318.793 166.387 317.422 165.895 316.344 164.91C315.266 163.902 314.727 162.602 314.727 161.008ZM335.68 161.008C335.68 159.391 336.219 158.078 337.297 157.07C338.398 156.062 339.77 155.559 341.41 155.559C343.074 155.559 344.445 156.062 345.523 157.07C346.625 158.078 347.176 159.391 347.176 161.008C347.176 162.602 346.637 163.902 345.559 164.91C344.48 165.895 343.098 166.387 341.41 166.387C339.746 166.387 338.375 165.895 337.297 164.91C336.219 163.902 335.68 162.602 335.68 161.008ZM356.633 161.008C356.633 159.391 357.172 158.078 358.25 157.07C359.352 156.062 360.723 155.559 362.363 155.559C364.027 155.559 365.398 156.062 366.477 157.07C367.578 158.078 368.129 159.391 368.129 161.008C368.129 162.602 367.59 163.902 366.512 164.91C365.434 165.895 364.051 166.387 362.363 166.387C360.699 166.387 359.328 165.895 358.25 164.91C357.172 163.902 356.633 162.602 356.633 161.008ZM377.586 161.008C377.586 159.391 378.125 158.078 379.203 157.07C380.305 156.062 381.676 155.559 383.316 155.559C384.98 155.559 386.352 156.062 387.43 157.07C388.531 158.078 389.082 159.391 389.082 161.008C389.082 162.602 388.543 163.902 387.465 164.91C386.387 165.895 385.004 166.387 383.316 166.387C381.652 166.387 380.281 165.895 379.203 164.91C378.125 163.902 377.586 162.602 377.586 161.008ZM0.429688 192.008C0.429688 190.391 0.96875 189.078 2.04688 188.07C3.14844 187.062 4.51953 186.559 6.16016 186.559C7.82422 186.559 9.19531 187.062 10.2734 188.07C11.375 189.078 11.9258 190.391 11.9258 192.008C11.9258 193.602 11.3867 194.902 10.3086 195.91C9.23047 196.895 7.84766 197.387 6.16016 197.387C4.49609 197.387 3.125 196.895 2.04688 195.91C0.96875 194.902 0.429688 193.602 0.429688 192.008ZM21.3828 192.008C21.3828 190.391 21.9219 189.078 23 188.07C24.1016 187.062 25.4727 186.559 27.1133 186.559C28.7773 186.559 30.1484 187.062 31.2266 188.07C32.3281 189.078 32.8789 190.391 32.8789 192.008C32.8789 193.602 32.3398 194.902 31.2617 195.91C30.1836 196.895 28.8008 197.387 27.1133 197.387C25.4492 197.387 24.0781 196.895 23 195.91C21.9219 194.902 21.3828 193.602 21.3828 192.008ZM42.3359 192.008C42.3359 190.391 42.875 189.078 43.9531 188.07C45.0547 187.062 46.4258 186.559 48.0664 186.559C49.7305 186.559 51.1016 187.062 52.1797 188.07C53.2812 189.078 53.832 190.391 53.832 192.008C53.832 193.602 53.293 194.902 52.2148 195.91C51.1367 196.895 49.7539 197.387 48.0664 197.387C46.4023 197.387 45.0312 196.895 43.9531 195.91C42.875 194.902 42.3359 193.602 42.3359 192.008ZM63.2891 192.008C63.2891 190.391 63.8281 189.078 64.9062 188.07C66.0078 187.062 67.3789 186.559 69.0195 186.559C70.6836 186.559 72.0547 187.062 73.1328 188.07C74.2344 189.078 74.7852 190.391 74.7852 192.008C74.7852 193.602 74.2461 194.902 73.168 195.91C72.0898 196.895 70.707 197.387 69.0195 197.387C67.3555 197.387 65.9844 196.895 64.9062 195.91C63.8281 194.902 63.2891 193.602 63.2891 192.008ZM84.2422 192.008C84.2422 190.391 84.7812 189.078 85.8594 188.07C86.9609 187.062 88.332 186.559 89.9727 186.559C91.6367 186.559 93.0078 187.062 94.0859 188.07C95.1875 189.078 95.7383 190.391 95.7383 192.008C95.7383 193.602 95.1992 194.902 94.1211 195.91C93.043 196.895 91.6602 197.387 89.9727 197.387C88.3086 197.387 86.9375 196.895 85.8594 195.91C84.7812 194.902 84.2422 193.602 84.2422 192.008ZM105.195 192.008C105.195 190.391 105.734 189.078 106.812 188.07C107.914 187.062 109.285 186.559 110.926 186.559C112.59 186.559 113.961 187.062 115.039 188.07C116.141 189.078 116.691 190.391 116.691 192.008C116.691 193.602 116.152 194.902 115.074 195.91C113.996 196.895 112.613 197.387 110.926 197.387C109.262 197.387 107.891 196.895 106.812 195.91C105.734 194.902 105.195 193.602 105.195 192.008ZM126.148 192.008C126.148 190.391 126.688 189.078 127.766 188.07C128.867 187.062 130.238 186.559 131.879 186.559C133.543 186.559 134.914 187.062 135.992 188.07C137.094 189.078 137.645 190.391 137.645 192.008C137.645 193.602 137.105 194.902 136.027 195.91C134.949 196.895 133.566 197.387 131.879 197.387C130.215 197.387 128.844 196.895 127.766 195.91C126.688 194.902 126.148 193.602 126.148 192.008ZM147.102 192.008C147.102 190.391 147.641 189.078 148.719 188.07C149.82 187.062 151.191 186.559 152.832 186.559C154.496 186.559 155.867 187.062 156.945 188.07C158.047 189.078 158.598 190.391 158.598 192.008C158.598 193.602 158.059 194.902 156.98 195.91C155.902 196.895 154.52 197.387 152.832 197.387C151.168 197.387 149.797 196.895 148.719 195.91C147.641 194.902 147.102 193.602 147.102 192.008ZM168.055 192.008C168.055 190.391 168.594 189.078 169.672 188.07C170.773 187.062 172.145 186.559 173.785 186.559C175.449 186.559 176.82 187.062 177.898 188.07C179 189.078 179.551 190.391 179.551 192.008C179.551 193.602 179.012 194.902 177.934 195.91C176.855 196.895 175.473 197.387 173.785 197.387C172.121 197.387 170.75 196.895 169.672 195.91C168.594 194.902 168.055 193.602 168.055 192.008ZM189.008 192.008C189.008 190.391 189.547 189.078 190.625 188.07C191.727 187.062 193.098 186.559 194.738 186.559C196.402 186.559 197.773 187.062 198.852 188.07C199.953 189.078 200.504 190.391 200.504 192.008C200.504 193.602 199.965 194.902 198.887 195.91C197.809 196.895 196.426 197.387 194.738 197.387C193.074 197.387 191.703 196.895 190.625 195.91C189.547 194.902 189.008 193.602 189.008 192.008ZM209.961 192.008C209.961 190.391 210.5 189.078 211.578 188.07C212.68 187.062 214.051 186.559 215.691 186.559C217.355 186.559 218.727 187.062 219.805 188.07C220.906 189.078 221.457 190.391 221.457 192.008C221.457 193.602 220.918 194.902 219.84 195.91C218.762 196.895 217.379 197.387 215.691 197.387C214.027 197.387 212.656 196.895 211.578 195.91C210.5 194.902 209.961 193.602 209.961 192.008ZM230.914 192.008C230.914 190.391 231.453 189.078 232.531 188.07C233.633 187.062 235.004 186.559 236.645 186.559C238.309 186.559 239.68 187.062 240.758 188.07C241.859 189.078 242.41 190.391 242.41 192.008C242.41 193.602 241.871 194.902 240.793 195.91C239.715 196.895 238.332 197.387 236.645 197.387C234.98 197.387 233.609 196.895 232.531 195.91C231.453 194.902 230.914 193.602 230.914 192.008ZM251.867 192.008C251.867 190.391 252.406 189.078 253.484 188.07C254.586 187.062 255.957 186.559 257.598 186.559C259.262 186.559 260.633 187.062 261.711 188.07C262.812 189.078 263.363 190.391 263.363 192.008C263.363 193.602 262.824 194.902 261.746 195.91C260.668 196.895 259.285 197.387 257.598 197.387C255.934 197.387 254.562 196.895 253.484 195.91C252.406 194.902 251.867 193.602 251.867 192.008ZM272.82 192.008C272.82 190.391 273.359 189.078 274.438 188.07C275.539 187.062 276.91 186.559 278.551 186.559C280.215 186.559 281.586 187.062 282.664 188.07C283.766 189.078 284.316 190.391 284.316 192.008C284.316 193.602 283.777 194.902 282.699 195.91C281.621 196.895 280.238 197.387 278.551 197.387C276.887 197.387 275.516 196.895 274.438 195.91C273.359 194.902 272.82 193.602 272.82 192.008ZM293.773 192.008C293.773 190.391 294.312 189.078 295.391 188.07C296.492 187.062 297.863 186.559 299.504 186.559C301.168 186.559 302.539 187.062 303.617 188.07C304.719 189.078 305.27 190.391 305.27 192.008C305.27 193.602 304.73 194.902 303.652 195.91C302.574 196.895 301.191 197.387 299.504 197.387C297.84 197.387 296.469 196.895 295.391 195.91C294.312 194.902 293.773 193.602 293.773 192.008ZM314.727 192.008C314.727 190.391 315.266 189.078 316.344 188.07C317.445 187.062 318.816 186.559 320.457 186.559C322.121 186.559 323.492 187.062 324.57 188.07C325.672 189.078 326.223 190.391 326.223 192.008C326.223 193.602 325.684 194.902 324.605 195.91C323.527 196.895 322.145 197.387 320.457 197.387C318.793 197.387 317.422 196.895 316.344 195.91C315.266 194.902 314.727 193.602 314.727 192.008ZM335.68 192.008C335.68 190.391 336.219 189.078 337.297 188.07C338.398 187.062 339.77 186.559 341.41 186.559C343.074 186.559 344.445 187.062 345.523 188.07C346.625 189.078 347.176 190.391 347.176 192.008C347.176 193.602 346.637 194.902 345.559 195.91C344.48 196.895 343.098 197.387 341.41 197.387C339.746 197.387 338.375 196.895 337.297 195.91C336.219 194.902 335.68 193.602 335.68 192.008ZM356.633 192.008C356.633 190.391 357.172 189.078 358.25 188.07C359.352 187.062 360.723 186.559 362.363 186.559C364.027 186.559 365.398 187.062 366.477 188.07C367.578 189.078 368.129 190.391 368.129 192.008C368.129 193.602 367.59 194.902 366.512 195.91C365.434 196.895 364.051 197.387 362.363 197.387C360.699 197.387 359.328 196.895 358.25 195.91C357.172 194.902 356.633 193.602 356.633 192.008ZM377.586 192.008C377.586 190.391 378.125 189.078 379.203 188.07C380.305 187.062 381.676 186.559 383.316 186.559C384.98 186.559 386.352 187.062 387.43 188.07C388.531 189.078 389.082 190.391 389.082 192.008C389.082 193.602 388.543 194.902 387.465 195.91C386.387 196.895 385.004 197.387 383.316 197.387C381.652 197.387 380.281 196.895 379.203 195.91C378.125 194.902 377.586 193.602 377.586 192.008ZM0.429688 223.008C0.429688 221.391 0.96875 220.078 2.04688 219.07C3.14844 218.062 4.51953 217.559 6.16016 217.559C7.82422 217.559 9.19531 218.062 10.2734 219.07C11.375 220.078 11.9258 221.391 11.9258 223.008C11.9258 224.602 11.3867 225.902 10.3086 226.91C9.23047 227.895 7.84766 228.387 6.16016 228.387C4.49609 228.387 3.125 227.895 2.04688 226.91C0.96875 225.902 0.429688 224.602 0.429688 223.008ZM21.3828 223.008C21.3828 221.391 21.9219 220.078 23 219.07C24.1016 218.062 25.4727 217.559 27.1133 217.559C28.7773 217.559 30.1484 218.062 31.2266 219.07C32.3281 220.078 32.8789 221.391 32.8789 223.008C32.8789 224.602 32.3398 225.902 31.2617 226.91C30.1836 227.895 28.8008 228.387 27.1133 228.387C25.4492 228.387 24.0781 227.895 23 226.91C21.9219 225.902 21.3828 224.602 21.3828 223.008ZM42.3359 223.008C42.3359 221.391 42.875 220.078 43.9531 219.07C45.0547 218.062 46.4258 217.559 48.0664 217.559C49.7305 217.559 51.1016 218.062 52.1797 219.07C53.2812 220.078 53.832 221.391 53.832 223.008C53.832 224.602 53.293 225.902 52.2148 226.91C51.1367 227.895 49.7539 228.387 48.0664 228.387C46.4023 228.387 45.0312 227.895 43.9531 226.91C42.875 225.902 42.3359 224.602 42.3359 223.008ZM63.2891 223.008C63.2891 221.391 63.8281 220.078 64.9062 219.07C66.0078 218.062 67.3789 217.559 69.0195 217.559C70.6836 217.559 72.0547 218.062 73.1328 219.07C74.2344 220.078 74.7852 221.391 74.7852 223.008C74.7852 224.602 74.2461 225.902 73.168 226.91C72.0898 227.895 70.707 228.387 69.0195 228.387C67.3555 228.387 65.9844 227.895 64.9062 226.91C63.8281 225.902 63.2891 224.602 63.2891 223.008ZM84.2422 223.008C84.2422 221.391 84.7812 220.078 85.8594 219.07C86.9609 218.062 88.332 217.559 89.9727 217.559C91.6367 217.559 93.0078 218.062 94.0859 219.07C95.1875 220.078 95.7383 221.391 95.7383 223.008C95.7383 224.602 95.1992 225.902 94.1211 226.91C93.043 227.895 91.6602 228.387 89.9727 228.387C88.3086 228.387 86.9375 227.895 85.8594 226.91C84.7812 225.902 84.2422 224.602 84.2422 223.008ZM105.195 223.008C105.195 221.391 105.734 220.078 106.812 219.07C107.914 218.062 109.285 217.559 110.926 217.559C112.59 217.559 113.961 218.062 115.039 219.07C116.141 220.078 116.691 221.391 116.691 223.008C116.691 224.602 116.152 225.902 115.074 226.91C113.996 227.895 112.613 228.387 110.926 228.387C109.262 228.387 107.891 227.895 106.812 226.91C105.734 225.902 105.195 224.602 105.195 223.008ZM126.148 223.008C126.148 221.391 126.688 220.078 127.766 219.07C128.867 218.062 130.238 217.559 131.879 217.559C133.543 217.559 134.914 218.062 135.992 219.07C137.094 220.078 137.645 221.391 137.645 223.008C137.645 224.602 137.105 225.902 136.027 226.91C134.949 227.895 133.566 228.387 131.879 228.387C130.215 228.387 128.844 227.895 127.766 226.91C126.688 225.902 126.148 224.602 126.148 223.008ZM147.102 223.008C147.102 221.391 147.641 220.078 148.719 219.07C149.82 218.062 151.191 217.559 152.832 217.559C154.496 217.559 155.867 218.062 156.945 219.07C158.047 220.078 158.598 221.391 158.598 223.008C158.598 224.602 158.059 225.902 156.98 226.91C155.902 227.895 154.52 228.387 152.832 228.387C151.168 228.387 149.797 227.895 148.719 226.91C147.641 225.902 147.102 224.602 147.102 223.008ZM168.055 223.008C168.055 221.391 168.594 220.078 169.672 219.07C170.773 218.062 172.145 217.559 173.785 217.559C175.449 217.559 176.82 218.062 177.898 219.07C179 220.078 179.551 221.391 179.551 223.008C179.551 224.602 179.012 225.902 177.934 226.91C176.855 227.895 175.473 228.387 173.785 228.387C172.121 228.387 170.75 227.895 169.672 226.91C168.594 225.902 168.055 224.602 168.055 223.008ZM189.008 223.008C189.008 221.391 189.547 220.078 190.625 219.07C191.727 218.062 193.098 217.559 194.738 217.559C196.402 217.559 197.773 218.062 198.852 219.07C199.953 220.078 200.504 221.391 200.504 223.008C200.504 224.602 199.965 225.902 198.887 226.91C197.809 227.895 196.426 228.387 194.738 228.387C193.074 228.387 191.703 227.895 190.625 226.91C189.547 225.902 189.008 224.602 189.008 223.008ZM209.961 223.008C209.961 221.391 210.5 220.078 211.578 219.07C212.68 218.062 214.051 217.559 215.691 217.559C217.355 217.559 218.727 218.062 219.805 219.07C220.906 220.078 221.457 221.391 221.457 223.008C221.457 224.602 220.918 225.902 219.84 226.91C218.762 227.895 217.379 228.387 215.691 228.387C214.027 228.387 212.656 227.895 211.578 226.91C210.5 225.902 209.961 224.602 209.961 223.008ZM230.914 223.008C230.914 221.391 231.453 220.078 232.531 219.07C233.633 218.062 235.004 217.559 236.645 217.559C238.309 217.559 239.68 218.062 240.758 219.07C241.859 220.078 242.41 221.391 242.41 223.008C242.41 224.602 241.871 225.902 240.793 226.91C239.715 227.895 238.332 228.387 236.645 228.387C234.98 228.387 233.609 227.895 232.531 226.91C231.453 225.902 230.914 224.602 230.914 223.008ZM251.867 223.008C251.867 221.391 252.406 220.078 253.484 219.07C254.586 218.062 255.957 217.559 257.598 217.559C259.262 217.559 260.633 218.062 261.711 219.07C262.812 220.078 263.363 221.391 263.363 223.008C263.363 224.602 262.824 225.902 261.746 226.91C260.668 227.895 259.285 228.387 257.598 228.387C255.934 228.387 254.562 227.895 253.484 226.91C252.406 225.902 251.867 224.602 251.867 223.008ZM272.82 223.008C272.82 221.391 273.359 220.078 274.438 219.07C275.539 218.062 276.91 217.559 278.551 217.559C280.215 217.559 281.586 218.062 282.664 219.07C283.766 220.078 284.316 221.391 284.316 223.008C284.316 224.602 283.777 225.902 282.699 226.91C281.621 227.895 280.238 228.387 278.551 228.387C276.887 228.387 275.516 227.895 274.438 226.91C273.359 225.902 272.82 224.602 272.82 223.008ZM293.773 223.008C293.773 221.391 294.312 220.078 295.391 219.07C296.492 218.062 297.863 217.559 299.504 217.559C301.168 217.559 302.539 218.062 303.617 219.07C304.719 220.078 305.27 221.391 305.27 223.008C305.27 224.602 304.73 225.902 303.652 226.91C302.574 227.895 301.191 228.387 299.504 228.387C297.84 228.387 296.469 227.895 295.391 226.91C294.312 225.902 293.773 224.602 293.773 223.008ZM314.727 223.008C314.727 221.391 315.266 220.078 316.344 219.07C317.445 218.062 318.816 217.559 320.457 217.559C322.121 217.559 323.492 218.062 324.57 219.07C325.672 220.078 326.223 221.391 326.223 223.008C326.223 224.602 325.684 225.902 324.605 226.91C323.527 227.895 322.145 228.387 320.457 228.387C318.793 228.387 317.422 227.895 316.344 226.91C315.266 225.902 314.727 224.602 314.727 223.008ZM335.68 223.008C335.68 221.391 336.219 220.078 337.297 219.07C338.398 218.062 339.77 217.559 341.41 217.559C343.074 217.559 344.445 218.062 345.523 219.07C346.625 220.078 347.176 221.391 347.176 223.008C347.176 224.602 346.637 225.902 345.559 226.91C344.48 227.895 343.098 228.387 341.41 228.387C339.746 228.387 338.375 227.895 337.297 226.91C336.219 225.902 335.68 224.602 335.68 223.008ZM356.633 223.008C356.633 221.391 357.172 220.078 358.25 219.07C359.352 218.062 360.723 217.559 362.363 217.559C364.027 217.559 365.398 218.062 366.477 219.07C367.578 220.078 368.129 221.391 368.129 223.008C368.129 224.602 367.59 225.902 366.512 226.91C365.434 227.895 364.051 228.387 362.363 228.387C360.699 228.387 359.328 227.895 358.25 226.91C357.172 225.902 356.633 224.602 356.633 223.008ZM377.586 223.008C377.586 221.391 378.125 220.078 379.203 219.07C380.305 218.062 381.676 217.559 383.316 217.559C384.98 217.559 386.352 218.062 387.43 219.07C388.531 220.078 389.082 221.391 389.082 223.008C389.082 224.602 388.543 225.902 387.465 226.91C386.387 227.895 385.004 228.387 383.316 228.387C381.652 228.387 380.281 227.895 379.203 226.91C378.125 225.902 377.586 224.602 377.586 223.008ZM0.429688 254.008C0.429688 252.391 0.96875 251.078 2.04688 250.07C3.14844 249.062 4.51953 248.559 6.16016 248.559C7.82422 248.559 9.19531 249.062 10.2734 250.07C11.375 251.078 11.9258 252.391 11.9258 254.008C11.9258 255.602 11.3867 256.902 10.3086 257.91C9.23047 258.895 7.84766 259.387 6.16016 259.387C4.49609 259.387 3.125 258.895 2.04688 257.91C0.96875 256.902 0.429688 255.602 0.429688 254.008ZM21.3828 254.008C21.3828 252.391 21.9219 251.078 23 250.07C24.1016 249.062 25.4727 248.559 27.1133 248.559C28.7773 248.559 30.1484 249.062 31.2266 250.07C32.3281 251.078 32.8789 252.391 32.8789 254.008C32.8789 255.602 32.3398 256.902 31.2617 257.91C30.1836 258.895 28.8008 259.387 27.1133 259.387C25.4492 259.387 24.0781 258.895 23 257.91C21.9219 256.902 21.3828 255.602 21.3828 254.008ZM42.3359 254.008C42.3359 252.391 42.875 251.078 43.9531 250.07C45.0547 249.062 46.4258 248.559 48.0664 248.559C49.7305 248.559 51.1016 249.062 52.1797 250.07C53.2812 251.078 53.832 252.391 53.832 254.008C53.832 255.602 53.293 256.902 52.2148 257.91C51.1367 258.895 49.7539 259.387 48.0664 259.387C46.4023 259.387 45.0312 258.895 43.9531 257.91C42.875 256.902 42.3359 255.602 42.3359 254.008ZM63.2891 254.008C63.2891 252.391 63.8281 251.078 64.9062 250.07C66.0078 249.062 67.3789 248.559 69.0195 248.559C70.6836 248.559 72.0547 249.062 73.1328 250.07C74.2344 251.078 74.7852 252.391 74.7852 254.008C74.7852 255.602 74.2461 256.902 73.168 257.91C72.0898 258.895 70.707 259.387 69.0195 259.387C67.3555 259.387 65.9844 258.895 64.9062 257.91C63.8281 256.902 63.2891 255.602 63.2891 254.008ZM84.2422 254.008C84.2422 252.391 84.7812 251.078 85.8594 250.07C86.9609 249.062 88.332 248.559 89.9727 248.559C91.6367 248.559 93.0078 249.062 94.0859 250.07C95.1875 251.078 95.7383 252.391 95.7383 254.008C95.7383 255.602 95.1992 256.902 94.1211 257.91C93.043 258.895 91.6602 259.387 89.9727 259.387C88.3086 259.387 86.9375 258.895 85.8594 257.91C84.7812 256.902 84.2422 255.602 84.2422 254.008ZM105.195 254.008C105.195 252.391 105.734 251.078 106.812 250.07C107.914 249.062 109.285 248.559 110.926 248.559C112.59 248.559 113.961 249.062 115.039 250.07C116.141 251.078 116.691 252.391 116.691 254.008C116.691 255.602 116.152 256.902 115.074 257.91C113.996 258.895 112.613 259.387 110.926 259.387C109.262 259.387 107.891 258.895 106.812 257.91C105.734 256.902 105.195 255.602 105.195 254.008ZM126.148 254.008C126.148 252.391 126.688 251.078 127.766 250.07C128.867 249.062 130.238 248.559 131.879 248.559C133.543 248.559 134.914 249.062 135.992 250.07C137.094 251.078 137.645 252.391 137.645 254.008C137.645 255.602 137.105 256.902 136.027 257.91C134.949 258.895 133.566 259.387 131.879 259.387C130.215 259.387 128.844 258.895 127.766 257.91C126.688 256.902 126.148 255.602 126.148 254.008ZM147.102 254.008C147.102 252.391 147.641 251.078 148.719 250.07C149.82 249.062 151.191 248.559 152.832 248.559C154.496 248.559 155.867 249.062 156.945 250.07C158.047 251.078 158.598 252.391 158.598 254.008C158.598 255.602 158.059 256.902 156.98 257.91C155.902 258.895 154.52 259.387 152.832 259.387C151.168 259.387 149.797 258.895 148.719 257.91C147.641 256.902 147.102 255.602 147.102 254.008ZM168.055 254.008C168.055 252.391 168.594 251.078 169.672 250.07C170.773 249.062 172.145 248.559 173.785 248.559C175.449 248.559 176.82 249.062 177.898 250.07C179 251.078 179.551 252.391 179.551 254.008C179.551 255.602 179.012 256.902 177.934 257.91C176.855 258.895 175.473 259.387 173.785 259.387C172.121 259.387 170.75 258.895 169.672 257.91C168.594 256.902 168.055 255.602 168.055 254.008ZM189.008 254.008C189.008 252.391 189.547 251.078 190.625 250.07C191.727 249.062 193.098 248.559 194.738 248.559C196.402 248.559 197.773 249.062 198.852 250.07C199.953 251.078 200.504 252.391 200.504 254.008C200.504 255.602 199.965 256.902 198.887 257.91C197.809 258.895 196.426 259.387 194.738 259.387C193.074 259.387 191.703 258.895 190.625 257.91C189.547 256.902 189.008 255.602 189.008 254.008ZM209.961 254.008C209.961 252.391 210.5 251.078 211.578 250.07C212.68 249.062 214.051 248.559 215.691 248.559C217.355 248.559 218.727 249.062 219.805 250.07C220.906 251.078 221.457 252.391 221.457 254.008C221.457 255.602 220.918 256.902 219.84 257.91C218.762 258.895 217.379 259.387 215.691 259.387C214.027 259.387 212.656 258.895 211.578 257.91C210.5 256.902 209.961 255.602 209.961 254.008ZM230.914 254.008C230.914 252.391 231.453 251.078 232.531 250.07C233.633 249.062 235.004 248.559 236.645 248.559C238.309 248.559 239.68 249.062 240.758 250.07C241.859 251.078 242.41 252.391 242.41 254.008C242.41 255.602 241.871 256.902 240.793 257.91C239.715 258.895 238.332 259.387 236.645 259.387C234.98 259.387 233.609 258.895 232.531 257.91C231.453 256.902 230.914 255.602 230.914 254.008ZM251.867 254.008C251.867 252.391 252.406 251.078 253.484 250.07C254.586 249.062 255.957 248.559 257.598 248.559C259.262 248.559 260.633 249.062 261.711 250.07C262.812 251.078 263.363 252.391 263.363 254.008C263.363 255.602 262.824 256.902 261.746 257.91C260.668 258.895 259.285 259.387 257.598 259.387C255.934 259.387 254.562 258.895 253.484 257.91C252.406 256.902 251.867 255.602 251.867 254.008ZM272.82 254.008C272.82 252.391 273.359 251.078 274.438 250.07C275.539 249.062 276.91 248.559 278.551 248.559C280.215 248.559 281.586 249.062 282.664 250.07C283.766 251.078 284.316 252.391 284.316 254.008C284.316 255.602 283.777 256.902 282.699 257.91C281.621 258.895 280.238 259.387 278.551 259.387C276.887 259.387 275.516 258.895 274.438 257.91C273.359 256.902 272.82 255.602 272.82 254.008ZM293.773 254.008C293.773 252.391 294.312 251.078 295.391 250.07C296.492 249.062 297.863 248.559 299.504 248.559C301.168 248.559 302.539 249.062 303.617 250.07C304.719 251.078 305.27 252.391 305.27 254.008C305.27 255.602 304.73 256.902 303.652 257.91C302.574 258.895 301.191 259.387 299.504 259.387C297.84 259.387 296.469 258.895 295.391 257.91C294.312 256.902 293.773 255.602 293.773 254.008ZM314.727 254.008C314.727 252.391 315.266 251.078 316.344 250.07C317.445 249.062 318.816 248.559 320.457 248.559C322.121 248.559 323.492 249.062 324.57 250.07C325.672 251.078 326.223 252.391 326.223 254.008C326.223 255.602 325.684 256.902 324.605 257.91C323.527 258.895 322.145 259.387 320.457 259.387C318.793 259.387 317.422 258.895 316.344 257.91C315.266 256.902 314.727 255.602 314.727 254.008ZM335.68 254.008C335.68 252.391 336.219 251.078 337.297 250.07C338.398 249.062 339.77 248.559 341.41 248.559C343.074 248.559 344.445 249.062 345.523 250.07C346.625 251.078 347.176 252.391 347.176 254.008C347.176 255.602 346.637 256.902 345.559 257.91C344.48 258.895 343.098 259.387 341.41 259.387C339.746 259.387 338.375 258.895 337.297 257.91C336.219 256.902 335.68 255.602 335.68 254.008ZM356.633 254.008C356.633 252.391 357.172 251.078 358.25 250.07C359.352 249.062 360.723 248.559 362.363 248.559C364.027 248.559 365.398 249.062 366.477 250.07C367.578 251.078 368.129 252.391 368.129 254.008C368.129 255.602 367.59 256.902 366.512 257.91C365.434 258.895 364.051 259.387 362.363 259.387C360.699 259.387 359.328 258.895 358.25 257.91C357.172 256.902 356.633 255.602 356.633 254.008ZM377.586 254.008C377.586 252.391 378.125 251.078 379.203 250.07C380.305 249.062 381.676 248.559 383.316 248.559C384.98 248.559 386.352 249.062 387.43 250.07C388.531 251.078 389.082 252.391 389.082 254.008C389.082 255.602 388.543 256.902 387.465 257.91C386.387 258.895 385.004 259.387 383.316 259.387C381.652 259.387 380.281 258.895 379.203 257.91C378.125 256.902 377.586 255.602 377.586 254.008ZM0.429688 285.008C0.429688 283.391 0.96875 282.078 2.04688 281.07C3.14844 280.062 4.51953 279.559 6.16016 279.559C7.82422 279.559 9.19531 280.062 10.2734 281.07C11.375 282.078 11.9258 283.391 11.9258 285.008C11.9258 286.602 11.3867 287.902 10.3086 288.91C9.23047 289.895 7.84766 290.387 6.16016 290.387C4.49609 290.387 3.125 289.895 2.04688 288.91C0.96875 287.902 0.429688 286.602 0.429688 285.008ZM21.3828 285.008C21.3828 283.391 21.9219 282.078 23 281.07C24.1016 280.062 25.4727 279.559 27.1133 279.559C28.7773 279.559 30.1484 280.062 31.2266 281.07C32.3281 282.078 32.8789 283.391 32.8789 285.008C32.8789 286.602 32.3398 287.902 31.2617 288.91C30.1836 289.895 28.8008 290.387 27.1133 290.387C25.4492 290.387 24.0781 289.895 23 288.91C21.9219 287.902 21.3828 286.602 21.3828 285.008ZM42.3359 285.008C42.3359 283.391 42.875 282.078 43.9531 281.07C45.0547 280.062 46.4258 279.559 48.0664 279.559C49.7305 279.559 51.1016 280.062 52.1797 281.07C53.2812 282.078 53.832 283.391 53.832 285.008C53.832 286.602 53.293 287.902 52.2148 288.91C51.1367 289.895 49.7539 290.387 48.0664 290.387C46.4023 290.387 45.0312 289.895 43.9531 288.91C42.875 287.902 42.3359 286.602 42.3359 285.008ZM63.2891 285.008C63.2891 283.391 63.8281 282.078 64.9062 281.07C66.0078 280.062 67.3789 279.559 69.0195 279.559C70.6836 279.559 72.0547 280.062 73.1328 281.07C74.2344 282.078 74.7852 283.391 74.7852 285.008C74.7852 286.602 74.2461 287.902 73.168 288.91C72.0898 289.895 70.707 290.387 69.0195 290.387C67.3555 290.387 65.9844 289.895 64.9062 288.91C63.8281 287.902 63.2891 286.602 63.2891 285.008ZM84.2422 285.008C84.2422 283.391 84.7812 282.078 85.8594 281.07C86.9609 280.062 88.332 279.559 89.9727 279.559C91.6367 279.559 93.0078 280.062 94.0859 281.07C95.1875 282.078 95.7383 283.391 95.7383 285.008C95.7383 286.602 95.1992 287.902 94.1211 288.91C93.043 289.895 91.6602 290.387 89.9727 290.387C88.3086 290.387 86.9375 289.895 85.8594 288.91C84.7812 287.902 84.2422 286.602 84.2422 285.008ZM105.195 285.008C105.195 283.391 105.734 282.078 106.812 281.07C107.914 280.062 109.285 279.559 110.926 279.559C112.59 279.559 113.961 280.062 115.039 281.07C116.141 282.078 116.691 283.391 116.691 285.008C116.691 286.602 116.152 287.902 115.074 288.91C113.996 289.895 112.613 290.387 110.926 290.387C109.262 290.387 107.891 289.895 106.812 288.91C105.734 287.902 105.195 286.602 105.195 285.008ZM126.148 285.008C126.148 283.391 126.688 282.078 127.766 281.07C128.867 280.062 130.238 279.559 131.879 279.559C133.543 279.559 134.914 280.062 135.992 281.07C137.094 282.078 137.645 283.391 137.645 285.008C137.645 286.602 137.105 287.902 136.027 288.91C134.949 289.895 133.566 290.387 131.879 290.387C130.215 290.387 128.844 289.895 127.766 288.91C126.688 287.902 126.148 286.602 126.148 285.008ZM147.102 285.008C147.102 283.391 147.641 282.078 148.719 281.07C149.82 280.062 151.191 279.559 152.832 279.559C154.496 279.559 155.867 280.062 156.945 281.07C158.047 282.078 158.598 283.391 158.598 285.008C158.598 286.602 158.059 287.902 156.98 288.91C155.902 289.895 154.52 290.387 152.832 290.387C151.168 290.387 149.797 289.895 148.719 288.91C147.641 287.902 147.102 286.602 147.102 285.008ZM168.055 285.008C168.055 283.391 168.594 282.078 169.672 281.07C170.773 280.062 172.145 279.559 173.785 279.559C175.449 279.559 176.82 280.062 177.898 281.07C179 282.078 179.551 283.391 179.551 285.008C179.551 286.602 179.012 287.902 177.934 288.91C176.855 289.895 175.473 290.387 173.785 290.387C172.121 290.387 170.75 289.895 169.672 288.91C168.594 287.902 168.055 286.602 168.055 285.008ZM189.008 285.008C189.008 283.391 189.547 282.078 190.625 281.07C191.727 280.062 193.098 279.559 194.738 279.559C196.402 279.559 197.773 280.062 198.852 281.07C199.953 282.078 200.504 283.391 200.504 285.008C200.504 286.602 199.965 287.902 198.887 288.91C197.809 289.895 196.426 290.387 194.738 290.387C193.074 290.387 191.703 289.895 190.625 288.91C189.547 287.902 189.008 286.602 189.008 285.008ZM209.961 285.008C209.961 283.391 210.5 282.078 211.578 281.07C212.68 280.062 214.051 279.559 215.691 279.559C217.355 279.559 218.727 280.062 219.805 281.07C220.906 282.078 221.457 283.391 221.457 285.008C221.457 286.602 220.918 287.902 219.84 288.91C218.762 289.895 217.379 290.387 215.691 290.387C214.027 290.387 212.656 289.895 211.578 288.91C210.5 287.902 209.961 286.602 209.961 285.008ZM230.914 285.008C230.914 283.391 231.453 282.078 232.531 281.07C233.633 280.062 235.004 279.559 236.645 279.559C238.309 279.559 239.68 280.062 240.758 281.07C241.859 282.078 242.41 283.391 242.41 285.008C242.41 286.602 241.871 287.902 240.793 288.91C239.715 289.895 238.332 290.387 236.645 290.387C234.98 290.387 233.609 289.895 232.531 288.91C231.453 287.902 230.914 286.602 230.914 285.008ZM251.867 285.008C251.867 283.391 252.406 282.078 253.484 281.07C254.586 280.062 255.957 279.559 257.598 279.559C259.262 279.559 260.633 280.062 261.711 281.07C262.812 282.078 263.363 283.391 263.363 285.008C263.363 286.602 262.824 287.902 261.746 288.91C260.668 289.895 259.285 290.387 257.598 290.387C255.934 290.387 254.562 289.895 253.484 288.91C252.406 287.902 251.867 286.602 251.867 285.008ZM272.82 285.008C272.82 283.391 273.359 282.078 274.438 281.07C275.539 280.062 276.91 279.559 278.551 279.559C280.215 279.559 281.586 280.062 282.664 281.07C283.766 282.078 284.316 283.391 284.316 285.008C284.316 286.602 283.777 287.902 282.699 288.91C281.621 289.895 280.238 290.387 278.551 290.387C276.887 290.387 275.516 289.895 274.438 288.91C273.359 287.902 272.82 286.602 272.82 285.008ZM293.773 285.008C293.773 283.391 294.312 282.078 295.391 281.07C296.492 280.062 297.863 279.559 299.504 279.559C301.168 279.559 302.539 280.062 303.617 281.07C304.719 282.078 305.27 283.391 305.27 285.008C305.27 286.602 304.73 287.902 303.652 288.91C302.574 289.895 301.191 290.387 299.504 290.387C297.84 290.387 296.469 289.895 295.391 288.91C294.312 287.902 293.773 286.602 293.773 285.008ZM314.727 285.008C314.727 283.391 315.266 282.078 316.344 281.07C317.445 280.062 318.816 279.559 320.457 279.559C322.121 279.559 323.492 280.062 324.57 281.07C325.672 282.078 326.223 283.391 326.223 285.008C326.223 286.602 325.684 287.902 324.605 288.91C323.527 289.895 322.145 290.387 320.457 290.387C318.793 290.387 317.422 289.895 316.344 288.91C315.266 287.902 314.727 286.602 314.727 285.008ZM335.68 285.008C335.68 283.391 336.219 282.078 337.297 281.07C338.398 280.062 339.77 279.559 341.41 279.559C343.074 279.559 344.445 280.062 345.523 281.07C346.625 282.078 347.176 283.391 347.176 285.008C347.176 286.602 346.637 287.902 345.559 288.91C344.48 289.895 343.098 290.387 341.41 290.387C339.746 290.387 338.375 289.895 337.297 288.91C336.219 287.902 335.68 286.602 335.68 285.008ZM356.633 285.008C356.633 283.391 357.172 282.078 358.25 281.07C359.352 280.062 360.723 279.559 362.363 279.559C364.027 279.559 365.398 280.062 366.477 281.07C367.578 282.078 368.129 283.391 368.129 285.008C368.129 286.602 367.59 287.902 366.512 288.91C365.434 289.895 364.051 290.387 362.363 290.387C360.699 290.387 359.328 289.895 358.25 288.91C357.172 287.902 356.633 286.602 356.633 285.008ZM377.586 285.008C377.586 283.391 378.125 282.078 379.203 281.07C380.305 280.062 381.676 279.559 383.316 279.559C384.98 279.559 386.352 280.062 387.43 281.07C388.531 282.078 389.082 283.391 389.082 285.008C389.082 286.602 388.543 287.902 387.465 288.91C386.387 289.895 385.004 290.387 383.316 290.387C381.652 290.387 380.281 289.895 379.203 288.91C378.125 287.902 377.586 286.602 377.586 285.008ZM0.429688 316.008C0.429688 314.391 0.96875 313.078 2.04688 312.07C3.14844 311.062 4.51953 310.559 6.16016 310.559C7.82422 310.559 9.19531 311.062 10.2734 312.07C11.375 313.078 11.9258 314.391 11.9258 316.008C11.9258 317.602 11.3867 318.902 10.3086 319.91C9.23047 320.895 7.84766 321.387 6.16016 321.387C4.49609 321.387 3.125 320.895 2.04688 319.91C0.96875 318.902 0.429688 317.602 0.429688 316.008ZM21.3828 316.008C21.3828 314.391 21.9219 313.078 23 312.07C24.1016 311.062 25.4727 310.559 27.1133 310.559C28.7773 310.559 30.1484 311.062 31.2266 312.07C32.3281 313.078 32.8789 314.391 32.8789 316.008C32.8789 317.602 32.3398 318.902 31.2617 319.91C30.1836 320.895 28.8008 321.387 27.1133 321.387C25.4492 321.387 24.0781 320.895 23 319.91C21.9219 318.902 21.3828 317.602 21.3828 316.008ZM42.3359 316.008C42.3359 314.391 42.875 313.078 43.9531 312.07C45.0547 311.062 46.4258 310.559 48.0664 310.559C49.7305 310.559 51.1016 311.062 52.1797 312.07C53.2812 313.078 53.832 314.391 53.832 316.008C53.832 317.602 53.293 318.902 52.2148 319.91C51.1367 320.895 49.7539 321.387 48.0664 321.387C46.4023 321.387 45.0312 320.895 43.9531 319.91C42.875 318.902 42.3359 317.602 42.3359 316.008ZM63.2891 316.008C63.2891 314.391 63.8281 313.078 64.9062 312.07C66.0078 311.062 67.3789 310.559 69.0195 310.559C70.6836 310.559 72.0547 311.062 73.1328 312.07C74.2344 313.078 74.7852 314.391 74.7852 316.008C74.7852 317.602 74.2461 318.902 73.168 319.91C72.0898 320.895 70.707 321.387 69.0195 321.387C67.3555 321.387 65.9844 320.895 64.9062 319.91C63.8281 318.902 63.2891 317.602 63.2891 316.008ZM84.2422 316.008C84.2422 314.391 84.7812 313.078 85.8594 312.07C86.9609 311.062 88.332 310.559 89.9727 310.559C91.6367 310.559 93.0078 311.062 94.0859 312.07C95.1875 313.078 95.7383 314.391 95.7383 316.008C95.7383 317.602 95.1992 318.902 94.1211 319.91C93.043 320.895 91.6602 321.387 89.9727 321.387C88.3086 321.387 86.9375 320.895 85.8594 319.91C84.7812 318.902 84.2422 317.602 84.2422 316.008ZM105.195 316.008C105.195 314.391 105.734 313.078 106.812 312.07C107.914 311.062 109.285 310.559 110.926 310.559C112.59 310.559 113.961 311.062 115.039 312.07C116.141 313.078 116.691 314.391 116.691 316.008C116.691 317.602 116.152 318.902 115.074 319.91C113.996 320.895 112.613 321.387 110.926 321.387C109.262 321.387 107.891 320.895 106.812 319.91C105.734 318.902 105.195 317.602 105.195 316.008ZM126.148 316.008C126.148 314.391 126.688 313.078 127.766 312.07C128.867 311.062 130.238 310.559 131.879 310.559C133.543 310.559 134.914 311.062 135.992 312.07C137.094 313.078 137.645 314.391 137.645 316.008C137.645 317.602 137.105 318.902 136.027 319.91C134.949 320.895 133.566 321.387 131.879 321.387C130.215 321.387 128.844 320.895 127.766 319.91C126.688 318.902 126.148 317.602 126.148 316.008ZM147.102 316.008C147.102 314.391 147.641 313.078 148.719 312.07C149.82 311.062 151.191 310.559 152.832 310.559C154.496 310.559 155.867 311.062 156.945 312.07C158.047 313.078 158.598 314.391 158.598 316.008C158.598 317.602 158.059 318.902 156.98 319.91C155.902 320.895 154.52 321.387 152.832 321.387C151.168 321.387 149.797 320.895 148.719 319.91C147.641 318.902 147.102 317.602 147.102 316.008ZM168.055 316.008C168.055 314.391 168.594 313.078 169.672 312.07C170.773 311.062 172.145 310.559 173.785 310.559C175.449 310.559 176.82 311.062 177.898 312.07C179 313.078 179.551 314.391 179.551 316.008C179.551 317.602 179.012 318.902 177.934 319.91C176.855 320.895 175.473 321.387 173.785 321.387C172.121 321.387 170.75 320.895 169.672 319.91C168.594 318.902 168.055 317.602 168.055 316.008ZM189.008 316.008C189.008 314.391 189.547 313.078 190.625 312.07C191.727 311.062 193.098 310.559 194.738 310.559C196.402 310.559 197.773 311.062 198.852 312.07C199.953 313.078 200.504 314.391 200.504 316.008C200.504 317.602 199.965 318.902 198.887 319.91C197.809 320.895 196.426 321.387 194.738 321.387C193.074 321.387 191.703 320.895 190.625 319.91C189.547 318.902 189.008 317.602 189.008 316.008ZM209.961 316.008C209.961 314.391 210.5 313.078 211.578 312.07C212.68 311.062 214.051 310.559 215.691 310.559C217.355 310.559 218.727 311.062 219.805 312.07C220.906 313.078 221.457 314.391 221.457 316.008C221.457 317.602 220.918 318.902 219.84 319.91C218.762 320.895 217.379 321.387 215.691 321.387C214.027 321.387 212.656 320.895 211.578 319.91C210.5 318.902 209.961 317.602 209.961 316.008ZM230.914 316.008C230.914 314.391 231.453 313.078 232.531 312.07C233.633 311.062 235.004 310.559 236.645 310.559C238.309 310.559 239.68 311.062 240.758 312.07C241.859 313.078 242.41 314.391 242.41 316.008C242.41 317.602 241.871 318.902 240.793 319.91C239.715 320.895 238.332 321.387 236.645 321.387C234.98 321.387 233.609 320.895 232.531 319.91C231.453 318.902 230.914 317.602 230.914 316.008ZM251.867 316.008C251.867 314.391 252.406 313.078 253.484 312.07C254.586 311.062 255.957 310.559 257.598 310.559C259.262 310.559 260.633 311.062 261.711 312.07C262.812 313.078 263.363 314.391 263.363 316.008C263.363 317.602 262.824 318.902 261.746 319.91C260.668 320.895 259.285 321.387 257.598 321.387C255.934 321.387 254.562 320.895 253.484 319.91C252.406 318.902 251.867 317.602 251.867 316.008ZM272.82 316.008C272.82 314.391 273.359 313.078 274.438 312.07C275.539 311.062 276.91 310.559 278.551 310.559C280.215 310.559 281.586 311.062 282.664 312.07C283.766 313.078 284.316 314.391 284.316 316.008C284.316 317.602 283.777 318.902 282.699 319.91C281.621 320.895 280.238 321.387 278.551 321.387C276.887 321.387 275.516 320.895 274.438 319.91C273.359 318.902 272.82 317.602 272.82 316.008ZM293.773 316.008C293.773 314.391 294.312 313.078 295.391 312.07C296.492 311.062 297.863 310.559 299.504 310.559C301.168 310.559 302.539 311.062 303.617 312.07C304.719 313.078 305.27 314.391 305.27 316.008C305.27 317.602 304.73 318.902 303.652 319.91C302.574 320.895 301.191 321.387 299.504 321.387C297.84 321.387 296.469 320.895 295.391 319.91C294.312 318.902 293.773 317.602 293.773 316.008ZM314.727 316.008C314.727 314.391 315.266 313.078 316.344 312.07C317.445 311.062 318.816 310.559 320.457 310.559C322.121 310.559 323.492 311.062 324.57 312.07C325.672 313.078 326.223 314.391 326.223 316.008C326.223 317.602 325.684 318.902 324.605 319.91C323.527 320.895 322.145 321.387 320.457 321.387C318.793 321.387 317.422 320.895 316.344 319.91C315.266 318.902 314.727 317.602 314.727 316.008ZM335.68 316.008C335.68 314.391 336.219 313.078 337.297 312.07C338.398 311.062 339.77 310.559 341.41 310.559C343.074 310.559 344.445 311.062 345.523 312.07C346.625 313.078 347.176 314.391 347.176 316.008C347.176 317.602 346.637 318.902 345.559 319.91C344.48 320.895 343.098 321.387 341.41 321.387C339.746 321.387 338.375 320.895 337.297 319.91C336.219 318.902 335.68 317.602 335.68 316.008ZM356.633 316.008C356.633 314.391 357.172 313.078 358.25 312.07C359.352 311.062 360.723 310.559 362.363 310.559C364.027 310.559 365.398 311.062 366.477 312.07C367.578 313.078 368.129 314.391 368.129 316.008C368.129 317.602 367.59 318.902 366.512 319.91C365.434 320.895 364.051 321.387 362.363 321.387C360.699 321.387 359.328 320.895 358.25 319.91C357.172 318.902 356.633 317.602 356.633 316.008ZM377.586 316.008C377.586 314.391 378.125 313.078 379.203 312.07C380.305 311.062 381.676 310.559 383.316 310.559C384.98 310.559 386.352 311.062 387.43 312.07C388.531 313.078 389.082 314.391 389.082 316.008C389.082 317.602 388.543 318.902 387.465 319.91C386.387 320.895 385.004 321.387 383.316 321.387C381.652 321.387 380.281 320.895 379.203 319.91C378.125 318.902 377.586 317.602 377.586 316.008Z" fill="#C6A88F"/>
</svg>
