<svg width="258" height="258" viewBox="0 0 258 258" fill="none" xmlns="http://www.w3.org/2000/svg">
<rect x="6.3844" y="6" width="245.231" height="245.231" rx="56" stroke="#B08968" stroke-width="12"/>
<path d="M111.693 183.834C104.045 189.291 102.926 206.987 104.655 255.742H164.017C165.003 214.717 166.727 188.479 154.531 183.834C189.247 180.383 204.155 174.409 209.916 145.279C212.343 123.206 210.342 113.565 198.9 102.746C201.586 90.6933 201.721 83.6142 196.452 69.6988C183.103 70.7961 176.039 73.9659 164.017 83.1624C135.655 76.5703 123.777 77.995 104.655 83.1624C88.3512 72.3284 80.2505 68.6288 69.1597 69.6988C66.17 82.6047 65.483 89.8398 69.1597 102.746C56.4299 116.373 57.0106 126.633 59.0619 145.279C64.3243 172.638 77.4615 179.781 111.693 183.834Z" fill="#B08968"/>
<path d="M74.1996 197.2C83.451 207.407 91.4709 206.874 106.832 202.023C107.479 201.819 108.143 202.299 108.143 202.978V217.416C108.143 217.938 107.73 218.374 107.209 218.413C80.0797 220.444 69.0972 217.685 62.5708 201.605C60.1448 195.1 56.892 191.328 46.6986 184.387C46.5967 184.318 46.5045 184.227 46.4356 184.125C44.8615 181.786 45.4735 181.149 48.0217 180.77C48.0817 180.762 48.1454 180.758 48.206 180.761C61.3329 181.299 66.1689 186.609 74.1996 197.2Z" fill="#B08968"/>
</svg>
