<svg width="74" height="74" viewBox="0 0 74 74" fill="none" xmlns="http://www.w3.org/2000/svg">
<rect x="2" y="2" width="70" height="70" rx="18" stroke="white" stroke-width="4"/>
<path d="M32.021 52.8851C29.8209 54.455 29.4992 59.5458 29.9964 73.5716H47.0737C47.3572 61.7695 47.8533 54.2216 44.3449 52.8851C54.3319 51.8924 58.6206 50.1737 60.2778 41.7936C60.9761 35.4436 60.4003 32.6704 57.1088 29.5578C57.8814 26.0906 57.9205 24.054 56.4046 20.0509C52.5644 20.3665 50.5323 21.2784 47.0737 23.9241C38.9146 22.0277 35.4975 22.4375 29.9964 23.9241C25.3062 20.8074 22.9758 19.7431 19.7852 20.0509C18.9251 23.7636 18.7275 25.845 19.7852 29.5578C16.1231 33.4779 16.2902 36.4297 16.8803 41.7936C18.3942 49.6643 22.1735 51.7191 32.021 52.8851Z" fill="white"/>
<path d="M21.2351 56.7303C23.7021 59.4521 25.8647 59.5192 29.6873 58.403C30.3385 58.2128 31 58.6921 31 59.3705V61.887C31 62.4092 30.5956 62.8445 30.0745 62.8793C22.7475 63.3686 19.7137 62.4913 17.8898 57.9974C17.2007 56.1498 16.2797 55.0687 13.434 53.1197C13.3323 53.05 13.2406 52.9622 13.1759 52.8572C12.8287 52.2934 13.0017 52.1176 13.6402 52.0138C13.7 52.0041 13.7624 52.0012 13.8231 52.0039C17.5499 52.1736 18.9383 53.7013 21.2351 56.7303Z" fill="white"/>
</svg>
