<?xml version="1.0" encoding="utf-8"?>
<!-- Generator: Adobe Illustrator 26.0.2, SVG Export Plug-In . SVG Version: 6.00 Build 0)  -->
<svg version="1.1" id="Camada_1" xmlns="http://www.w3.org/2000/svg" xmlns:xlink="http://www.w3.org/1999/xlink" x="0px" y="0px"
	 viewBox="0 0 1000 1000" style="enable-background:new 0 0 1000 1000;" xml:space="preserve">
<style type="text/css">
	.st0{fill:#B08968;}
</style>
<g>
	<g id="_x3C_Repetição_radial_x3E__00000091721959989724163680000006280799609571791793_">
		<g>
			<g>
				<path class="st0" d="M644.68,457.98c-4.27,0-7.73-3.46-7.73-7.73s3.46-7.73,7.73-7.73c4.27,0,7.73,3.46,7.73,7.73
					S648.94,457.98,644.68,457.98z"/>
				<circle class="st0" cx="673.63" cy="495.71" r="13.48"/>
				
					<ellipse transform="matrix(0.1891 -0.982 0.982 0.1891 24.6655 1122.6104)" class="st0" cx="692.05" cy="546.37" rx="17.88" ry="17.88"/>
				
					<ellipse transform="matrix(0.3827 -0.9239 0.9239 0.3827 -122.558 1016.1862)" class="st0" cx="699.14" cy="599.8" rx="21.16" ry="21.16"/>
				
					<ellipse transform="matrix(0.5257 -0.8507 0.8507 0.5257 -226.4935 900.7808)" class="st0" cx="694.57" cy="653.51" rx="23.46" ry="23.46"/>
				
					<ellipse transform="matrix(0.3827 -0.9239 0.9239 0.3827 -232.4446 1062.0334)" class="st0" cx="678.5" cy="704.96" rx="24.89" ry="24.89"/>
				
					<ellipse transform="matrix(0.8507 -0.5257 0.5257 0.8507 -297.8601 454.8537)" class="st0" cx="651.65" cy="751.68" rx="25.46" ry="25.46"/>
				
					<ellipse transform="matrix(0.3827 -0.9239 0.9239 0.3827 -351.4247 1057.2129)" class="st0" cx="615.4" cy="791.58" rx="25.26" ry="25.26"/>
				<circle class="st0" cx="571.4" cy="822.7" r="24.25"/>
				
					<ellipse transform="matrix(0.3827 -0.9239 0.9239 0.3827 -457.2805 1002.7097)" class="st0" cx="521.69" cy="843.54" rx="22.38" ry="22.38"/>
				<circle class="st0" cx="468.66" cy="853.17" r="19.54"/>
				
					<ellipse transform="matrix(0.5257 -0.8507 0.8507 0.5257 -527.3477 756.5401)" class="st0" cx="414.79" cy="851.2" rx="15.64" ry="15.64"/>
				
					<ellipse transform="matrix(0.2898 -0.9571 0.9571 0.2898 -544.1445 941.9702)" class="st0" cx="362.63" cy="837.63" rx="10.52" ry="10.52"/>
				<path class="st0" d="M314.66,816.85c-2.09,0-3.79-1.7-3.79-3.79s1.7-3.79,3.79-3.79c2.09,0,3.79,1.7,3.79,3.79
					S316.76,816.85,314.66,816.85z"/>
			</g>
		</g>
	</g>
	<g id="_x3C_Repetição_radial_x3E__00000022540838746426561600000007625996362861906307_">
		<g>
			<g>
				<path class="st0" d="M642.62,562.88c-4.27,0-7.73-3.46-7.73-7.73c0-4.27,3.46-7.73,7.73-7.73c4.27,0,7.73,3.46,7.73,7.73
					C650.35,559.42,646.89,562.88,642.62,562.88z"/>
				<circle class="st0" cx="635.58" cy="608.59" r="13.48"/>
				
					<ellipse transform="matrix(0.2898 -0.9571 0.9571 0.2898 -192.6515 1058.8458)" class="st0" cx="617.13" cy="659.23" rx="17.88" ry="17.88"/>
				
					<ellipse transform="matrix(0.3827 -0.9239 0.9239 0.3827 -287.9631 978.4717)" class="st0" cx="588.21" cy="704.72" rx="21.16" ry="21.16"/>
				
					<ellipse transform="matrix(0.3827 -0.9239 0.9239 0.3827 -346.7323 966.9367)" class="st0" cx="550.2" cy="742.93" rx="23.46" ry="23.46"/>
				
					<ellipse transform="matrix(0.3827 -0.9239 0.9239 0.3827 -401.6111 942.959)" class="st0" cx="504.81" cy="772.01" rx="24.89" ry="24.89"/>
				
					<ellipse transform="matrix(0.1891 -0.982 0.982 0.1891 -407.9626 1087.053)" class="st0" cx="454.21" cy="790.54" rx="25.46" ry="25.46"/>
				<circle class="st0" cx="400.8" cy="797.8" r="25.26"/>
				<circle class="st0" cx="347.08" cy="793.36" r="24.25"/>
				
					<ellipse transform="matrix(0.3827 -0.9239 0.9239 0.3827 -535.7128 752.9919)" class="st0" cx="295.61" cy="777.37" rx="22.38" ry="22.38"/>
				<circle class="st0" cx="248.79" cy="750.66" r="19.54"/>
				
					<ellipse transform="matrix(0.3827 -0.9239 0.9239 0.3827 -531.2407 633.9948)" class="st0" cx="208.8" cy="714.53" rx="15.64" ry="15.64"/>
				<circle class="st0" cx="177.56" cy="670.6" r="10.52"/>
				<path class="st0" d="M156.61,624.74c-2.09,0-3.79-1.7-3.79-3.79s1.7-3.79,3.79-3.79c2.09,0,3.79,1.7,3.79,3.79
					S158.7,624.74,156.61,624.74z"/>
			</g>
		</g>
	</g>
	<g id="_x3C_Repetição_radial_x3E__00000061471140355605385120000012419738569270713277_">
		<g>
			<g>
				<circle class="st0" cx="573.62" cy="634.18" r="7.73"/>
				<circle class="st0" cx="533.88" cy="670.6" r="13.48"/>
				
					<ellipse transform="matrix(0.2898 -0.9571 0.9571 0.2898 -321.5886 961.6812)" class="st0" cx="487.19" cy="697.53" rx="17.88" ry="17.88"/>
				
					<ellipse transform="matrix(0.3827 -0.9239 0.9239 0.3827 -390.4258 843.2579)" class="st0" cx="435.8" cy="713.79" rx="21.16" ry="21.16"/>
				
					<ellipse transform="matrix(0.3827 -0.9239 0.9239 0.3827 -428.0312 796.6461)" class="st0" cx="382.12" cy="718.62" rx="23.46" ry="23.46"/>
				
					<ellipse transform="matrix(0.3827 -0.9239 0.9239 0.3827 -454.658 743.0026)" class="st0" cx="328.66" cy="711.72" rx="24.89" ry="24.89"/>
				
					<ellipse transform="matrix(0.5257 -0.8507 0.8507 0.5257 -457.9952 565.3194)" class="st0" cx="277.98" cy="693.39" rx="25.46" ry="25.46"/>
				
					<ellipse transform="matrix(0.1891 -0.982 0.982 0.1891 -464.1841 767.1451)" class="st0" cx="232.4" cy="664.63" rx="25.26" ry="25.26"/>
				<circle class="st0" cx="194.1" cy="626.7" r="24.25"/>
				
					<ellipse transform="matrix(0.1891 -0.982 0.982 0.1891 -437.1102 633.3982)" class="st0" cx="164.95" cy="581.36" rx="22.38" ry="22.38"/>
				<circle class="st0" cx="146.26" cy="530.81" r="19.54"/>
				
					<ellipse transform="matrix(0.2298 -0.9732 0.9732 0.2298 -357.6975 502.8648)" class="st0" cx="138.85" cy="477.42" rx="15.64" ry="15.64"/>
				<circle class="st0" cx="143.15" cy="423.69" r="10.52"/>
				<path class="st0" d="M159.02,375.98c-2.09,0-3.79-1.7-3.79-3.79c0-2.09,1.7-3.79,3.79-3.79s3.79,1.7,3.79,3.79
					C162.81,374.28,161.11,375.98,159.02,375.98z"/>
			</g>
		</g>
	</g>
	<g id="_x3C_Repetição_radial_x3E__00000124884604042792642030000018237877244807904663_">
		<g>
			<g>
				<path class="st0" d="M469.96,658.1c-4.27,0-7.73-3.46-7.73-7.73c0-4.27,3.46-7.73,7.73-7.73c4.27,0,7.73,3.46,7.73,7.73
					C477.69,654.64,474.23,658.1,469.96,658.1z"/>
				<circle class="st0" cx="416.11" cy="652.72" r="13.48"/>
				
					<ellipse transform="matrix(0.2898 -0.9571 0.9571 0.2898 -357.9058 804.3697)" class="st0" cx="363.03" cy="643.34" rx="17.88" ry="17.88"/>
				
					<ellipse transform="matrix(0.3827 -0.9239 0.9239 0.3827 -382.0048 673.8174)" class="st0" cx="313.22" cy="622.76" rx="21.16" ry="21.16"/>
				
					<ellipse transform="matrix(0.3827 -0.9239 0.9239 0.3827 -380.8508 613.9379)" class="st0" cx="268.99" cy="591.96" rx="23.46" ry="23.46"/>
				<circle class="st0" cx="232.47" cy="552.32" r="24.89"/>
				
					<ellipse transform="matrix(0.6154 -0.7882 0.7882 0.6154 -319.5868 356.4072)" class="st0" cx="205.43" cy="505.7" rx="25.46" ry="25.46"/>
				
					<ellipse transform="matrix(0.4472 -0.8944 0.8944 0.4472 -301.9159 420.2129)" class="st0" cx="189" cy="454.36" rx="25.26" ry="25.26"/>
				
					<ellipse transform="matrix(0.2298 -0.9732 0.9732 0.2298 -248.2106 487.7545)" class="st0" cx="184.05" cy="400.69" rx="24.25" ry="24.25"/>
				<circle class="st0" cx="190.86" cy="347.22" r="22.38"/>
				
					<ellipse transform="matrix(0.1735 -0.9848 0.9848 0.1735 -119.2189 450.898)" class="st0" cx="209.03" cy="296.48" rx="19.54" ry="19.54"/>
				
					<ellipse transform="matrix(0.5257 -0.8507 0.8507 0.5257 -100.6383 321.1339)" class="st0" cx="237.67" cy="250.82" rx="15.64" ry="15.64"/>
				<circle class="st0" cx="275.5" cy="212.43" r="10.52"/>
				<path class="st0" d="M320.76,186.96c-2.09,0-3.79-1.7-3.79-3.79s1.7-3.79,3.79-3.79c2.09,0,3.79,1.7,3.79,3.79
					S322.86,186.96,320.76,186.96z"/>
			</g>
		</g>
	</g>
	<g id="_x3C_Repetição_radial_x3E__00000023282500442750991020000004134705751433395608_">
		<g>
			<g>
				<path class="st0" d="M380.15,603.87c-4.27,0-7.73-3.46-7.73-7.73c0-4.27,3.46-7.73,7.73-7.73c4.27,0,7.73,3.46,7.73,7.73
					C387.87,600.41,384.41,603.87,380.15,603.87z"/>
				<circle class="st0" cx="337.39" cy="563.33" r="13.48"/>
				<circle class="st0" cx="302.76" cy="522.03" r="17.88"/>
				
					<ellipse transform="matrix(0.6154 -0.7882 0.7882 0.6154 -266.9535 401.3674)" class="st0" cx="277.82" cy="474.24" rx="21.16" ry="21.16"/>
				
					<ellipse transform="matrix(0.3827 -0.9239 0.9239 0.3827 -227.2654 504.3027)" class="st0" cx="263.74" cy="422.21" rx="23.46" ry="23.46"/>
				
					<ellipse transform="matrix(0.331 -0.9436 0.9436 0.331 -172.8347 492.9605)" class="st0" cx="261.25" cy="368.37" rx="24.89" ry="24.89"/>
				
					<ellipse transform="matrix(0.331 -0.9436 0.9436 0.331 -116.5436 466.1732)" class="st0" cx="270.5" cy="315.28" rx="25.46" ry="25.46"/>
				<circle class="st0" cx="290.91" cy="265.39" r="25.26"/>
				<circle class="st0" cx="321.62" cy="221.1" r="24.25"/>
				
					<ellipse transform="matrix(0.2425 -0.9701 0.9701 0.2425 94.5921 490.1826)" class="st0" cx="361.2" cy="184.52" rx="22.38" ry="22.38"/>
				<circle class="st0" cx="407.74" cy="157.32" r="19.54"/>
				<circle class="st0" cx="459.03" cy="140.76" r="15.64"/>
				
					<ellipse transform="matrix(0.6618 -0.7497 0.7497 0.6618 71.6848 430.2341)" class="st0" cx="512.69" cy="135.67" rx="10.52" ry="10.52"/>
				<path class="st0" d="M566.17,146.14c-2.09,0-3.79-1.7-3.79-3.79c0-2.09,1.7-3.79,3.79-3.79s3.79,1.7,3.79,3.79
					C569.96,144.44,568.26,146.14,566.17,146.14z"/>
			</g>
		</g>
	</g>
	<g id="_x3C_Repetição_radial_x3E__00000009547633525607427170000007883870360242473859_">
		<g>
			<g>
				<path class="st0" d="M346.2,504.6c-4.27,0-7.73-3.46-7.73-7.73s3.46-7.73,7.73-7.73c4.27,0,7.73,3.46,7.73,7.73
					S350.47,504.6,346.2,504.6z"/>
				
					<ellipse transform="matrix(0.9239 -0.3827 0.3827 0.9239 -144.5425 161.8389)" class="st0" cx="334.54" cy="444.25" rx="13.48" ry="13.48"/>
				
					<ellipse transform="matrix(0.331 -0.9436 0.9436 0.331 -144.5289 576.8412)" class="st0" cx="334.56" cy="390.35" rx="17.88" ry="17.88"/>
				
					<ellipse transform="matrix(0.3827 -0.9239 0.9239 0.3827 -98.3104 528.3018)" class="st0" cx="346.17" cy="337.72" rx="21.16" ry="21.16"/>
				
					<ellipse transform="matrix(0.3827 -0.9239 0.9239 0.3827 -39.1407 519.0403)" class="st0" cx="368.83" cy="288.81" rx="23.46" ry="23.46"/>
				
					<ellipse transform="matrix(0.2723 -0.9622 0.9622 0.2723 55.5092 565.3295)" class="st0" cx="401.53" cy="245.96" rx="24.89" ry="24.89"/>
				
					<ellipse transform="matrix(0.4132 -0.9106 0.9106 0.4132 67.4342 527.1318)" class="st0" cx="442.75" cy="211.24" rx="25.46" ry="25.46"/>
				
					<ellipse transform="matrix(0.5696 -0.8219 0.8219 0.5696 58.0934 483.2301)" class="st0" cx="490.45" cy="186.15" rx="25.26" ry="25.26"/>
				
					<ellipse transform="matrix(0.7071 -0.7071 0.7071 0.7071 37.2934 433.9275)" class="st0" cx="542.44" cy="171.95" rx="24.25" ry="24.25"/>
				
					<ellipse transform="matrix(0.2425 -0.9701 0.9701 0.2425 287.3486 706.7703)" class="st0" cx="596.28" cy="169.37" rx="22.38" ry="22.38"/>
				
					<ellipse transform="matrix(0.1891 -0.982 0.982 0.1891 351.3688 782.4005)" class="st0" cx="649.41" cy="178.45" rx="19.54" ry="19.54"/>
				
					<ellipse transform="matrix(0.5257 -0.8507 0.8507 0.5257 162.6257 689.1562)" class="st0" cx="699.35" cy="198.73" rx="15.64" ry="15.64"/>
				<circle class="st0" cx="743.73" cy="229.32" r="10.52"/>
				<path class="st0" d="M780.4,272.6c-2.09,0-3.79-1.7-3.79-3.79c0-2.09,1.7-3.79,3.79-3.79c2.09,0,3.79,1.7,3.79,3.79
					C784.19,270.91,782.49,272.6,780.4,272.6z"/>
			</g>
		</g>
	</g>
	<g id="_x3C_Repetição_radial_x3E__00000146461877602639165800000004197060609103775159_">
		<g>
			<g>
				<path class="st0" d="M384.01,406.73c-4.27,0-7.73-3.46-7.73-7.73s3.46-7.73,7.73-7.73c4.27,0,7.73,3.46,7.73,7.73
					S388.28,406.73,384.01,406.73z"/>
				<circle class="st0" cx="408.9" cy="351.2" r="13.48"/>
				
					<ellipse transform="matrix(0.331 -0.9436 0.9436 0.331 4.2887 625.8933)" class="st0" cx="443.56" cy="309.92" rx="17.88" ry="17.88"/>
				
					<ellipse transform="matrix(0.3827 -0.9239 0.9239 0.3827 44.2191 620.3152)" class="st0" cx="486.29" cy="277.07" rx="21.16" ry="21.16"/>
				
					<ellipse transform="matrix(0.3092 -0.951 0.951 0.3092 127.9062 684.4221)" class="st0" cx="535.08" cy="254.17" rx="23.46" ry="23.46"/>
				
					<ellipse transform="matrix(0.2898 -0.9571 0.9571 0.2898 185.4122 734.5894)" class="st0" cx="587.68" cy="242.36" rx="24.89" ry="24.89"/>
				
					<ellipse transform="matrix(0.5257 -0.8507 0.8507 0.5257 98.2006 660.6462)" class="st0" cx="641.57" cy="242.26" rx="25.46" ry="25.46"/>
				<circle class="st0" cx="694.24" cy="253.7" r="25.26"/>
				
					<ellipse transform="matrix(0.7071 -0.7071 0.7071 0.7071 22.3466 606.4297)" class="st0" cx="743.2" cy="276.24" rx="24.25" ry="24.25"/>
				
					<ellipse transform="matrix(0.2567 -0.9665 0.9665 0.2567 285.8054 989.3579)" class="st0" cx="786.1" cy="308.87" rx="22.38" ry="22.38"/>
				<circle class="st0" cx="820.96" cy="349.98" r="19.54"/>
				<circle class="st0" cx="846.18" cy="397.62" r="15.64"/>
				<circle class="st0" cx="860.51" cy="449.58" r="10.52"/>
				<path class="st0" d="M863.22,507.19c-2.09,0-3.79-1.7-3.79-3.79c0-2.09,1.7-3.79,3.79-3.79c2.09,0,3.79,1.7,3.79,3.79
					C867.01,505.49,865.31,507.19,863.22,507.19z"/>
			</g>
		</g>
	</g>
	<g id="_x3C_Repetição_radial_x3E__00000073684363802304770210000001421965753820192703_">
		<g>
			<g>
				<path class="st0" d="M475.88,356.07c-4.27,0-7.73-3.46-7.73-7.73s3.46-7.73,7.73-7.73s7.73,3.46,7.73,7.73
					S480.15,356.07,475.88,356.07z"/>
				<circle class="st0" cx="525.68" cy="327.71" r="13.48"/>
				<circle class="st0" cx="578.76" cy="318.38" r="17.88"/>
				
					<ellipse transform="matrix(0.3827 -0.9239 0.9239 0.3827 94.2577 782.4178)" class="st0" cx="632.61" cy="320.68" rx="21.16" ry="21.16"/>
				
					<ellipse transform="matrix(0.3827 -0.9239 0.9239 0.3827 113.6535 839.0809)" class="st0" cx="684.71" cy="334.49" rx="23.46" ry="23.46"/>
				<circle class="st0" cx="732.59" cy="359.26" r="24.89"/>
				
					<ellipse transform="matrix(0.2567 -0.9665 0.9665 0.2567 194.6694 1040.7495)" class="st0" cx="773.94" cy="393.82" rx="25.46" ry="25.46"/>
				<circle class="st0" cx="806.94" cy="436.44" r="25.26"/>
				<circle class="st0" cx="829.95" cy="485.18" r="24.25"/>
				
					<ellipse transform="matrix(0.2898 -0.9571 0.9571 0.2898 83.2077 1187.6309)" class="st0" cx="841.83" cy="537.75" rx="22.38" ry="22.38"/>
				
					<ellipse transform="matrix(0.5257 -0.8507 0.8507 0.5257 -103.8989 996.9458)" class="st0" cx="842.11" cy="591.65" rx="19.54" ry="19.54"/>
				
					<ellipse transform="matrix(0.1891 -0.982 0.982 0.1891 40.9747 1338.3223)" class="st0" cx="830.81" cy="644.35" rx="15.64" ry="15.64"/>
				
					<ellipse transform="matrix(0.1891 -0.982 0.982 0.1891 -25.3349 1356.0549)" class="st0" cx="808.4" cy="693.37" rx="10.52" ry="10.52"/>
				<path class="st0" d="M775.87,740.13c-2.09,0-3.79-1.7-3.79-3.79s1.7-3.79,3.79-3.79c2.09,0,3.79,1.7,3.79,3.79
					S777.97,740.13,775.87,740.13z"/>
			</g>
		</g>
	</g>
	<g id="_x3C_Repetição_radial_x3E__00000173862505859302981460000011086239895883806375_">
		<g>
			<g>
				<path class="st0" d="M578.82,376.3c-4.27,0-7.73-3.46-7.73-7.73s3.46-7.73,7.73-7.73c4.27,0,7.73,3.46,7.73,7.73
					S583.09,376.3,578.82,376.3z"/>
				<circle class="st0" cx="630.23" cy="384.79" r="13.48"/>
				<circle class="st0" cx="676.9" cy="411.76" r="17.88"/>
				
					<ellipse transform="matrix(0.3827 -0.9239 0.9239 0.3827 28.392 938.7593)" class="st0" cx="716.67" cy="448.13" rx="21.16" ry="21.16"/>
				
					<ellipse transform="matrix(0.3827 -0.9239 0.9239 0.3827 6.8277 994.6325)" class="st0" cx="747.7" cy="492.21" rx="23.46" ry="23.46"/>
				
					<ellipse transform="matrix(0.5257 -0.8507 0.8507 0.5257 -96.5552 910.7167)" class="st0" cx="768.45" cy="541.95" rx="24.89" ry="24.89"/>
				<circle class="st0" cx="777.92" cy="595.01" r="25.46"/>
				
					<ellipse transform="matrix(0.2898 -0.9571 0.9571 0.2898 -70.0378 1203.3453)" class="st0" cx="775.8" cy="648.86" rx="25.26" ry="25.26"/>
				
					<ellipse transform="matrix(0.1891 -0.982 0.982 0.1891 -70.3639 1316.778)" class="st0" cx="762.1" cy="700.99" rx="24.25" ry="24.25"/>
				<circle class="st0" cx="737.41" cy="748.91" r="22.38"/>
				<circle class="st0" cx="702.98" cy="790.38" r="19.54"/>
				<circle class="st0" cx="660.45" cy="823.48" r="15.64"/>
				
					<ellipse transform="matrix(0.1891 -0.982 0.982 0.1891 -335.2693 1287.2467)" class="st0" cx="611.77" cy="846.62" rx="10.52" ry="10.52"/>
				<path class="st0" d="M559.23,862.42c-2.09,0-3.79-1.7-3.79-3.79c0-2.09,1.7-3.79,3.79-3.79c2.09,0,3.79,1.7,3.79,3.79
					C563.02,860.73,561.32,862.42,559.23,862.42z"/>
			</g>
		</g>
	</g>
</g>
</svg>
