<svg width="300" height="376" viewBox="0 0 300 376" fill="none" xmlns="http://www.w3.org/2000/svg">
<path d="M13.3102 26.8571L24.8372 6.71426H1.78323L13.3102 26.8571Z" fill="#C6A88F"/>
<path d="M43.6668 26.8571L55.1937 6.71426H32.1398L43.6668 26.8571Z" fill="#C6A88F"/>
<path d="M74.0234 26.8571L85.5504 6.71426H62.4965L74.0234 26.8571Z" fill="#C6A88F"/>
<path d="M104.38 26.8571L115.907 6.71426H92.8531L104.38 26.8571Z" fill="#C6A88F"/>
<path d="M134.736 26.8571L146.263 6.71426H123.209L134.736 26.8571Z" fill="#C6A88F"/>
<path d="M13.3102 188L24.8372 167.857H1.78323L13.3102 188Z" fill="#C6A88F"/>
<path d="M43.6668 188L55.1937 167.857H32.1398L43.6668 188Z" fill="#C6A88F"/>
<path d="M74.0234 188L85.5504 167.857H62.4965L74.0234 188Z" fill="#C6A88F"/>
<path d="M104.38 188L115.907 167.857H92.8531L104.38 188Z" fill="#C6A88F"/>
<path d="M134.736 188L146.263 167.857H123.209L134.736 188Z" fill="#C6A88F"/>
<path d="M13.3102 53.7143L24.8372 33.5714H1.78323L13.3102 53.7143Z" fill="#C6A88F"/>
<path d="M43.6668 53.7143L55.1937 33.5714H32.1398L43.6668 53.7143Z" fill="#C6A88F"/>
<path d="M74.0234 53.7143L85.5504 33.5714H62.4965L74.0234 53.7143Z" fill="#C6A88F"/>
<path d="M104.38 53.7143L115.907 33.5714H92.8531L104.38 53.7143Z" fill="#C6A88F"/>
<path d="M134.736 53.7143L146.263 33.5714H123.209L134.736 53.7143Z" fill="#C6A88F"/>
<path d="M13.3102 80.5714L24.8372 60.4286H1.78323L13.3102 80.5714Z" fill="#C6A88F"/>
<path d="M43.6668 80.5714L55.1937 60.4286H32.1398L43.6668 80.5714Z" fill="#C6A88F"/>
<path d="M74.0234 80.5714L85.5504 60.4286H62.4965L74.0234 80.5714Z" fill="#C6A88F"/>
<path d="M104.38 80.5714L115.907 60.4286H92.8531L104.38 80.5714Z" fill="#C6A88F"/>
<path d="M134.736 80.5714L146.263 60.4286H123.209L134.736 80.5714Z" fill="#C6A88F"/>
<path d="M13.3102 107.429L24.8372 87.2857H1.78323L13.3102 107.429Z" fill="#C6A88F"/>
<path d="M43.6668 107.429L55.1937 87.2857H32.1398L43.6668 107.429Z" fill="#C6A88F"/>
<path d="M74.0234 107.429L85.5504 87.2857H62.4965L74.0234 107.429Z" fill="#C6A88F"/>
<path d="M104.38 107.429L115.907 87.2857H92.8531L104.38 107.429Z" fill="#C6A88F"/>
<path d="M134.736 107.429L146.263 87.2857H123.209L134.736 107.429Z" fill="#C6A88F"/>
<path d="M13.3102 134.286L24.8372 114.143H1.78323L13.3102 134.286Z" fill="#C6A88F"/>
<path d="M43.6668 134.286L55.1937 114.143H32.1398L43.6668 134.286Z" fill="#C6A88F"/>
<path d="M74.0234 134.286L85.5504 114.143H62.4965L74.0234 134.286Z" fill="#C6A88F"/>
<path d="M104.38 134.286L115.907 114.143H92.8531L104.38 134.286Z" fill="#C6A88F"/>
<path d="M134.736 134.286L146.263 114.143H123.209L134.736 134.286Z" fill="#C6A88F"/>
<path d="M13.3102 161.143L24.8372 141H1.78323L13.3102 161.143Z" fill="#C6A88F"/>
<path d="M43.6668 161.143L55.1937 141H32.1398L43.6668 161.143Z" fill="#C6A88F"/>
<path d="M74.0234 161.143L85.5504 141H62.4965L74.0234 161.143Z" fill="#C6A88F"/>
<path d="M104.38 161.143L115.907 141H92.8531L104.38 161.143Z" fill="#C6A88F"/>
<path d="M134.736 161.143L146.263 141H123.209L134.736 161.143Z" fill="#C6A88F"/>
<path d="M165.263 26.8571L176.79 6.71426H153.736L165.263 26.8571Z" fill="#C6A88F"/>
<path d="M195.62 26.8571L207.147 6.71426H184.093L195.62 26.8571Z" fill="#C6A88F"/>
<path d="M225.977 26.8571L237.504 6.71426H214.45L225.977 26.8571Z" fill="#C6A88F"/>
<path d="M256.333 26.8571L267.86 6.71426H244.806L256.333 26.8571Z" fill="#C6A88F"/>
<path d="M286.69 26.8571L298.217 6.71426H275.163L286.69 26.8571Z" fill="#C6A88F"/>
<path d="M165.263 188L176.79 167.857H153.736L165.263 188Z" fill="#C6A88F"/>
<path d="M195.62 188L207.147 167.857H184.093L195.62 188Z" fill="#C6A88F"/>
<path d="M225.977 188L237.504 167.857H214.45L225.977 188Z" fill="#C6A88F"/>
<path d="M256.333 188L267.86 167.857H244.806L256.333 188Z" fill="#C6A88F"/>
<path d="M286.69 188L298.217 167.857H275.163L286.69 188Z" fill="#C6A88F"/>
<path d="M165.263 53.7143L176.79 33.5714H153.736L165.263 53.7143Z" fill="#C6A88F"/>
<path d="M195.62 53.7143L207.147 33.5714H184.093L195.62 53.7143Z" fill="#C6A88F"/>
<path d="M225.977 53.7143L237.504 33.5714H214.45L225.977 53.7143Z" fill="#C6A88F"/>
<path d="M256.333 53.7143L267.86 33.5714H244.806L256.333 53.7143Z" fill="#C6A88F"/>
<path d="M286.69 53.7143L298.217 33.5714H275.163L286.69 53.7143Z" fill="#C6A88F"/>
<path d="M165.263 80.5714L176.79 60.4286H153.736L165.263 80.5714Z" fill="#C6A88F"/>
<path d="M195.62 80.5714L207.147 60.4286H184.093L195.62 80.5714Z" fill="#C6A88F"/>
<path d="M225.977 80.5714L237.504 60.4286H214.45L225.977 80.5714Z" fill="#C6A88F"/>
<path d="M256.333 80.5714L267.86 60.4286H244.806L256.333 80.5714Z" fill="#C6A88F"/>
<path d="M286.69 80.5714L298.217 60.4286H275.163L286.69 80.5714Z" fill="#C6A88F"/>
<path d="M165.263 107.429L176.79 87.2857H153.736L165.263 107.429Z" fill="#C6A88F"/>
<path d="M195.62 107.429L207.147 87.2857H184.093L195.62 107.429Z" fill="#C6A88F"/>
<path d="M225.977 107.429L237.504 87.2857H214.45L225.977 107.429Z" fill="#C6A88F"/>
<path d="M256.333 107.429L267.86 87.2857H244.806L256.333 107.429Z" fill="#C6A88F"/>
<path d="M286.69 107.429L298.217 87.2857H275.163L286.69 107.429Z" fill="#C6A88F"/>
<path d="M165.263 134.286L176.79 114.143H153.736L165.263 134.286Z" fill="#C6A88F"/>
<path d="M195.62 134.286L207.147 114.143H184.093L195.62 134.286Z" fill="#C6A88F"/>
<path d="M225.977 134.286L237.504 114.143H214.45L225.977 134.286Z" fill="#C6A88F"/>
<path d="M256.333 134.286L267.86 114.143H244.806L256.333 134.286Z" fill="#C6A88F"/>
<path d="M286.69 134.286L298.217 114.143H275.163L286.69 134.286Z" fill="#C6A88F"/>
<path d="M165.263 161.143L176.79 141H153.736L165.263 161.143Z" fill="#C6A88F"/>
<path d="M195.62 161.143L207.147 141H184.093L195.62 161.143Z" fill="#C6A88F"/>
<path d="M225.977 161.143L237.504 141H214.45L225.977 161.143Z" fill="#C6A88F"/>
<path d="M256.333 161.143L267.86 141H244.806L256.333 161.143Z" fill="#C6A88F"/>
<path d="M286.69 161.143L298.217 141H275.163L286.69 161.143Z" fill="#C6A88F"/>
<path d="M13.3102 214.857L24.8372 194.714H1.78323L13.3102 214.857Z" fill="#C6A88F"/>
<path d="M43.6668 214.857L55.1937 194.714H32.1398L43.6668 214.857Z" fill="#C6A88F"/>
<path d="M74.0234 214.857L85.5504 194.714H62.4965L74.0234 214.857Z" fill="#C6A88F"/>
<path d="M104.38 214.857L115.907 194.714H92.8531L104.38 214.857Z" fill="#C6A88F"/>
<path d="M134.736 214.857L146.263 194.714H123.209L134.736 214.857Z" fill="#C6A88F"/>
<path d="M13.3102 376L24.8372 355.857H1.78323L13.3102 376Z" fill="#C6A88F"/>
<path d="M43.6668 376L55.1937 355.857H32.1398L43.6668 376Z" fill="#C6A88F"/>
<path d="M74.0234 376L85.5504 355.857H62.4965L74.0234 376Z" fill="#C6A88F"/>
<path d="M104.38 376L115.907 355.857H92.8531L104.38 376Z" fill="#C6A88F"/>
<path d="M134.736 376L146.263 355.857H123.209L134.736 376Z" fill="#C6A88F"/>
<path d="M13.3102 241.714L24.8372 221.571H1.78323L13.3102 241.714Z" fill="#C6A88F"/>
<path d="M43.6668 241.714L55.1937 221.571H32.1398L43.6668 241.714Z" fill="#C6A88F"/>
<path d="M74.0234 241.714L85.5504 221.571H62.4965L74.0234 241.714Z" fill="#C6A88F"/>
<path d="M104.38 241.714L115.907 221.571H92.8531L104.38 241.714Z" fill="#C6A88F"/>
<path d="M134.736 241.714L146.263 221.571H123.209L134.736 241.714Z" fill="#C6A88F"/>
<path d="M13.3102 268.571L24.8372 248.429H1.78323L13.3102 268.571Z" fill="#C6A88F"/>
<path d="M43.6668 268.571L55.1937 248.429H32.1398L43.6668 268.571Z" fill="#C6A88F"/>
<path d="M74.0234 268.571L85.5504 248.429H62.4965L74.0234 268.571Z" fill="#C6A88F"/>
<path d="M104.38 268.571L115.907 248.429H92.8531L104.38 268.571Z" fill="#C6A88F"/>
<path d="M134.736 268.571L146.263 248.429H123.209L134.736 268.571Z" fill="#C6A88F"/>
<path d="M13.3102 295.429L24.8372 275.286H1.78323L13.3102 295.429Z" fill="#C6A88F"/>
<path d="M43.6668 295.429L55.1937 275.286H32.1398L43.6668 295.429Z" fill="#C6A88F"/>
<path d="M74.0234 295.429L85.5504 275.286H62.4965L74.0234 295.429Z" fill="#C6A88F"/>
<path d="M104.38 295.429L115.907 275.286H92.8531L104.38 295.429Z" fill="#C6A88F"/>
<path d="M134.736 295.429L146.263 275.286H123.209L134.736 295.429Z" fill="#C6A88F"/>
<path d="M13.3102 322.286L24.8372 302.143H1.78323L13.3102 322.286Z" fill="#C6A88F"/>
<path d="M43.6668 322.286L55.1937 302.143H32.1398L43.6668 322.286Z" fill="#C6A88F"/>
<path d="M74.0234 322.286L85.5504 302.143H62.4965L74.0234 322.286Z" fill="#C6A88F"/>
<path d="M104.38 322.286L115.907 302.143H92.8531L104.38 322.286Z" fill="#C6A88F"/>
<path d="M134.736 322.286L146.263 302.143H123.209L134.736 322.286Z" fill="#C6A88F"/>
<path d="M13.3102 349.143L24.8372 329H1.78323L13.3102 349.143Z" fill="#C6A88F"/>
<path d="M43.6668 349.143L55.1937 329H32.1398L43.6668 349.143Z" fill="#C6A88F"/>
<path d="M74.0234 349.143L85.5504 329H62.4965L74.0234 349.143Z" fill="#C6A88F"/>
<path d="M104.38 349.143L115.907 329H92.8531L104.38 349.143Z" fill="#C6A88F"/>
<path d="M134.736 349.143L146.263 329H123.209L134.736 349.143Z" fill="#C6A88F"/>
<path d="M165.263 214.857L176.79 194.714H153.736L165.263 214.857Z" fill="#C6A88F"/>
<path d="M195.62 214.857L207.147 194.714H184.093L195.62 214.857Z" fill="#C6A88F"/>
<path d="M225.977 214.857L237.504 194.714H214.45L225.977 214.857Z" fill="#C6A88F"/>
<path d="M256.333 214.857L267.86 194.714H244.806L256.333 214.857Z" fill="#C6A88F"/>
<path d="M286.69 214.857L298.217 194.714H275.163L286.69 214.857Z" fill="#C6A88F"/>
<path d="M165.263 376L176.79 355.857H153.736L165.263 376Z" fill="#C6A88F"/>
<path d="M195.62 376L207.147 355.857H184.093L195.62 376Z" fill="#C6A88F"/>
<path d="M225.977 376L237.504 355.857H214.45L225.977 376Z" fill="#C6A88F"/>
<path d="M256.333 376L267.86 355.857H244.806L256.333 376Z" fill="#C6A88F"/>
<path d="M286.69 376L298.217 355.857H275.163L286.69 376Z" fill="#C6A88F"/>
<path d="M165.263 241.714L176.79 221.571H153.736L165.263 241.714Z" fill="#C6A88F"/>
<path d="M195.62 241.714L207.147 221.571H184.093L195.62 241.714Z" fill="#C6A88F"/>
<path d="M225.977 241.714L237.504 221.571H214.45L225.977 241.714Z" fill="#C6A88F"/>
<path d="M256.333 241.714L267.86 221.571H244.806L256.333 241.714Z" fill="#C6A88F"/>
<path d="M286.69 241.714L298.217 221.571H275.163L286.69 241.714Z" fill="#C6A88F"/>
<path d="M165.263 268.571L176.79 248.429H153.736L165.263 268.571Z" fill="#C6A88F"/>
<path d="M195.62 268.571L207.147 248.429H184.093L195.62 268.571Z" fill="#C6A88F"/>
<path d="M225.977 268.571L237.504 248.429H214.45L225.977 268.571Z" fill="#C6A88F"/>
<path d="M256.333 268.571L267.86 248.429H244.806L256.333 268.571Z" fill="#C6A88F"/>
<path d="M286.69 268.571L298.217 248.429H275.163L286.69 268.571Z" fill="#C6A88F"/>
<path d="M165.263 295.429L176.79 275.286H153.736L165.263 295.429Z" fill="#C6A88F"/>
<path d="M195.62 295.429L207.147 275.286H184.093L195.62 295.429Z" fill="#C6A88F"/>
<path d="M225.977 295.429L237.504 275.286H214.45L225.977 295.429Z" fill="#C6A88F"/>
<path d="M256.333 295.429L267.86 275.286H244.806L256.333 295.429Z" fill="#C6A88F"/>
<path d="M286.69 295.429L298.217 275.286H275.163L286.69 295.429Z" fill="#C6A88F"/>
<path d="M165.263 322.286L176.79 302.143H153.736L165.263 322.286Z" fill="#C6A88F"/>
<path d="M195.62 322.286L207.147 302.143H184.093L195.62 322.286Z" fill="#C6A88F"/>
<path d="M225.977 322.286L237.504 302.143H214.45L225.977 322.286Z" fill="#C6A88F"/>
<path d="M256.333 322.286L267.86 302.143H244.806L256.333 322.286Z" fill="#C6A88F"/>
<path d="M286.69 322.286L298.217 302.143H275.163L286.69 322.286Z" fill="#C6A88F"/>
<path d="M165.263 349.143L176.79 329H153.736L165.263 349.143Z" fill="#C6A88F"/>
<path d="M195.62 349.143L207.147 329H184.093L195.62 349.143Z" fill="#C6A88F"/>
<path d="M225.977 349.143L237.504 329H214.45L225.977 349.143Z" fill="#C6A88F"/>
<path d="M256.333 349.143L267.86 329H244.806L256.333 349.143Z" fill="#C6A88F"/>
<path d="M286.69 349.143L298.217 329H275.163L286.69 349.143Z" fill="#C6A88F"/>
</svg>
